<?xml version="1.0" encoding="UTF-8"?>
<svg width="36px" height="38px" viewBox="0 0 36 38" version="1.1" xmlns="http://www.w3.org/2000/svg" xmlns:xlink="http://www.w3.org/1999/xlink">
    <!-- Generator: Sketch 46.2 (44496) - http://www.bohemiancoding.com/sketch -->
    <title>Group 19</title>
    <desc>Created with Sketch.</desc>
    <defs>
        <polygon id="path-1" points="9 22.1170065 19.7321211 0 33.7657236 6.28861557 23.0336025 28.4056221"></polygon>
        <polygon id="path-2" points="10 24.4034167 10 0 25.4843671 0 25.4843671 24.4034167"></polygon>
        <rect id="path-3" x="0" y="17" width="28" height="21"></rect>
        <rect id="path-4" x="3" y="14" width="28" height="21"></rect>
        <rect id="path-5" x="6" y="11" width="28" height="21"></rect>
        <path d="M10,0 L14,0 L14,0 L14,0 C14,2.209139 12.209139,4 10,4 L10,4 L10,0 Z" id="path-6"></path>
        <path d="M22,0 L26,0 L26,0 L26,0 C26,2.209139 24.209139,4 22,4 L22,4 L22,0 Z" id="path-7"></path>
        <path d="M28.6743304,5.67433039 L32.6743304,5.67433039 L32.6743304,5.67433039 L32.6743304,5.67433039 C32.6743304,7.88346939 30.8834694,9.67433039 28.6743304,9.67433039 L28.6743304,9.67433039 L28.6743304,5.67433039 Z" id="path-8"></path>
        <rect id="path-9" x="25" y="18" width="11" height="7"></rect>
    </defs>
    <g id="wallets" stroke="none" stroke-width="1" fill="none" fill-rule="evenodd">
        <g id="1" transform="translate(-190.000000, -587.000000)">
            <g id="Group-19" transform="translate(190.000000, 587.000000)">
                <g id="Rectangle-3">
                    <use fill="#F0F0F0" fill-rule="evenodd" xlink:href="#path-1"></use>
                    <path stroke="#5B6A72" stroke-width="1" d="M9.67487677,21.8715205 L22.7954895,27.7510151 L33.0908468,6.53410162 L19.9702341,0.654607051 L9.67487677,21.8715205 Z"></path>
                </g>
                <ellipse id="Oval-3" stroke="#5B6A72" fill="#D8D8D8" cx="20.6464187" cy="15.4651049" rx="4.64641868" ry="4.46510493"></ellipse>
                <path d="M19,3.794442 L23.2769932,2 L23.1025456,2.35950571 C22.381996,3.84443132 20.5452237,4.48687418 19,3.794442 Z" id="Path-6" stroke="#5B6A72"></path>
                <g id="Rectangle-3">
                    <use fill="#F0F0F0" fill-rule="evenodd" xlink:href="#path-2"></use>
                    <path stroke="#5B6A72" stroke-width="1" d="M10.5,23.9034167 L24.9843671,23.9034167 L24.9843671,0.5 L10.5,0.5 L10.5,23.9034167 Z"></path>
                </g>
                <circle id="Oval-3" stroke="#5B6A72" fill="#D8D8D8" cx="18" cy="14" r="5"></circle>
                <g id="Rectangle-4">
                    <use fill="#F0F0F0" fill-rule="evenodd" xlink:href="#path-3"></use>
                    <rect stroke="#5B6A72" stroke-width="1" x="0.5" y="17.5" width="27" height="20"></rect>
                </g>
                <g id="Rectangle-4">
                    <use fill="#F0F0F0" fill-rule="evenodd" xlink:href="#path-4"></use>
                    <rect stroke="#5B6A72" stroke-width="1" x="3.5" y="14.5" width="27" height="20"></rect>
                </g>
                <g id="Rectangle-4">
                    <use fill="#D7F2FB" fill-rule="evenodd" xlink:href="#path-5"></use>
                    <rect stroke="#5B6A72" stroke-width="1" x="6.5" y="11.5" width="27" height="20"></rect>
                </g>
                <g id="Rectangle-5">
                    <use fill="#F0F0F0" fill-rule="evenodd" xlink:href="#path-6"></use>
                    <path stroke="#5B6A72" stroke-width="1" d="M10.5,0.5 L10.5,3.46455557 C12.0328456,3.24529919 13.2452992,2.03284558 13.4645556,0.5 L10.5,0.5 Z"></path>
                </g>
                <g id="Rectangle-5" transform="translate(24.000000, 2.000000) rotate(-270.000000) translate(-24.000000, -2.000000) ">
                    <use fill="#F0F0F0" fill-rule="evenodd" xlink:href="#path-7"></use>
                    <path stroke="#5B6A72" stroke-width="1" d="M22.5,0.5 L22.5,3.46455557 C24.0328456,3.24529919 25.2452992,2.03284558 25.4645556,0.5 L22.5,0.5 Z"></path>
                </g>
                <g id="Rectangle-5" transform="translate(30.674330, 7.674330) rotate(-244.000000) translate(-30.674330, -7.674330) ">
                    <use fill="#F0F0F0" fill-rule="evenodd" xlink:href="#path-8"></use>
                    <path stroke="#5B6A72" stroke-width="1" d="M29.1743304,6.17433039 L29.1743304,9.13888596 C30.707176,8.91962958 31.9196296,7.70717596 32.138886,6.17433039 L29.1743304,6.17433039 Z"></path>
                </g>
                <g id="Rectangle-10">
                    <use fill="#F0F0F0" fill-rule="evenodd" xlink:href="#path-9"></use>
                    <rect stroke="#5B6A72" stroke-width="1" x="25.5" y="18.5" width="10" height="6"></rect>
                </g>
            </g>
        </g>
    </g>
</svg>