<?xml version="1.0" encoding="UTF-8"?>
<svg width="40px" height="35px" viewBox="0 0 40 35" version="1.1" xmlns="http://www.w3.org/2000/svg" xmlns:xlink="http://www.w3.org/1999/xlink">
    <!-- Generator: Sketch 46.2 (44496) - http://www.bohemiancoding.com/sketch -->
    <title>Group 11</title>
    <desc>Created with Sketch.</desc>
    <defs>
        <rect id="path-1" x="0" y="7" width="25" height="15"></rect>
        <rect id="path-2" x="0" y="0" width="40" height="31" rx="5.4"></rect>
        <path d="M0,25 L40,25 L40,25.6 L40,25.6 C40,28.5823376 37.5823376,31 34.6,31 L5.4,31 L5.4,31 C2.41766235,31 3.02976628e-15,28.5823376 2.66453526e-15,25.6 L0,25 Z" id="path-3"></path>
        <rect id="path-4" x="0" y="7" width="25" height="14"></rect>
        <path d="M25,17 L25,17 L25,21 L21,21 L21,21 L21,21 C21,18.790861 22.790861,17 25,17 Z" id="path-5"></path>
        <path d="M25,7 L25,7 L25,11 L21,11 L21,11 L21,11 C21,8.790861 22.790861,7 25,7 Z" id="path-6"></path>
    </defs>
    <g id="wallets" stroke="none" stroke-width="1" fill="none" fill-rule="evenodd">
        <g id="1" transform="translate(-1040.000000, -524.000000)">
            <g id="Group-11" transform="translate(1040.000000, 524.000000)">
                <g id="Rectangle-3">
                    <use fill="#F0F0F0" fill-rule="evenodd" xlink:href="#path-1"></use>
                    <rect stroke="#5B6A72" stroke-width="1" x="0.5" y="7.5" width="24" height="14"></rect>
                </g>
                <g id="Rectangle-419">
                    <use fill="#DCF2F9" fill-rule="evenodd" xlink:href="#path-2"></use>
                    <rect stroke="#5B6A72" stroke-width="1" x="0.5" y="0.5" width="39" height="30" rx="5.4"></rect>
                </g>
                <g id="Rectangle-419-Copy">
                    <use fill="#ECEFF0" fill-rule="evenodd" xlink:href="#path-3"></use>
                    <path stroke="#5B6A72" stroke-width="1" d="M0.5,25.5 L0.5,25.6 C0.5,28.3061953 2.69380473,30.5 5.4,30.5 L34.6,30.5 C37.3061953,30.5 39.5,28.3061953 39.5,25.6 L39.5,25.5 L0.5,25.5 Z"></path>
                </g>
                <rect id="Rectangle-420" stroke="#5B6A72" x="15.5" y="30.5" width="10" height="4"></rect>
                <path d="M13,34.5 L28,34.5" id="Line" stroke="#5B6A72" stroke-linecap="round" stroke-linejoin="round"></path>
                <g id="Rectangle-3">
                    <use fill="#F0F0F0" fill-rule="evenodd" xlink:href="#path-4"></use>
                    <rect stroke="#5B6A72" stroke-width="1" x="0.5" y="7.5" width="24" height="13"></rect>
                </g>
                <circle id="Oval-3" stroke="#5B6A72" fill="#D8D8D8" cx="12" cy="14" r="4"></circle>
                <g id="Rectangle-11">
                    <use fill="#D8D8D8" fill-rule="evenodd" xlink:href="#path-5"></use>
                    <path stroke="#5B6A72" stroke-width="1" d="M24.5,17.5354444 C22.9671544,17.7547008 21.7547008,18.9671544 21.5354444,20.5 L24.5,20.5 L24.5,17.5354444 Z"></path>
                </g>
                <g id="Rectangle-11" transform="translate(23.000000, 9.000000) rotate(-90.000000) translate(-23.000000, -9.000000) ">
                    <use fill="#D8D8D8" fill-rule="evenodd" xlink:href="#path-6"></use>
                    <path stroke="#5B6A72" stroke-width="1" d="M24.5,7.53544443 C22.9671544,7.75470081 21.7547008,8.96715442 21.5354444,10.5 L24.5,10.5 L24.5,7.53544443 Z"></path>
                </g>
            </g>
        </g>
    </g>
</svg>