<?xml version="1.0" encoding="UTF-8"?>
<svg width="25px" height="38px" viewBox="0 0 25 38" version="1.1" xmlns="http://www.w3.org/2000/svg" xmlns:xlink="http://www.w3.org/1999/xlink">
    <!-- Generator: Sketch 46.2 (44496) - http://www.bohemiancoding.com/sketch -->
    <title>Group 15</title>
    <desc>Created with Sketch.</desc>
    <defs>
        <rect id="path-1" x="0" y="0" width="20" height="38" rx="4.536"></rect>
        <rect id="path-2" x="1" y="6" width="18" height="23"></rect>
        <rect id="path-3" x="0" y="10" width="25" height="14"></rect>
        <path d="M25,20 L25,20 L25,24 L21,24 L21,24 L21,24 C21,21.790861 22.790861,20 25,20 Z" id="path-4"></path>
        <path d="M24.8181152,9.98583984 L24.8181152,9.98583984 L24.8181152,13.9858398 L20.8181152,13.9858398 L20.8181152,13.9858398 L20.8181152,13.9858398 C20.8181152,11.7767008 22.6089762,9.98583984 24.8181152,9.98583984 Z" id="path-5"></path>
    </defs>
    <g id="wallets" stroke="none" stroke-width="1" fill="none" fill-rule="evenodd">
        <g id="1" transform="translate(-480.000000, -522.000000)">
            <g id="Group-15" transform="translate(480.000000, 522.000000)">
                <g id="Rectangle-2">
                    <use fill="#F0F0F0" fill-rule="evenodd" xlink:href="#path-1"></use>
                    <rect stroke="#5B6A72" stroke-width="1" x="0.5" y="0.5" width="19" height="37" rx="4.536"></rect>
                </g>
                <g id="Rectangle-12">
                    <use fill="#D8F2FA" fill-rule="evenodd" xlink:href="#path-2"></use>
                    <rect stroke="#D8F2FA" stroke-width="1" x="1.5" y="6.5" width="17" height="22"></rect>
                </g>
                <path d="M0.254394531,5.5 L19.5132934,5.5" id="Path-2" stroke="#5B6A72"></path>
                <path d="M0.254394531,29.5 L19.7826087,29.5" id="Path-3" stroke="#5B6A72"></path>
                <circle id="Oval" stroke="#5B6A72" fill="#F0F0F0" cx="10" cy="33" r="2"></circle>
                <g id="Rectangle-3">
                    <use fill="#F0F0F0" fill-rule="evenodd" xlink:href="#path-3"></use>
                    <rect stroke="#5B6A72" stroke-width="1" x="0.5" y="10.5" width="24" height="13"></rect>
                </g>
                <circle id="Oval-3" stroke="#5B6A72" fill="#D8D8D8" cx="12" cy="17" r="4"></circle>
                <g id="Rectangle-11">
                    <use fill="#D8D8D8" fill-rule="evenodd" xlink:href="#path-4"></use>
                    <path stroke="#5B6A72" stroke-width="1" d="M24.5,20.5354444 C22.9671544,20.7547008 21.7547008,21.9671544 21.5354444,23.5 L24.5,23.5 L24.5,20.5354444 Z"></path>
                </g>
                <g id="Rectangle-11" transform="translate(22.818115, 11.985840) rotate(-90.000000) translate(-22.818115, -11.985840) ">
                    <use fill="#D8D8D8" fill-rule="evenodd" xlink:href="#path-5"></use>
                    <path stroke="#5B6A72" stroke-width="1" d="M24.3181152,10.5212843 C22.7852697,10.7405407 21.572816,11.9529943 21.3535597,13.4858398 L24.3181152,13.4858398 L24.3181152,10.5212843 Z"></path>
                </g>
            </g>
        </g>
    </g>
</svg>