<?xml version="1.0" encoding="UTF-8" standalone="no"?>
<svg width="72px" height="67px" viewBox="0 0 72 67" version="1.1" xmlns="http://www.w3.org/2000/svg" xmlns:xlink="http://www.w3.org/1999/xlink">
    <!-- Generator: Sketch 39.1 (31720) - http://www.bohemiancoding.com/sketch -->
    <title>applications</title>
    <desc>Created with Sketch.</desc>
    <defs></defs>
    <g id="Page-1" stroke="none" stroke-width="1" fill="none" fill-rule="evenodd">
        <g id="STELLAR-Build-Challenge" transform="translate(-659.000000, -3134.000000)">
            <g id="applications" transform="translate(660.000000, 3135.000000)">
                <path d="M0,60 C0,61.38125 1.11875,62.5 2.5,62.5 L65,62.5 C66.38125,62.5 67.5,61.38125 67.5,60 L67.5,12.5 L0,12.5 L0,60 Z" id="Fill-1"></path>
                <path d="M7.5,6.25 C7.5,6.94125 6.94125,7.5 6.25,7.5 C5.55875,7.5 5,6.94125 5,6.25 C5,5.56 5.55875,5 6.25,5 C6.94125,5 7.5,5.56 7.5,6.25 L7.5,6.25 Z" id="Stroke-5" stroke="#EB655F" stroke-width="2" stroke-linecap="round" stroke-linejoin="round"></path>
                <path d="M15,6.25 C15,6.94125 14.44125,7.5 13.75,7.5 C13.05875,7.5 12.5,6.94125 12.5,6.25 C12.5,5.56 13.05875,5 13.75,5 C14.44125,5 15,5.56 15,6.25 L15,6.25 Z" id="Stroke-7" stroke="#F9A21A" stroke-width="2" stroke-linecap="round" stroke-linejoin="round"></path>
                <path d="M22.5,6.25 C22.5,6.94125 21.94125,7.5 21.25,7.5 C20.55875,7.5 20,6.94125 20,6.25 C20,5.56 20.55875,5 21.25,5 C21.94125,5 22.5,5.56 22.5,6.25 L22.5,6.25 Z" id="Stroke-9" stroke="#67BC45" stroke-width="2" stroke-linecap="round" stroke-linejoin="round"></path>
                <path d="M67.5,30 L67.5,2.5 C67.5,1.12 66.38125,0 65,0 L2.5,0 C1.11875,0 0,1.12 0,2.5 L0,60 C0,61.38125 1.11875,62.5 2.5,62.5 L35,62.5" id="Stroke-11" stroke="#5B6A72" stroke-width="2" stroke-linecap="round" stroke-linejoin="round"></path>
                <path d="M0,12.5 L67.5,12.5" id="Stroke-13" stroke="#5B6A72" stroke-width="2" stroke-linecap="round" stroke-linejoin="round"></path>
                <path d="M55,53.75 C52.93,53.75 51.25,52.07125 51.25,50 C51.25,47.93 52.93,46.25 55,46.25 C57.07,46.25 58.75,47.93 58.75,50 C58.75,52.07125 57.07,53.75 55,53.75 L55,53.75 Z M70,52.07 L70,47.9325 L66.4425,46.745 C66.18875,45.855 65.835,45.005 65.3925,44.21125 L67.07,40.8575 L64.1425,37.93125 L60.78875,39.6075 C59.99625,39.165 59.14625,38.81125 58.255,38.55875 L57.06875,35 L52.93125,35 L51.745,38.55875 C50.85375,38.81125 50.00375,39.165 49.21125,39.6075 L45.8575,37.93125 L42.93,40.8575 L44.6075,44.21125 C44.165,45.005 43.81125,45.855 43.5575,46.745 L40,47.9325 L40,52.07 L43.5575,53.255 C43.81125,54.1475 44.165,54.9975 44.6075,55.79 L42.93,59.14375 L45.8575,62.07 L49.21125,60.3925 C50.00375,60.835 50.85375,61.18875 51.745,61.4425 L52.93125,65 L57.06875,65 L58.255,61.4425 C59.14625,61.18875 59.99625,60.835 60.78875,60.3925 L64.1425,62.07 L67.07,59.14375 L65.3925,55.79 C65.835,54.9975 66.18875,54.1475 66.4425,53.255 L70,52.07 Z" id="Fill-15" stroke="#5B6A72" stroke-width="2" fill="#DCF2F9"></path>
            </g>
        </g>
    </g>
</svg>