<?xml version="1.0" encoding="UTF-8" standalone="no"?>
<svg width="47px" height="43px" viewBox="0 0 47 43" version="1.1" xmlns="http://www.w3.org/2000/svg" xmlns:xlink="http://www.w3.org/1999/xlink">
    <!-- Generator: sketchtool 39.1 (31720) - http://www.bohemiancoding.com/sketch -->
    <title>49563A28-1697-4B32-BC70-F0906E2C7B3A</title>
    <desc>Created with sketchtool.</desc>
    <defs></defs>
    <g id="Page-1" stroke="none" stroke-width="1" fill="none" fill-rule="evenodd">
        <g id="STELLAR-Build-Challenge" transform="translate(-666.000000, -2478.000000)">
            <g id="Group-21" transform="translate(300.000000, 2456.000000)">
                <g id="Group-9" transform="translate(359.000000, 23.000000)">
                    <g id="award-copy" transform="translate(8.000000, 0.000000)">
                        <path d="M11.5361885,40.1774423 C9.31988077,40.4237885 7.67380385,38.9440962 7.81838077,38.9279423 C7.81838077,38.9279423 9.48465,36.8206731 11.7009577,36.5743269 C13.9172654,36.3279808 15.8436115,38.0354423 15.8436115,38.0354423 C15.8436115,38.0354423 13.7524962,39.9310962 11.5361885,40.1774423" id="Fill-1" fill="#FFFFFF"></path>
                        <path d="M11.5361885,40.1774423 C9.31988077,40.4237885 7.67380385,38.9440962 7.81838077,38.9279423 C7.81838077,38.9279423 9.48465,36.8206731 11.7009577,36.5743269 C13.9172654,36.3279808 15.8436115,38.0354423 15.8436115,38.0354423 C15.8436115,38.0354423 13.7524962,39.9310962 11.5361885,40.1774423 L11.5361885,40.1774423 Z" id="Stroke-3" stroke="#5B6A72" stroke-width="2" stroke-linecap="round" stroke-linejoin="round"></path>
                        <path d="M1.92844615,25.8010846 C0.276715385,24.3028154 -0.0899769231,21.6018923 0.0174461538,21.6988154 C0.0174461538,21.6988154 2.69979231,21.5526231 4.35152308,23.0508923 C6.00325385,24.5491615 5.99921538,27.1232769 5.99921538,27.1232769 C5.99921538,27.1232769 3.58017692,27.2985462 1.92844615,25.8010846" id="Fill-5" fill="#FFFFFF"></path>
                        <path d="M1.92844615,25.8010846 C0.276715385,24.3028154 -0.0899769231,21.6018923 0.0174461538,21.6988154 C0.0174461538,21.6988154 2.69979231,21.5526231 4.35152308,23.0508923 C6.00325385,24.5491615 5.99921538,27.1232769 5.99921538,27.1232769 C5.99921538,27.1232769 3.58017692,27.2985462 1.92844615,25.8010846 L1.92844615,25.8010846 Z" id="Stroke-7" stroke="#5B6A72" stroke-width="2" stroke-linecap="round" stroke-linejoin="round"></path>
                        <path d="M4.77919615,33.9246923 C2.65092692,33.2575385 1.80446538,31.2762692 1.94258077,31.3190769 C1.94258077,31.3190769 4.31638846,30.0615 6.44465769,30.7278462 C8.57211923,31.395 9.64877308,33.7332692 9.64877308,33.7332692 C9.64877308,33.7332692 6.90665769,34.5910385 4.77919615,33.9246923" id="Fill-9" fill="#FFFFFF"></path>
                        <path d="M4.77919615,33.9246923 C2.65092692,33.2575385 1.80446538,31.2762692 1.94258077,31.3190769 C1.94258077,31.3190769 4.31638846,30.0615 6.44465769,30.7278462 C8.57211923,31.395 9.64877308,33.7332692 9.64877308,33.7332692 C9.64877308,33.7332692 6.90665769,34.5910385 4.77919615,33.9246923 L4.77919615,33.9246923 Z" id="Stroke-11" stroke="#5B6A72" stroke-width="2" stroke-linecap="round" stroke-linejoin="round"></path>
                        <path d="M14.3542269,7.17255 C14.2653808,7.22020385 14.1765346,7.26866538 14.0884962,7.31793462 C8.91280385,10.2207808 5.41388077,15.7558962 5.41388077,22.1132423 C5.41388077,30.3743192 11.3237654,37.2485885 19.14465,38.7589731" id="Stroke-13" stroke="#5B6A72" stroke-width="2" stroke-linecap="round" stroke-linejoin="round"></path>
                        <path d="M2.53429615,16.6359577 C1.65956538,14.5844192 2.22737308,11.8495731 2.28391154,11.9828423 C2.28391154,11.9828423 4.78210385,12.9714577 5.65764231,15.0221885 C6.53237308,17.0737269 5.45248846,19.4103808 5.45248846,19.4103808 C5.45248846,19.4103808 3.40902692,18.6866885 2.53429615,16.6359577" id="Fill-15" fill="#FFFFFF"></path>
                        <path d="M2.53429615,16.6359577 C1.65956538,14.5844192 2.22737308,11.8495731 2.28391154,11.9828423 C2.28391154,11.9828423 4.78210385,12.9714577 5.65764231,15.0221885 C6.53237308,17.0737269 5.45248846,19.4103808 5.45248846,19.4103808 C5.45248846,19.4103808 3.40902692,18.6866885 2.53429615,16.6359577 L2.53429615,16.6359577 Z" id="Stroke-17" stroke="#5B6A72" stroke-width="2" stroke-linecap="round" stroke-linejoin="round"></path>
                        <path d="M14.3366192,3.29368846 C15.3510808,1.30757308 17.9405423,-0.121234615 17.8743115,0.00799615385 C17.8743115,0.00799615385 18.9372346,2.68791923 17.7038885,4.54480385 C16.2540808,6.72799615 14.20335,7.20049615 14.20335,7.20049615 C14.20335,7.20049615 13.3229654,5.27980385 14.3366192,3.29368846" id="Fill-19" fill="#FFFFFF"></path>
                        <path d="M14.3366192,3.29368846 C15.3510808,1.30757308 17.9405423,-0.121234615 17.8743115,0.00799615385 C17.8743115,0.00799615385 18.9372346,2.68791923 17.7038885,4.54480385 C16.2540808,6.72799615 14.20335,7.20049615 14.20335,7.20049615 C14.20335,7.20049615 13.3229654,5.27980385 14.3366192,3.29368846 L14.3366192,3.29368846 Z" id="Stroke-21" stroke="#5B6A72" stroke-width="2" stroke-linecap="round" stroke-linejoin="round"></path>
                        <path d="M6.60918462,8.75498077 C6.41614615,6.53301923 7.89503077,3.95486538 7.90795385,4.09944231 C7.90795385,4.09944231 9.97483846,5.81498077 10.1678769,8.03694231 C10.3617231,10.2580962 8.60822308,12.1440577 8.60822308,12.1440577 C8.60822308,12.1440577 6.80303077,10.9761346 6.60918462,8.75498077" id="Fill-23" fill="#FFFFFF"></path>
                        <path d="M6.60918462,8.75498077 C6.41614615,6.53301923 7.89503077,3.95486538 7.90795385,4.09944231 C7.90795385,4.09944231 9.97483846,5.81498077 10.1678769,8.03694231 C10.3617231,10.2580962 8.60822308,12.1440577 8.60822308,12.1440577 C8.60822308,12.1440577 6.80303077,10.9761346 6.60918462,8.75498077 L6.60918462,8.75498077 Z" id="Stroke-25" stroke="#5B6A72" stroke-width="2" stroke-linecap="round" stroke-linejoin="round"></path>
                        <path d="M33.2143269,40.1774423 C35.4306346,40.4237885 37.0767115,38.9440962 36.9321346,38.9279423 C36.9321346,38.9279423 35.2658654,36.8206731 33.0495577,36.5743269 C30.83325,36.3279808 28.9069038,38.0354423 28.9069038,38.0354423 C28.9069038,38.0354423 30.9980192,39.9310962 33.2143269,40.1774423" id="Fill-27" fill="#FFFFFF"></path>
                        <path d="M33.2143269,40.1774423 C35.4306346,40.4237885 37.0767115,38.9440962 36.9321346,38.9279423 C36.9321346,38.9279423 35.2658654,36.8206731 33.0495577,36.5743269 C30.83325,36.3279808 28.9069038,38.0354423 28.9069038,38.0354423 C28.9069038,38.0354423 30.9980192,39.9310962 33.2143269,40.1774423 L33.2143269,40.1774423 Z" id="Stroke-29" stroke="#5B6A72" stroke-width="2" stroke-linecap="round" stroke-linejoin="round"></path>
                        <path d="M42.8220692,25.8010846 C44.4738,24.3028154 44.8404923,21.6018923 44.7330692,21.6988154 C44.7330692,21.6988154 42.0507231,21.5526231 40.3989923,23.0508923 C38.7472615,24.5491615 38.7513,27.1232769 38.7513,27.1232769 C38.7513,27.1232769 41.1703385,27.2985462 42.8220692,25.8010846" id="Fill-31" fill="#FFFFFF"></path>
                        <path d="M42.8220692,25.8010846 C44.4738,24.3028154 44.8404923,21.6018923 44.7330692,21.6988154 C44.7330692,21.6988154 42.0507231,21.5526231 40.3989923,23.0508923 C38.7472615,24.5491615 38.7513,27.1232769 38.7513,27.1232769 C38.7513,27.1232769 41.1703385,27.2985462 42.8220692,25.8010846 L42.8220692,25.8010846 Z" id="Stroke-33" stroke="#5B6A72" stroke-width="2" stroke-linecap="round" stroke-linejoin="round"></path>
                        <path d="M39.9713192,33.9246923 C42.0995885,33.2575385 42.94605,31.2762692 42.8079346,31.3190769 C42.8079346,31.3190769 40.4341269,30.0615 38.3058577,30.7278462 C36.1775885,31.395 35.1017423,33.7332692 35.1017423,33.7332692 C35.1017423,33.7332692 37.84305,34.5910385 39.9713192,33.9246923" id="Fill-35" fill="#FFFFFF"></path>
                        <path d="M39.9713192,33.9246923 C42.0995885,33.2575385 42.94605,31.2762692 42.8079346,31.3190769 C42.8079346,31.3190769 40.4341269,30.0615 38.3058577,30.7278462 C36.1775885,31.395 35.1017423,33.7332692 35.1017423,33.7332692 C35.1017423,33.7332692 37.84305,34.5910385 39.9713192,33.9246923 L39.9713192,33.9246923 Z" id="Stroke-37" stroke="#5B6A72" stroke-width="2" stroke-linecap="round" stroke-linejoin="round"></path>
                        <path d="M30.3962885,7.17255 C30.4851346,7.22020385 30.5739808,7.26866538 30.6620192,7.31793462 C35.8377115,10.2207808 39.3366346,15.7558962 39.3366346,22.1132423 C39.3366346,30.3743192 33.42675,37.2485885 25.6058654,38.7589731" id="Stroke-39" stroke="#5B6A72" stroke-width="2" stroke-linecap="round" stroke-linejoin="round"></path>
                        <path d="M42.2162192,16.6359577 C43.09095,14.5844192 42.5231423,11.8495731 42.4666038,11.9828423 C42.4666038,11.9828423 39.9684115,12.9714577 39.0928731,15.0221885 C38.2181423,17.0737269 39.2980269,19.4103808 39.2980269,19.4103808 C39.2980269,19.4103808 41.3414885,18.6866885 42.2162192,16.6359577" id="Fill-41" fill="#FFFFFF"></path>
                        <path d="M42.2162192,16.6359577 C43.09095,14.5844192 42.5231423,11.8495731 42.4666038,11.9828423 C42.4666038,11.9828423 39.9684115,12.9714577 39.0928731,15.0221885 C38.2181423,17.0737269 39.2980269,19.4103808 39.2980269,19.4103808 C39.2980269,19.4103808 41.3414885,18.6866885 42.2162192,16.6359577 L42.2162192,16.6359577 Z" id="Stroke-43" stroke="#5B6A72" stroke-width="2" stroke-linecap="round" stroke-linejoin="round"></path>
                        <path d="M30.4138962,3.29368846 C29.4002423,1.30757308 26.8099731,-0.121234615 26.8762038,0.00799615385 C26.8762038,0.00799615385 25.8132808,2.68791923 27.0466269,4.54480385 C28.4972423,6.72799615 30.5471654,7.20049615 30.5471654,7.20049615 C30.5471654,7.20049615 31.42755,5.27980385 30.4138962,3.29368846" id="Fill-45" fill="#FFFFFF"></path>
                        <path d="M30.4138962,3.29368846 C29.4002423,1.30757308 26.8099731,-0.121234615 26.8762038,0.00799615385 C26.8762038,0.00799615385 25.8132808,2.68791923 27.0466269,4.54480385 C28.4972423,6.72799615 30.5471654,7.20049615 30.5471654,7.20049615 C30.5471654,7.20049615 31.42755,5.27980385 30.4138962,3.29368846 L30.4138962,3.29368846 Z" id="Stroke-47" stroke="#5B6A72" stroke-width="2" stroke-linecap="round" stroke-linejoin="round"></path>
                        <path d="M38.1413308,8.75498077 C38.3343692,6.53301923 36.8554846,3.95486538 36.8425615,4.09944231 C36.8425615,4.09944231 34.7756769,5.81498077 34.5826385,8.03694231 C34.3887923,10.2580962 36.1422923,12.1440577 36.1422923,12.1440577 C36.1422923,12.1440577 37.9474846,10.9761346 38.1413308,8.75498077" id="Fill-49" fill="#FFFFFF"></path>
                        <path d="M38.1413308,8.75498077 C38.3343692,6.53301923 36.8554846,3.95486538 36.8425615,4.09944231 C36.8425615,4.09944231 34.7756769,5.81498077 34.5826385,8.03694231 C34.3887923,10.2580962 36.1422923,12.1440577 36.1422923,12.1440577 C36.1422923,12.1440577 37.9474846,10.9761346 38.1413308,8.75498077 L38.1413308,8.75498077 Z" id="Stroke-51" stroke="#5B6A72" stroke-width="2" stroke-linecap="round" stroke-linejoin="round"></path>
                        <path d="M36.1061885,22.1134038 C36.1061885,29.6968269 29.9588423,35.8441731 22.3754192,35.8441731 C14.7919962,35.8441731 8.64465,29.6968269 8.64465,22.1134038 C8.64465,14.5299808 14.7919962,8.38263462 22.3754192,8.38263462 C29.9588423,8.38263462 36.1061885,14.5299808 36.1061885,22.1134038 L36.1061885,22.1134038 Z" id="Stroke-53" stroke="#FFFFFF" stroke-width="2" stroke-linecap="round" stroke-linejoin="round" stroke-dasharray="0,3.955"></path>
                        <path d="M29.6444885,29.38215 L15.9137192,29.38215 C15.2441423,29.38215 14.7021808,28.8393808 14.7021808,28.1706115 C14.7021808,27.5018423 15.2441423,26.9590731 15.9137192,26.9590731 L29.6444885,26.9590731 C30.3132577,26.9590731 30.8560269,27.5018423 30.8560269,28.1706115 C30.8560269,28.8393808 30.3132577,29.38215 29.6444885,29.38215" id="Fill-55" fill="#08B5E5"></path>
                        <path d="M15.9137192,29.38215 C15.2441423,29.38215 14.7021808,28.8393808 14.7021808,28.1706115 C14.7021808,27.5018423 15.2441423,26.9590731 15.9137192,26.9590731 L29.6444885,26.9590731 C30.3132577,26.9590731 30.8560269,27.5018423 30.8560269,28.1706115 C30.8560269,28.8393808 30.3132577,29.38215 29.6444885,29.38215 L15.9137192,29.38215 Z" id="Stroke-57" stroke="#5B6A72" stroke-width="2" stroke-linecap="round" stroke-linejoin="round"></path>
                        <path d="M25.8514846,20.6934808 L22.3751769,14.0356731 L18.8988692,20.6934808 C18.4837154,21.3598269 17.5807154,21.5173269 16.9652538,21.0294808 L14.2982538,18.0741346 L15.7941,26.95875 L28.9562538,26.95875 L30.4521,18.0741346 L27.7851,21.0294808 C27.1696385,21.5173269 26.2666385,21.3598269 25.8514846,20.6934808" id="Fill-59" fill="#DCF2F9"></path>
                        <path d="M25.8514846,20.6934808 L22.3751769,14.0356731 L18.8988692,20.6934808 C18.4837154,21.3598269 17.5807154,21.5173269 16.9652538,21.0294808 L14.2982538,18.0741346 L15.7941,26.95875 L28.9562538,26.95875 L30.4521,18.0741346 L27.7851,21.0294808 C27.1696385,21.5173269 26.2666385,21.3598269 25.8514846,20.6934808 L25.8514846,20.6934808 Z" id="Stroke-61" stroke="#5B6A72" stroke-width="2" stroke-linecap="round" stroke-linejoin="round"></path>
                        <path d="M22.7791038,13.2283038 C22.7791038,13.4512269 22.5981808,13.63215 22.3752577,13.63215 C22.1523346,13.63215 21.9714115,13.4512269 21.9714115,13.2283038 C21.9714115,13.0053808 22.1523346,12.8244577 22.3752577,12.8244577 C22.5981808,12.8244577 22.7791038,13.0053808 22.7791038,13.2283038 L22.7791038,13.2283038 Z" id="Stroke-63" stroke="#5B6A72" stroke-width="2" stroke-linecap="round" stroke-linejoin="round"></path>
                        <path d="M30.8560269,18.0744577 C30.8560269,18.2973808 30.6751038,18.4783038 30.4521808,18.4783038 C30.2292577,18.4783038 30.0483346,18.2973808 30.0483346,18.0744577 C30.0483346,17.8515346 30.2292577,17.6706115 30.4521808,17.6706115 C30.6751038,17.6706115 30.8560269,17.8515346 30.8560269,18.0744577 L30.8560269,18.0744577 Z" id="Stroke-65" stroke="#5B6A72" stroke-width="2" stroke-linecap="round" stroke-linejoin="round"></path>
                        <path d="M14.7021808,18.0744577 C14.7021808,18.2973808 14.5212577,18.4783038 14.2983346,18.4783038 C14.0754115,18.4783038 13.8944885,18.2973808 13.8944885,18.0744577 C13.8944885,17.8515346 14.0754115,17.6706115 14.2983346,17.6706115 C14.5212577,17.6706115 14.7021808,17.8515346 14.7021808,18.0744577 L14.7021808,18.0744577 Z" id="Stroke-67" stroke="#5B6A72" stroke-width="2" stroke-linecap="round" stroke-linejoin="round"></path>
                        <path d="" id="Stroke-69" stroke="#383128" stroke-width="2" stroke-linecap="round" stroke-linejoin="round"></path>
                        <path d="" id="Stroke-71" stroke="#383128" stroke-width="2" stroke-linecap="round" stroke-linejoin="round"></path>
                        <path d="" id="Stroke-73" stroke="#383128" stroke-width="2" stroke-linecap="round" stroke-linejoin="round"></path>
                    </g>
                </g>
            </g>
        </g>
    </g>
</svg>