<?xml version="1.0" encoding="UTF-8" standalone="no"?>
<svg width="70px" height="66px" viewBox="0 0 70 66" version="1.1" xmlns="http://www.w3.org/2000/svg" xmlns:xlink="http://www.w3.org/1999/xlink">
    <!-- Generator: Sketch 39.1 (31720) - http://www.bohemiancoding.com/sketch -->
    <title>exchanges</title>
    <desc>Created with Sketch.</desc>
    <defs></defs>
    <g id="Page-1" stroke="none" stroke-width="1" fill="none" fill-rule="evenodd">
        <g id="STELLAR-Build-Challenge" transform="translate(-665.000000, -2181.000000)" stroke="#5B6A72" stroke-width="2">
            <g id="exchanges" transform="translate(665.000000, 2182.000000)">
                <path d="M0,45.9375 L70,45.9375" id="Stroke-1"></path>
                <path d="M70,41.5625 C51.40625,41.5625 50.3125,0 35,0 C19.6875,0 18.59375,41.5625 0,41.5625" id="Stroke-3"></path>
                <path d="M20.78125,16.40625 L20.78125,45.9375" id="Stroke-5"></path>
                <path d="M35,0 L35,45.9375" id="Stroke-7"></path>
                <path d="M16.40625,26.25 L16.40625,45.9375" id="Stroke-9"></path>
                <path d="M12.03125,33.90625 L12.03125,45.9375" id="Stroke-11"></path>
                <path d="M7.65625,39.375 L7.65625,45.9375" id="Stroke-13"></path>
                <path d="M3.28125,41.5625 L3.28125,45.9375" id="Stroke-15"></path>
                <path d="M49.21875,16.40625 L49.21875,45.9375" id="Stroke-17"></path>
                <path d="M53.59375,26.25 L53.59375,45.9375" id="Stroke-19"></path>
                <path d="M57.96875,33.90625 L57.96875,45.9375" id="Stroke-21"></path>
                <path d="M62.34375,39.375 L62.34375,45.9375" id="Stroke-23"></path>
                <path d="M66.71875,41.5625 L66.71875,45.9375" id="Stroke-25"></path>
                <path d="M20.78125,16.40625 L8.75,16.40625" id="Stroke-27"></path>
                <path d="M6.5625,16.40625 L4.375,16.40625" id="Stroke-29"></path>
                <path d="M2.1875,16.40625 L0,16.40625" id="Stroke-31"></path>
                <path d="M35,0 L61.25,0" id="Stroke-33"></path>
                <path d="M63.4375,0 L65.625,0" id="Stroke-35"></path>
                <path d="M67.8125,0 L70,0" id="Stroke-37"></path>
                <path d="M1.09375,50.3125 L3.28125,50.3125" id="Stroke-39"></path>
                <path d="M5.46875,50.3125 L7.65625,50.3125" id="Stroke-41"></path>
                <path d="M9.84375,50.3125 L12.03125,50.3125" id="Stroke-43"></path>
                <path d="M14.21875,50.3125 L16.40625,50.3125" id="Stroke-45"></path>
                <path d="M18.59375,50.3125 L20.78125,50.3125" id="Stroke-47"></path>
                <path d="M22.96875,50.3125 L25.15625,50.3125" id="Stroke-49"></path>
                <path d="M27.34375,50.3125 L29.53125,50.3125" id="Stroke-51"></path>
                <path d="M31.71875,50.3125 L33.90625,50.3125" id="Stroke-53"></path>
                <path d="M36.09375,50.3125 L38.28125,50.3125" id="Stroke-55"></path>
                <path d="M40.46875,50.3125 L42.65625,50.3125" id="Stroke-57"></path>
                <path d="M44.84375,50.3125 L47.03125,50.3125" id="Stroke-59"></path>
                <path d="M49.21875,50.3125 L51.40625,50.3125" id="Stroke-61"></path>
                <path d="M9.84375,54.6875 L12.03125,54.6875" id="Stroke-63"></path>
                <path d="M14.21875,54.6875 L16.40625,54.6875" id="Stroke-65"></path>
                <path d="M18.59375,54.6875 L20.78125,54.6875" id="Stroke-67"></path>
                <path d="M22.96875,54.6875 L25.15625,54.6875" id="Stroke-69"></path>
                <path d="M27.34375,54.6875 L29.53125,54.6875" id="Stroke-71"></path>
                <path d="M31.71875,54.6875 L33.90625,54.6875" id="Stroke-73"></path>
                <path d="M36.09375,54.6875 L38.28125,54.6875" id="Stroke-75"></path>
                <path d="M40.46875,54.6875 L42.65625,54.6875" id="Stroke-77"></path>
                <path d="M44.84375,54.6875 L47.03125,54.6875" id="Stroke-79"></path>
                <path d="M49.21875,54.6875 L51.40625,54.6875" id="Stroke-81"></path>
                <path d="M18.59375,59.0625 L20.78125,59.0625" id="Stroke-83"></path>
                <path d="M22.96875,59.0625 L25.15625,59.0625" id="Stroke-85"></path>
                <path d="M27.34375,59.0625 L29.53125,59.0625" id="Stroke-87"></path>
                <path d="M31.71875,59.0625 L33.90625,59.0625" id="Stroke-89"></path>
                <path d="M36.09375,59.0625 L38.28125,59.0625" id="Stroke-91"></path>
                <path d="M40.46875,59.0625 L42.65625,59.0625" id="Stroke-93"></path>
                <path d="M44.84375,59.0625 L47.03125,59.0625" id="Stroke-95"></path>
                <path d="M49.21875,59.0625 L51.40625,59.0625" id="Stroke-97"></path>
                <path d="M27.34375,63.4375 L29.53125,63.4375" id="Stroke-99"></path>
                <path d="M31.71875,63.4375 L33.90625,63.4375" id="Stroke-101"></path>
                <path d="M36.09375,63.4375 L38.28125,63.4375" id="Stroke-103"></path>
                <path d="M40.46875,63.4375 L42.65625,63.4375" id="Stroke-105"></path>
                <path d="M53.59375,50.3125 L55.78125,50.3125" id="Stroke-107"></path>
                <path d="M57.96875,50.3125 L60.15625,50.3125" id="Stroke-109"></path>
                <path d="M62.34375,50.3125 L64.53125,50.3125" id="Stroke-111"></path>
                <path d="M66.71875,50.3125 L68.90625,50.3125" id="Stroke-113"></path>
                <path d="M53.59375,54.6875 L55.78125,54.6875" id="Stroke-115"></path>
                <path d="M57.96875,54.6875 L60.15625,54.6875" id="Stroke-117"></path>
            </g>
        </g>
    </g>
</svg>