<?xml version="1.0" encoding="UTF-8" standalone="no"?>
<svg width="78px" height="78px" viewBox="0 0 78 78" version="1.1" xmlns="http://www.w3.org/2000/svg" xmlns:xlink="http://www.w3.org/1999/xlink">
    <!-- Generator: Sketch 39.1 (31720) - http://www.bohemiancoding.com/sketch -->
    <title>internet</title>
    <desc>Created with Sketch.</desc>
    <defs></defs>
    <g id="Page-1" stroke="none" stroke-width="1" fill="none" fill-rule="evenodd">
        <g id="STELLAR-Build-Challenge" transform="translate(-662.000000, -855.000000)" stroke="#5B6A72" stroke-width="1.7">
            <g id="internet" transform="translate(650.000000, 844.000000)">
                <polyline id="Line" stroke-linecap="square" stroke-dasharray="2,6" points="46.5695336 84.1998532 72.3228818 76.956724 85.1995559 51.7399039 75.2737863 22.7673871 39.0581403 15.792522 16.7922247 36.1690623 20.2796573 72.364798"></polyline>
                <polyline id="Path-353" stroke-linecap="square" stroke-dasharray="2,6" points="36.3754999 61.3659722 51.9348145 33.7347757 63.4502581 53.3379612 75.5221401 21.951068"></polyline>
                <path d="M19.4748651,73.1276739 L47.3743257,83.8582357" id="Line" stroke-linecap="square" stroke-dasharray="2,6"></path>
                <path d="M51.6665504,33.4245954 L38.7898763,16.2556966" id="Line" stroke-linecap="square" stroke-dasharray="2,6"></path>
                <path d="M52.7396066,34.4976516 L16.2556966,36.643764" id="Line" stroke-linecap="square" stroke-dasharray="2,6"></path>
                <path d="M36.643764,61.324056 L72.0546177,77.4198986" id="Line" stroke-linecap="square" stroke-dasharray="2,6"></path>
                <path d="M36.643764,60.2509998 L19.4748651,73.1276739" id="Line" stroke-linecap="square" stroke-dasharray="2,6"></path>
                <path d="M36.643764,61.324056 L16.2556966,36.643764" id="Line" stroke-linecap="square" stroke-dasharray="2,6"></path>
                <path d="M36.643764,61.324056 L63.4701683,53.8126628" id="Line" stroke-linecap="square" stroke-dasharray="2,6"></path>
                <path d="M63.4701683,53.8126628 L84.9312919,51.6665504" id="Line" stroke-linecap="square" stroke-dasharray="2,6"></path>
                <path d="M63.4701683,53.8126628 L72.0546177,77.4198986" id="Line" stroke-linecap="square" stroke-dasharray="2,6"></path>
                <path d="M51.6665504,34.4976516 L75.2737863,22.6940337" id="Line" stroke-linecap="square" stroke-dasharray="2,6"></path>
                <ellipse id="Oval-70" fill="#DCF2F9" cx="20.5479213" cy="73.1276739" rx="3.75569661" ry="3.75569661"></ellipse>
                <ellipse id="Oval-70" fill="#F7A696" cx="36.643764" cy="61.324056" rx="3.75569661" ry="3.75569661"></ellipse>
                <ellipse id="Oval-70" fill="#FDE699" cx="63.4701683" cy="53.8126628" rx="3.75569661" ry="3.75569661"></ellipse>
                <ellipse id="Oval-70" fill="#DCF2F9" cx="51.6665504" cy="34.4976516" rx="3.75569661" ry="3.75569661"></ellipse>
                <ellipse id="Oval-70" fill="#FDE699" cx="38.7898763" cy="16.2556966" rx="3.75569661" ry="3.75569661"></ellipse>
                <ellipse id="Oval-70" fill="#D0C8FF" cx="17.0890299" cy="36.643764" rx="3.75569661" ry="3.75569661"></ellipse>
                <ellipse id="Oval-70" fill="#D0C8FF" cx="75.2737863" cy="22.6940337" rx="3.75569661" ry="3.75569661"></ellipse>
                <ellipse id="Oval-70" fill="#DCF2F9" cx="84.9312919" cy="51.6665504" rx="3.75569661" ry="3.75569661"></ellipse>
                <ellipse id="Oval-70" fill="#F7A696" cx="72.0546177" cy="77.4198986" rx="3.75569661" ry="3.75569661"></ellipse>
                <ellipse id="Oval-70" fill="#FDE699" cx="46.3012695" cy="83.8582357" rx="3.75569661" ry="3.75569661"></ellipse>
            </g>
        </g>
    </g>
</svg>