<?xml version="1.0" encoding="UTF-8" standalone="no"?>
<svg width="72px" height="62px" viewBox="0 0 72 62" version="1.1" xmlns="http://www.w3.org/2000/svg" xmlns:xlink="http://www.w3.org/1999/xlink">
    <!-- Generator: Sketch 39.1 (31720) - http://www.bohemiancoding.com/sketch -->
    <title>nextsteps@1x</title>
    <desc>Created with Sketch.</desc>
    <defs></defs>
    <g id="Page-1" stroke="none" stroke-width="1" fill="none" fill-rule="evenodd">
        <g id="STELLAR-Build-Challenge" transform="translate(-664.000000, -5774.000000)" stroke-width="2">
            <g id="nextsteps" transform="translate(665.000000, 5775.000000)">
                <rect id="Rectangle-273" stroke="#5B6A72" fill="#FFFFFF" x="0" y="0" width="70" height="60" rx="2"></rect>
                <path d="M9.50038081,4.25 L21.994865,4.25" id="Line-3" stroke="#EF7E48" stroke-linecap="square"></path>
                <path d="M16.5003808,10.1428571 L28.994865,10.1428571" id="Line-15" stroke="#5B6A72" stroke-linecap="square"></path>
                <path d="M23.8626362,6.39285714 L30.0039166,6.39285714" id="Line-59" stroke="#50E3C2" stroke-linecap="square"></path>
                <path d="M9.50038081,36.3928571 L21.994865,36.3928571" id="Line-60" stroke="#50E3C2" stroke-linecap="square"></path>
                <path d="M24.4010977,39.0714286 L30.5423781,39.0714286" id="Line-62" stroke="#5B6A72" stroke-linecap="square"></path>
                <path d="M3.93955925,4.53571429 L6.01876717,4.53571429" id="Line-63" stroke="#5B6A72" stroke-linecap="square"></path>
                <path d="M3.93955925,7.75 L6.01876717,7.75" id="Line-64" stroke="#5B6A72" stroke-linecap="square"></path>
                <path d="M3.93955925,10.9642857 L6.01876717,10.9642857" id="Line-65" stroke="#5B6A72" stroke-linecap="square"></path>
                <path d="M3.93955925,13.6428571 L6.01876717,13.6428571" id="Line-66" stroke="#5B6A72" stroke-linecap="square"></path>
                <path d="M3.93955925,16.8571429 L6.01876717,16.8571429" id="Line-67" stroke="#5B6A72" stroke-linecap="square"></path>
                <path d="M3.93955925,19.5357143 L6.01876717,19.5357143" id="Line-68" stroke="#5B6A72" stroke-linecap="square"></path>
                <path d="M3.93955925,22.75 L6.01876717,22.75" id="Line-69" stroke="#5B6A72" stroke-linecap="square"></path>
                <path d="M3.93955925,25.9642857 L6.01876717,25.9642857" id="Line-70" stroke="#5B6A72" stroke-linecap="square"></path>
                <path d="M3.93955925,28.6428571 L6.01876717,28.6428571" id="Line-71" stroke="#5B6A72" stroke-linecap="square"></path>
                <path d="M3.93955925,31.8571429 L6.01876717,31.8571429" id="Line-72" stroke="#5B6A72" stroke-linecap="square"></path>
                <path d="M3.93955925,34.5357143 L6.01876717,34.5357143" id="Line-73" stroke="#5B6A72" stroke-linecap="square"></path>
                <path d="M3.93955925,37.75 L6.01876717,37.75" id="Line-74" stroke="#5B6A72" stroke-linecap="square"></path>
                <path d="M3.93955925,40.9642857 L6.01876717,40.9642857" id="Line-75" stroke="#5B6A72" stroke-linecap="square"></path>
                <path d="M3.93955925,43.6428571 L6.01876717,43.6428571" id="Line-76" stroke="#5B6A72" stroke-linecap="square"></path>
                <path d="M3.93955925,46.8571429 L6.01876717,46.8571429" id="Line-77" stroke="#5B6A72" stroke-linecap="square"></path>
                <path d="M3.93955925,49.5357143 L6.01876717,49.5357143" id="Line-78" stroke="#5B6A72" stroke-linecap="square"></path>
                <path d="M3.93955925,52.75 L6.01876717,52.75" id="Line-78" stroke="#5B6A72" stroke-linecap="square"></path>
                <path d="M3.93955925,55.9642857 L6.01876717,55.9642857" id="Line-79" stroke="#5B6A72" stroke-linecap="square"></path>
                <path d="M32.4780208,6.39285714 L38.6193012,6.39285714" id="Line-80" stroke="#EF7E48" stroke-linecap="square"></path>
                <path d="M30.877936,10.1428571 L53.2170866,10.1428571" id="Line-81" stroke="#42AAE6" stroke-linecap="square"></path>
                <path d="M16.5003808,13.3571429 L28.994865,13.3571429" id="Line-82" stroke="#42AAE6" stroke-linecap="square"></path>
                <path d="M30.877936,13.3571429 L45.5933374,13.3571429" id="Line-83" stroke="#5B6A72" stroke-linecap="square"></path>
                <path d="M17.5773039,26.2142857 L43.220892,26.2142857" id="Line-84" stroke="#5B6A72" stroke-linecap="square"></path>
                <path d="M33.1926885,39.0714286 L58.8362767,39.0714286" id="Line-85" stroke="#5B6A72" stroke-linecap="square"></path>
                <path d="M9.50038081,30.5 L21.994865,30.5" id="Line-87" stroke="#42AAE6" stroke-linecap="square"></path>
                <path d="M19.0164823,33.7142857 L25.1577628,33.7142857" id="Line-88" stroke="#5B6A72" stroke-linecap="square"></path>
                <path d="M9.50038081,43.8928571 L21.994865,43.8928571" id="Line-89" stroke="#5B6A72" stroke-linecap="square"></path>
                <path d="M17.0388423,48.7142857 L49.6131183,48.7142857" id="Line-90" stroke="#42AAE6" stroke-linecap="square"></path>
                <path d="M23.8626362,45.5 L30.0039166,45.5" id="Line-91" stroke="#5B6A72" stroke-linecap="square"></path>
                <path d="M17.0388423,52.4642857 L29.5333265,52.4642857" id="Line-92" stroke="#5B6A72" stroke-linecap="square"></path>
                <path d="M31.9395592,52.4642857 L38.0808397,52.4642857" id="Line-93" stroke="#50E3C2" stroke-linecap="square"></path>
                <path d="M9.50038081,55.6785714 L21.994865,55.6785714" id="Line-94" stroke="#EF7E48" stroke-linecap="square"></path>
                <path d="M24.4010977,55.6785714 L30.5423781,55.6785714" id="Line-96" stroke="#50E3C2" stroke-linecap="square"></path>
                <path d="M9.50038081,18.7142857 L21.994865,18.7142857" id="Line-97" stroke="#5B6A72" stroke-linecap="square"></path>
                <path d="M23.8626362,18.7142857 L48.9988949,18.7142857" id="Line-98" stroke="#50E3C2" stroke-linecap="square"></path>
                <path d="M9.31868234,22.4642857 L15.2619352,22.4642857" id="Line-99" stroke="#5B6A72" stroke-linecap="square"></path>
                <path d="M17.3117894,22.4642857 L43.2284429,22.4642857" id="Line-100" stroke="#42AAE6" stroke-linecap="square"></path>
            </g>
        </g>
    </g>
</svg>