<svg width="98" height="98" viewBox="0 0 98 98" xmlns="http://www.w3.org/2000/svg"><title>reimagine copy + Group</title><g fill="none" fill-rule="evenodd"><circle cx="47.17" cy="47.17" r="47.17" transform="translate(1.943 1.887)" stroke="#5B6A72" stroke-width="2" fill="#FFF"/><g transform="translate(30 19)"><path d="M5.46 0C2.455 0 0 2.462 0 5.465v49.07C0 57.54 2.465 60 5.46 60h17.402c3.005 0 5.465-2.462 5.465-5.465V5.465c0-3.003-2.46-5.465-5.465-5.465H5.46zm8.7 58.335a2.5 2.5 0 0 1 0-5 2.5 2.5 0 0 1 0 5z" stroke="#5B6A72" stroke-width="2" fill="#FFF"/><path d="M27.674 51.68h-27V5.322h27V51.68z" fill="#DCF2F9"/><path d="M.25 51.75h27.76M.25 5.25h27.76M8.75 2.75h11.32" stroke="#5B6A72" stroke-width="2" stroke-linecap="square"/><rect stroke="#5B6A72" stroke-width="2" fill="#FFF" x="17" y="18" width="33.5" height="22.5" rx="2"/><path d="M20.75 33.5h14.534m7.466 0h4.04M17.75 22h31.785M17.75 25h31.785" stroke="#5B6A72" stroke-width="2" stroke-linecap="square"/><path fill="#08B5E5" d="M17.5 22.5H50v2H17.5z"/><path d="M20.75 36.5h14.534" stroke="#5B6A72" stroke-width="2" stroke-linecap="square"/></g></g></svg>