<svg width="145" height="68" viewBox="0 0 145 68" xmlns="http://www.w3.org/2000/svg" xmlns:xlink="http://www.w3.org/1999/xlink"><title>Group 7</title><defs><path id="a" d="M0 0h97.25v37.212H0z"/><mask id="c" x="-2" y="-2" width="101.251" height="41.212"><path fill="#fff" d="M-2-2H99.25v41.212H-2z"/><use xlink:href="#a"/></mask><path id="b" d="M0 0h97.25v37.212H0z"/><mask id="e" x="-2" y="-2" width="101.251" height="41.212"><path fill="#fff" d="M-2-2H99.25v41.212H-2z"/><use xlink:href="#b"/></mask></defs><g fill="none" fill-rule="evenodd"><g transform="translate(45.06 2.332)"><mask id="d" fill="#fff"><use xlink:href="#a"/></mask><use fill="#FFF" xlink:href="#a"/><use stroke="#5B6A72" mask="url(#c)" stroke-width="4" xlink:href="#a"/><ellipse stroke="#5B6A72" stroke-width="2" mask="url(#d)" cx="-1.452" cy="-1.075" rx="10.163" ry="10.391"/><ellipse stroke="#5B6A72" stroke-width="2" mask="url(#d)" cx="-1.452" cy="37.622" rx="10.163" ry="10.391"/><ellipse stroke="#5B6A72" stroke-width="2" mask="url(#d)" cx="98.722" cy="-1.075" rx="10.163" ry="10.391"/><ellipse stroke="#5B6A72" stroke-width="2" mask="url(#d)" cx="98.722" cy="37.622" rx="10.163" ry="10.391"/></g><path d="M94.034 35.626c8.06 0 14.595-6.576 14.595-14.688 0-8.113-6.536-14.69-14.596-14.69s-14.596 6.577-14.596 14.69c0 8.112 6.535 14.688 14.596 14.688z" stroke="#5B6A72" stroke-width="2" fill="#F7A696"/><text fill="#5B6A72" font-family="Helvetica-Bold, Helvetica" font-size="7.639" font-weight="bold" transform="translate(44 2)"><tspan x="93.494" y="8.471">1</tspan></text><text fill="#5B6A72" font-family="Helvetica-Bold, Helvetica" font-size="7.639" font-weight="bold" transform="translate(44 2)"><tspan x="93.494" y="37.852">1</tspan></text><text fill="#5B6A72" font-family="Helvetica-Bold, Helvetica" font-size="7.639" font-weight="bold" transform="translate(44 2)"><tspan x="2.032" y="8.471">1</tspan></text><text fill="#5B6A72" font-family="Helvetica-Bold, Helvetica" font-size="7.639" font-weight="bold" transform="translate(44 2)"><tspan x="2.032" y="37.852">1</tspan></text><g transform="translate(34 28)"><g transform="translate(1.06 .332)"><mask id="f" fill="#fff"><use xlink:href="#b"/></mask><use fill="#FFF" xlink:href="#b"/><use stroke="#5B6A72" mask="url(#e)" stroke-width="4" xlink:href="#b"/><ellipse stroke="#5B6A72" stroke-width="2" mask="url(#f)" cx="-1.452" cy="-1.075" rx="10.163" ry="10.391"/><ellipse stroke="#5B6A72" stroke-width="2" mask="url(#f)" cx="-1.452" cy="37.622" rx="10.163" ry="10.391"/><ellipse stroke="#5B6A72" stroke-width="2" mask="url(#f)" cx="98.722" cy="-1.075" rx="10.163" ry="10.391"/><ellipse stroke="#5B6A72" stroke-width="2" mask="url(#f)" cx="98.722" cy="37.622" rx="10.163" ry="10.391"/></g><ellipse stroke="#5B6A72" stroke-width="2" fill="#DCF2F9" cx="50.034" cy="18.938" rx="14.595" ry="14.689"/><text fill="#5B6A72" font-family="Helvetica-Bold, Helvetica" font-size="7.639" font-weight="bold"><tspan x="93.494" y="8.471">1</tspan></text><text fill="#5B6A72" font-family="Helvetica-Bold, Helvetica" font-size="7.639" font-weight="bold"><tspan x="93.494" y="37.852">1</tspan></text><text fill="#5B6A72" font-family="Helvetica-Bold, Helvetica" font-size="7.639" font-weight="bold"><tspan x="2.032" y="8.471">1</tspan></text><text fill="#5B6A72" font-family="Helvetica-Bold, Helvetica" font-size="7.639" font-weight="bold"><tspan x="2.032" y="37.852">1</tspan></text></g><g stroke="#5B6A72" stroke-width="2" stroke-linecap="square"><path d="M11.488 27.307h12.195M6.24 43.31h15.01M1.373 11.304h15.01"/></g></g></svg>