<svg width="82" height="82" viewBox="0 0 82 82" xmlns="http://www.w3.org/2000/svg"><title>services</title><g stroke-width="2" fill="none" fill-rule="evenodd"><path d="M9.57 8.143a1.427 1.427 0 0 1-2.857 0 1.428 1.428 0 0 1 2.858 0z" stroke="#EB655F" stroke-linecap="round" stroke-linejoin="round"/><path d="M18.143 8.143c0 .79-.64 1.428-1.43 1.428a1.428 1.428 0 1 1 1.43-1.43v.003z" stroke="#F9A21A" stroke-linecap="round" stroke-linejoin="round"/><path d="M26.714 8.143a1.427 1.427 0 0 1-2.857 0 1.428 1.428 0 0 1 2.857 0z" stroke="#67BC45" stroke-linecap="round" stroke-linejoin="round"/><path d="M78.143 40.286V3.856A2.857 2.857 0 0 0 75.286 1H3.856A2.857 2.857 0 0 0 1 3.857V74.57c0 1.58 1.28 2.86 2.857 2.86H41M1 15.286h77.143" stroke="#5B6A72" stroke-linecap="round" stroke-linejoin="round"/><path d="M63.857 67.43a4.286 4.286 0 1 1 0-8.574 4.286 4.286 0 0 1 0 8.573zM81 65.51v-4.73l-4.066-1.357a13.612 13.612 0 0 0-1.2-2.896l1.917-3.833-3.344-3.344-3.833 1.916a13.474 13.474 0 0 0-2.896-1.2L66.22 46h-4.727l-1.356 4.067c-1.018.29-1.99.693-2.896 1.2l-3.83-1.917-3.347 3.344 1.917 3.833c-.506.907-.91 1.88-1.2 2.896l-4.066 1.357v4.73l4.066 1.353c.29 1.02.694 1.99 1.2 2.897l-1.917 3.833 3.346 3.344 3.83-1.917c.907.506 1.88.91 2.897 1.2l1.356 4.066h4.728l1.357-4.066a13.55 13.55 0 0 0 2.896-1.2l3.833 1.917 3.345-3.344-1.916-3.833c.506-.906.91-1.877 1.2-2.897L81 65.51z" stroke="#5B6A72" fill="#DCF2F9"/></g></svg>