<svg width="102" height="102" viewBox="0 0 102 102" xmlns="http://www.w3.org/2000/svg"><title>reimagine@2x</title><g fill="none" fill-rule="evenodd"><g transform="translate(1.943 2.887)"><circle stroke="#5B6A72" stroke-width="2" fill="#FFF" cx="47.17" cy="47.17" r="47.17"/><g fill="#DCF2F9"><path d="M60.865 3.688l3.907 5.493 3.158.588-1.925-2.8 4.124 2.8-4.136 3.836 2.79 2.26-3.29.95 3.862 4.603 4.057-5.24 4.133 4.11.25-1.122-3.72-3.95 6.138 4.955-2.16-4.5-.085-1.254 3.124 2.895-.755 1.46 2.73 1.386 2.037 3.594-7.35-.988-3.46-2.287-7.872 8.384L68.81 40.78l11.813 2.607 4.19 9.513L80.99 73.71l5.04-2.362 3.726-5.368a46.316 46.316 0 0 0 3.6-17.964c0-20.806-13.66-38.412-32.49-44.328M25.396 40.188l-3.525 2.857-4.426-2.373-1.99-7.068-4.944.128 3.76-7.477 3.975-.193 2.703 3.21.86-3.677 16.737-11.258-.425-5.61-8.544 3.212.865-4.596 9.126-1.43-3.704-3.008c-9.646 2.37-18.102 7.756-24.32 15.11L9.7 21.557l-2.3 12.327 12.417 12.49-2.883 5.943L26.67 63.23l1.53 15.62 7.895 8-.453-9.302 13.73-13.173 2.67-14.77-26.646-9.417zM40.546 2.01l-1.693.78 4.59 1.446 2.962 4.105 2.74-2.45 2.897-1.377-3.037-2.9c-.682-.03-1.365-.052-2.054-.052-2.173 0-4.31.163-6.404.45"/></g></g><g stroke="#5B6A72" stroke-width="2" transform="translate(1 1)"><path d="M44.786 95.664l32.978-10.758L94.81 51.32 81.067 13.68 34.368 5.19 5.778 31.055l4.54 47.108" stroke-linecap="square" stroke-dasharray="2,6"/><path d="M31.267 63.85l20.25-35.963L66.504 53.4l15.712-40.85M10.803 78.663l34.48 15.677M51.168 27.484L34.408 5.138M52.564 28.88L5.08 31.673M31.616 63.795l46.087 20.95M31.616 63.795L44.34 95.283M31.616 62.398L9.27 79.158M31.616 63.795L5.08 31.673M31.616 63.795L66.53 54.02M66.53 54.02l27.932-2.794M66.53 54.02l11.173 30.724M51.168 28.88l30.725-15.362" stroke-linecap="square" stroke-dasharray="2,6"/><ellipse fill="#DCF2F9" cx="10.667" cy="78.214" rx="4.888" ry="4.888"/><ellipse fill="#F7A696" cx="31.616" cy="63.795" rx="4.888" ry="4.888"/><ellipse fill="#FDE699" cx="66.53" cy="54.019" rx="4.888" ry="4.888"/><ellipse fill="#DCF2F9" cx="51.168" cy="28.88" rx="4.888" ry="4.888"/><ellipse fill="#FDE699" cx="34.409" cy="5.138" rx="4.888" ry="4.888"/><ellipse fill="#D0C8FF" cx="5.222" cy="31.673" rx="4.888" ry="4.888"/><ellipse fill="#D0C8FF" cx="80.949" cy="14.461" rx="4.888" ry="4.888"/><ellipse fill="#DCF2F9" cx="94.462" cy="51.226" rx="4.888" ry="4.888"/><ellipse fill="#F7A696" cx="77.703" cy="84.744" rx="4.888" ry="4.888"/><ellipse fill="#FDE699" cx="44.185" cy="95.01" rx="4.888" ry="4.888"/></g></g></svg>