<svg width="80" height="73" viewBox="0 0 80 73" xmlns="http://www.w3.org/2000/svg"><title>Group 14</title><g stroke="#5B6A72" stroke-width="2" fill="none" fill-rule="evenodd"><path d="M16.218 43.665h11.228l13.724 4.99h11.228a3.743 3.743 0 0 1 0 7.485H38.674a3.743 3.743 0 0 0-3.742 3.743"/><path d="M54.893 54.893l19.96-6.238a3.743 3.743 0 0 1 3.743 3.743c0 1.243-1.247 2.495-1.247 2.495L46.16 71.11h-2.495l-21.21-7.484h-4.99"/><path d="M62.378 34.932a6.237 6.237 0 0 1-6.238 6.238 6.238 6.238 0 1 1 6.238-6.238z" fill="#DCF2F9"/><path d="M42.417 24.95a6.237 6.237 0 0 1-6.238 6.24 6.238 6.238 0 1 1 6.238-6.238z" fill="#F7A696"/><path d="M37 9.98V0M32 14.97V4.99M53 17.466v-9.98M56 24.95v-9.98M0 41.17h14.97c.69 0 1.248.557 1.248 1.247v22.456c0 .69-.557 1.248-1.247 1.248H0"/></g></svg>