<svg width="80" height="76" viewBox="0 0 80 76" xmlns="http://www.w3.org/2000/svg"><title>remittances</title><g stroke-width="2" stroke="#5B6A72" fill="none" fill-rule="evenodd"><path d="M73.563 41.9h4.988v32.416H11.223V69.33"/><path d="M68.576 36.91h4.987v32.42H6.233V64.34"/><path fill="#DCF2F9" d="M1.247 64.342h67.33V31.924H1.246z"/><path fill="#FFF" d="M59.848 59.354H9.975l-3.74-3.74V40.652l3.74-3.74h49.873l3.74 3.74v14.962z"/><path d="M22.443 48.102H19.95M17.456 48.102h-2.494M54.86 48.102h-2.493M49.873 48.102H47.38M41.146 48.133a6.233 6.233 0 0 1-6.235 6.234 6.233 6.233 0 0 1-6.233-6.234A6.233 6.233 0 0 1 34.91 41.9a6.233 6.233 0 0 1 6.236 6.233zM33.665 21.95l-4.988 4.987-4.987-4.988M56.108 21.95l-4.988 4.987-4.987-4.988M44.886 6.987L39.9 2l-4.99 4.987"/><path d="M28.677 26.937V13.222H0M51.12 26.937V13.222h28.677M39.322 28.184V2"/></g></svg>