<?xml version="1.0" encoding="UTF-8" standalone="no"?>
<svg width="140px" height="30px" viewBox="0 0 140 30" version="1.1" xmlns="http://www.w3.org/2000/svg" xmlns:xlink="http://www.w3.org/1999/xlink" xmlns:sketch="http://www.bohemiancoding.com/sketch/ns">
    <!-- Generator: bin/sketchtool 1.4 (305) - http://www.bohemiancoding.com/sketch -->
    <title>logo</title>
    <desc>Created with bin/sketchtool.</desc>
    <defs></defs>
    <g id="Welcome" stroke="none" stroke-width="1" fill="none" fill-rule="evenodd" sketch:type="MSPage">
        <g id="main" sketch:type="MSArtboardGroup" transform="translate(-60.000000, -755.000000)" fill="#65B1BB">
            <g id="Menu_full" sketch:type="MSLayerGroup" transform="translate(0.000000, 740.000000)">
                <path d="M200,44.0260789 L191.230258,44.0260789 L188.082546,35.7056312 L185.946082,35.7056312 L185.946082,44.0260789 L177.701634,44.0260789 L177.701634,17.7700208 L190.518682,17.7700208 C194.977892,17.7700208 199.437681,17.9921532 199.437681,26.8301408 C199.437681,30.8614124 198.088579,33.1167782 196.177158,34.3739903 L200,44.0260789 L200,44.0260789 Z M189.319416,24.981537 L185.946082,24.981537 L185.946082,28.6793215 L189.319416,28.6793215 C190.368268,28.6793215 191.193233,28.6054697 191.193233,26.8301408 C191.193233,25.0553889 190.368268,24.981537 189.319416,24.981537 L189.319416,24.981537 Z M169.495946,44.0260789 L161.251498,44.0260789 L161.251498,25.5360028 L155.292771,25.5360028 L155.292771,17.7700208 L175.454673,17.7700208 L175.454673,25.5360028 L169.495946,25.5360028 L169.495946,44.0260789 L169.495946,44.0260789 Z M153.083992,35.7056312 C153.083992,40.9196861 150.460996,44.4697669 143.077959,44.4697669 C138.468334,44.4697669 133.783502,43.1012001 132.509608,42.287676 L135.357648,35.372721 C137.306672,36.223171 141.578443,36.666859 142.89052,36.666859 C144.202018,36.666859 144.351854,36.223171 144.351854,35.816409 C144.351854,35.1505885 143.976975,34.8182553 143.415235,34.6330487 C140.979099,33.8195246 133.258787,35.2988691 133.258787,26.0535426 C133.258787,20.8764136 135.694923,17.3263328 143.114984,17.3263328 C147.237498,17.3263328 151.322408,18.4358412 152.709113,19.3232172 L150.235952,26.2387491 C148.324532,25.3882991 144.427061,24.8332564 142.665477,25.1292407 C141.84109,25.2775213 141.616046,25.5729287 141.616046,26.0166167 C141.616046,26.6085853 142.028529,26.8301408 142.553244,26.9784214 C145.026405,27.606739 153.083992,26.5716594 153.083992,35.7056312 L153.083992,35.7056312 Z M129.513467,36.7782137 C129.513467,44.5436187 123.217465,44.0260789 120.594468,44.0260789 L107.77742,44.0260789 L107.77742,17.7700208 L119.844709,17.7700208 C122.468285,17.7700208 128.764287,17.252481 128.764287,25.018463 C128.764287,27.7919455 127.565021,29.6036234 126.02848,30.8239095 L126.02848,30.9352643 C128.464037,31.7487884 129.513467,34.0047311 129.513467,36.7782137 L129.513467,36.7782137 Z M118.645443,25.018463 L116.021868,25.018463 L116.021868,27.2374798 L118.645443,27.2374798 C119.694874,27.2374798 120.51926,27.3113316 120.51926,26.1273944 C120.51926,24.9446111 119.694874,25.018463 118.645443,25.018463 L118.645443,25.018463 Z M118.645443,34.5961228 L116.021868,34.5961228 L116.021868,36.8151396 L118.645443,36.8151396 C119.694874,36.8151396 120.51926,36.8889915 120.51926,35.7056312 C120.51926,34.5222709 119.694874,34.5961228 118.645443,34.5961228 L118.645443,34.5961228 Z M104.635493,33.6360489 C104.635493,40.7489038 98.9828015,45 92.0093554,45 C85.0364879,45 79.3837966,40.7489038 79.3837966,33.6360489 C79.3837966,26.5237711 88.1165134,15 96.9198093,15 C97.3675816,15 92.0654716,19.0912763 89.9052885,23.7877914 C88.1894065,27.517886 88.0303143,33.244865 88.1518029,33.7877914 C89.26487,33.3527579 90.3038868,32.7284791 91.2486054,31.9703439 C91.6211704,31.6714747 91.978694,31.3524117 92.3205977,31.0148858 C92.5572112,30.7812139 92.786304,30.5394646 93.0078761,30.2902146 C95.6204597,27.3459497 97.114191,23.3804523 96.809891,20.2059774 C101.40216,22.1330487 104.635493,28.2569813 104.635493,33.6360489 L104.635493,33.6360489 Z M60,17.7700208 L68.2444483,17.7700208 L68.2444483,36.2600969 L76.4142679,36.2600969 L76.4142679,44.0260789 L60,44.0260789 L60,17.7700208 L60,17.7700208 Z" id="logo" sketch:type="MSShapeGroup"></path>
            </g>
        </g>
    </g>
</svg>