<svg width="40" height="82" viewBox="0 0 40 82" xmlns="http://www.w3.org/2000/svg"><title>mobile</title><g fill="none" fill-rule="evenodd"><path d="M8.28 1C4.273 1 1 4.282 1 8.287v65.426C1 77.72 4.287 81 8.28 81h23.203c4.007 0 7.287-3.282 7.287-7.287V8.287C38.77 4.282 35.488 1 31.483 1H8.28zm11.6 77.78a3.335 3.335 0 0 1 0-6.667 3.335 3.335 0 0 1 0 6.667z" stroke="#5B6A72" stroke-width="2"/><path fill="#DCF2F9" d="M37.898 69.906h-36V8.096h36z"/><path d="M1.333 70h37.014M1.333 8h37.014M12.667 4.667H27.76" stroke="#5B6A72" stroke-width="2" stroke-linecap="square"/></g></svg>