<svg width="56" height="82" viewBox="0 0 56 82" xmlns="http://www.w3.org/2000/svg"><title>Group 8</title><g stroke="#5B6A72" stroke-width="2" fill="none" fill-rule="evenodd"><path d="M54.603 27.667c0 17.777-26.666 52.063-26.666 52.063S1.27 45.444 1.27 27.667C1.27 12.94 13.21 1 27.937 1c14.727 0 26.666 11.94 26.666 26.667z"/><path d="M46.984 27.667c0 10.52-8.528 19.047-19.047 19.047-10.52 0-19.048-8.528-19.048-19.047 0-10.52 8.527-19.048 19.047-19.048 10.52 0 19.047 8.527 19.047 19.047z" fill="#DCF2F9"/><path d="M27.937 27.667c2.54 1.27 5.08 2.274 5.08 5.08a5.08 5.08 0 0 1-10.16 0M27.937 27.667c-2.54-1.27-5.08-2.275-5.08-5.08a5.08 5.08 0 0 1 10.16 0M27 17.508v-3.81M27 37.825v3.81M26.667 65h2.54M26.667 60h2.54M26.667 55h2.54M33.016 79h22.857M0 79h22.857"/></g></svg>