<svg width="79" height="81" viewBox="0 0 79 81" xmlns="http://www.w3.org/2000/svg" xmlns:xlink="http://www.w3.org/1999/xlink"><title>Group</title><defs><path d="M.01 0c.435 18.62 15.74 33.58 34.558 33.58C53.385 33.58 68.69 18.62 69.126 0H.01z" id="a"/><linearGradient x1="50%" y1="0%" x2="50%" y2="100%" id="c"><stop stop-color="#FFF" stop-opacity=".841" offset="0%"/><stop stop-color="#E8E8E8" stop-opacity=".674" offset="100%"/></linearGradient></defs><g fill="none" fill-rule="evenodd"><g transform="translate(4.95 46.926)"><mask id="b" fill="#fff"><use xlink:href="#a"/></mask><use fill="#FFF" xlink:href="#a"/><g fill="#DCF2F9" mask="url(#b)"><path d="M44.444-33.086l2.91 4.067 2.352.436-1.434-2.075 3.072 2.076-3.08 2.84 2.078 1.674-2.45.704 2.876 3.408 3.022-3.88 3.078 3.044.185-.83-2.77-2.926 4.57 3.668-1.607-3.332-.063-.928L59.51-23l-.562 1.082 2.034 1.026L62.5-18.23l-5.475-.732-2.576-1.694-5.865 6.21 1.777 8.828 8.797 1.93 3.12 7.046-2.847 15.407 3.753-1.748 2.775-3.975A34.13 34.13 0 0 0 68.643-.26c0-15.408-10.172-28.446-24.198-32.826M18.76-5.946l-2.612 2.118-3.28-1.76-1.473-5.238-3.66.095 2.784-5.543 2.943-.143 2.002 2.38.637-2.726L28.5-25.107l-.316-4.16-6.33 2.382.642-3.405 6.76-1.06-2.745-2.23c-7.144 1.755-13.407 5.75-18.012 11.2l-1.362 2.625-1.704 9.137L14.63-1.36l-2.136 4.406 7.21 8.09 1.132 11.575 5.848 5.932-.336-6.896 10.17-9.764 1.977-10.948-19.736-6.98zM29.91-34.24l-1.268.567 3.437 1.054 2.217 2.99 2.052-1.785 2.17-1.002-2.276-2.114c-.51-.022-1.022-.038-1.538-.038-1.628 0-3.227.118-4.796.328"/></g><path d="M52.346-.988c0 18.822-7.96 34.074-17.78 34.074-9.816 0-17.776-15.252-17.776-34.074 0-18.815 7.96-34.074 17.775-34.074 9.82 0 17.78 15.26 17.78 34.074zM34.568-35.062v68.148-68.148zM.494-.988h68.148H.494zm34.07-14.814c10.784 0 20.4-2.502 26.67-6.416-6.27-7.83-15.886-12.844-26.67-12.844-10.782 0-20.392 5.015-26.663 12.844 6.272 3.914 15.882 6.416 26.665 6.416zm0 29.63c-10.782 0-20.392 2.51-26.663 6.424 6.272 7.823 15.882 12.834 26.665 12.834s20.4-5.01 26.67-12.834c-6.27-3.914-15.887-6.425-26.67-6.425zm.004 19.258C15.753 33.086.494 17.834.494-.988c0-18.815 15.26-34.074 34.074-34.074 18.82 0 34.074 15.26 34.074 34.074 0 18.822-15.253 34.074-34.074 34.074z" stroke="#5B6A72" stroke-width="2" stroke-linecap="square" fill-opacity=".54" fill="url(#c)" mask="url(#b)"/></g><path d="M38.53 21.247v11.646" stroke="#5B6A72" stroke-width="2" stroke-linecap="round" stroke-linejoin="round" stroke-dasharray="0,4.146"/><path d="M14.827 24.704L28.222 37.23" stroke="#5B6A72" stroke-width="2" stroke-linecap="round" stroke-linejoin="round" stroke-dasharray="0,3.946"/><path d="M51.39 35.06l12.82-12.825" stroke="#5B6A72" stroke-width="2" stroke-linecap="round" stroke-linejoin="round" stroke-dasharray="0,3.899"/><path d="M30.63 28.654l2.228 5.273M47.285 28.654l-2.23 5.273" stroke="#5B6A72" stroke-width="2" stroke-linecap="round" stroke-linejoin="round" stroke-dasharray="0,4.284"/><path d="M55.645 40.497l5.602-2.46" stroke="#5B6A72" stroke-width="2" stroke-linecap="round" stroke-linejoin="round" stroke-dasharray="0,4.191"/><path d="M19.765 39.52l4.54 2.2" stroke="#5B6A72" stroke-width="2" stroke-linecap="round" stroke-linejoin="round" stroke-dasharray="0,4.284"/><path d="M42.977 4.536l-1.402 1.34a.46.46 0 0 0-.135.41l.31 1.915c.062.38-.34.662-.677.48l-1.708-.918a.47.47 0 0 0-.43-.004l-1.727.888a.462.462 0 0 1-.668-.49l.348-1.91a.474.474 0 0 0-.13-.413l-1.377-1.365a.46.46 0 0 1 .262-.784l1.924-.26a.47.47 0 0 0 .35-.253l.877-1.73a.46.46 0 0 1 .827.01l.845 1.746c.064.134.193.23.343.254l1.92.296a.462.462 0 0 1 .25.79z" stroke="#5B6A72" stroke-width="2" fill="#FF919E"/><path d="M8.13 11.94l-.048 2.353a.55.55 0 0 0 .23.464l1.907 1.375a.56.56 0 0 1-.164.99l-2.255.68a.55.55 0 0 0-.37.362l-.72 2.24a.56.56 0 0 1-.992.147l-1.34-1.93a.57.57 0 0 0-.46-.24l-2.354.01a.56.56 0 0 1-.45-.9l1.425-1.872a.56.56 0 0 0 .086-.513l-.736-2.232a.56.56 0 0 1 .717-.704l2.22.774c.173.06.367.033.515-.077L7.24 11.48a.56.56 0 0 1 .89.46z" stroke="#5B6A72" stroke-width="2" fill="#FFF"/><path d="M70.482 11.944l.052 2.35a.56.56 0 0 1-.234.466l-1.908 1.375a.56.56 0 0 0 .167.99l2.252.677c.178.052.316.19.37.365l.718 2.24c.142.44.73.528.994.147l1.34-1.932a.557.557 0 0 1 .463-.24l2.353.007a.558.558 0 0 0 .448-.895l-1.423-1.874a.552.552 0 0 1-.087-.512l.736-2.232a.56.56 0 0 0-.717-.704l-2.22.775a.56.56 0 0 1-.515-.077l-1.898-1.39a.56.56 0 0 0-.892.464zM28.837 13.12l-.81 1.835c-.06.144-.05.31.032.447l1.056 1.705a.48.48 0 0 1-.455.73l-2-.2a.475.475 0 0 0-.41.166l-1.3 1.53a.48.48 0 0 1-.833-.208l-.425-1.962a.485.485 0 0 0-.286-.34l-1.862-.76a.48.48 0 0 1-.058-.858l1.735-1.012a.477.477 0 0 0 .238-.375l.147-2.006a.48.48 0 0 1 .797-.32l1.498 1.34c.122.103.28.144.435.106l1.95-.477a.48.48 0 0 1 .552.66z" stroke="#5B6A72" stroke-width="2" fill="#FDE699"/><path d="M71.55 31.92l-.726 1.874a.488.488 0 0 1-.338.29l-1.956.462a.478.478 0 0 0-.193.836l1.558 1.27c.12.102.184.253.172.41l-.163 2c-.034.398.4.66.734.445l1.69-1.086a.47.47 0 0 1 .444-.04l1.854.776a.478.478 0 0 0 .647-.562l-.512-1.94a.48.48 0 0 1 .1-.434l1.31-1.522a.478.478 0 0 0-.334-.79l-2.006-.114a.48.48 0 0 1-.38-.23l-1.046-1.717a.48.48 0 0 0-.855.074z" stroke="#5B6A72" stroke-width="2" fill="#FFF"/><path d="M8.208 31.924l.73 1.87c.055.147.18.255.334.292l1.958.46a.478.478 0 0 1 .19.837l-1.555 1.27a.48.48 0 0 0-.174.413l.166 2a.477.477 0 0 1-.734.44L7.428 38.42a.47.47 0 0 0-.442-.038l-1.853.774a.48.48 0 0 1-.65-.563l.514-1.94a.486.486 0 0 0-.1-.433l-1.31-1.522a.478.478 0 0 1 .334-.79l2.007-.114a.474.474 0 0 0 .38-.23l1.046-1.717a.48.48 0 0 1 .855.077z" stroke="#5B6A72" stroke-width="2" fill="#FF919E"/><path d="M49.748 13.116l.808 1.84a.483.483 0 0 1-.03.446l-1.058 1.706c-.21.337.06.77.455.728l2-.202c.157-.016.31.05.412.17l1.298 1.53c.26.3.752.178.835-.21l.427-1.96a.473.473 0 0 1 .287-.342l1.86-.76a.48.48 0 0 0 .057-.86l-1.737-1.01a.476.476 0 0 1-.236-.374l-.148-2.006a.48.48 0 0 0-.798-.32l-1.5 1.34a.48.48 0 0 1-.432.106l-1.952-.477a.476.476 0 0 0-.55.656z" stroke="#5B6A72" stroke-width="2" fill="#08B5E5"/><path d="M30.185 46.87c.144-5.257 4.453-9.475 9.748-9.475 5.295 0 9.605 4.218 9.748 9.475H30.186z" stroke="#5B6A72" stroke-width="2" fill="#42AAE6"/><path d="M5.444 46.926h68.15" stroke="#5B6A72" stroke-width="2" stroke-linecap="square"/></g></svg>