<svg width="80" height="100" viewBox="0 0 80 100" xmlns="http://www.w3.org/2000/svg" xmlns:xlink="http://www.w3.org/1999/xlink"><title>Rocket@2x</title><defs><path id="a" d="M0 0h71.55v75.265H0"/></defs><g fill="none" fill-rule="evenodd"><path d="M43.668 64.527C46.815 60.03 45.73 53.81 41.25 50.63c-4.482-3.18-10.663-2.11-13.806 2.387-.078.11-.14.225-.213.338-5.482 8.096-6.404 17.06-2.002 20.18 4.402 3.125 12.474-.77 18.196-8.694.08-.104.168-.203.244-.313" fill="#ED8117"/><path d="M42.656 61.297a6.752 6.752 0 0 0-1.635-9.513c-3.12-2.162-7.446-1.405-9.66 1.69-.057.075-.1.154-.15.23-3.865 5.57-4.545 11.717-1.48 13.84 3.065 2.12 8.72-.58 12.75-6.032.06-.072.12-.14.176-.215" fill="#EEBB18"/><g transform="rotate(75 39.18 49.05)"><mask id="b" fill="#fff"><use xlink:href="#a"/></mask><path d="M24.917 40.14c-2.805 2.38-14.955 14.87-.11 34.537.454.6 1.26 1.052 1.207-.262-.15-3.748.697-11.927 9.45-19.34 11.822-10.008-10.547-14.934-10.547-14.934" fill="#5B6A72" mask="url(#b)"/></g><path d="M57.397 42.593c2.974 2.104 16.02 13.386 2.917 33.863-.4.624-1.164 1.133-1.218-.16-.156-3.688-1.658-11.644-10.928-18.212-12.52-8.872 9.23-15.49 9.23-15.49" fill="#5B6A72"/><path d="M76.818 1.538l-.016.018.01-.022C75.63.696 53.892 2.09 45.76 15.526c-8.132 13.437-15.2 26.5-16.65 29.022-1.445 2.523-.642 3.9 1.938 5.727 1.176.83 4.486 3.173 7.748 5.482 3.262 2.307 6.572 4.65 7.748 5.48 2.58 1.828 4.142 2.126 6.02-.094 1.877-2.22 11.74-13.302 21.595-25.522C84.013 23.404 78 2.377 76.817 1.54" fill="#DCF2F9"/><path d="M75.606 1.863l-.016.018.01-.02c-1.18-.84-22.92.555-31.05 13.99-8.135 13.438-15.202 26.5-16.65 29.022-1.448 2.524-.643 3.9 1.937 5.728l7.748 5.48c3.26 2.31 6.57 4.652 7.746 5.482 2.583 1.827 4.144 2.126 6.022-.094 1.877-2.22 11.74-13.302 21.595-25.522C82.803 23.728 76.79 2.7 75.607 1.863" stroke="#5B6A72" stroke-width="2" stroke-linecap="round" stroke-linejoin="round"/><path d="M51.415 19.018c2.79-3.968 8.27-4.917 12.235-2.12 3.966 2.794 4.917 8.277 2.124 12.24-2.79 3.967-8.27 4.918-12.236 2.122a8.79 8.79 0 0 1-2.123-12.242" fill="#FEFEFE"/><path d="M51.415 19.018c2.79-3.968 8.27-4.917 12.235-2.12 3.966 2.794 4.917 8.277 2.124 12.24-2.79 3.967-8.27 4.918-12.236 2.122a8.79 8.79 0 0 1-2.123-12.242" stroke="#5B6A72" stroke-width="2"/><path d="M1.628 98.627L14.823 80.06M9.16 96.118l7.41-10.428" stroke="#979797" stroke-width="2" stroke-linecap="square"/></g></svg>