<?xml version="1.0" encoding="UTF-8" standalone="no"?>
<svg width="168px" height="184px" viewBox="0 0 168 184" version="1.1" xmlns="http://www.w3.org/2000/svg" xmlns:xlink="http://www.w3.org/1999/xlink" xmlns:sketch="http://www.bohemiancoding.com/sketch/ns">
    <!-- Generator: Sketch 3.2.2 (9983) - http://www.bohemiancoding.com/sketch -->
    <title>spaceship</title>
    <desc>Created with Sketch.</desc>
    <defs>
        <filter x="-50%" y="-50%" width="200%" height="200%" filterUnits="objectBoundingBox" id="filter-1">
            <feGaussianBlur stdDeviation="2.52039292" in="SourceGraphic" result="blur"></feGaussianBlur>
        </filter>
        <filter x="-50%" y="-50%" width="200%" height="200%" filterUnits="objectBoundingBox" id="filter-2">
            <feGaussianBlur stdDeviation="3.07186351" in="SourceGraphic" result="blur"></feGaussianBlur>
        </filter>
        <linearGradient x1="50%" y1="0%" x2="50%" y2="100%" id="linearGradient-3">
            <stop stop-color="#5B6A72" offset="0%"></stop>
            <stop stop-color="#3F4548" offset="100%"></stop>
        </linearGradient>
        <linearGradient x1="50%" y1="50%" x2="50%" y2="100%" id="linearGradient-4">
            <stop stop-color="#5B6A72" offset="0%"></stop>
            <stop stop-color="#687881" offset="100%"></stop>
        </linearGradient>
        <linearGradient x1="39.0654188%" y1="77.9732014%" x2="83.6579791%" y2="-23.049358%" id="linearGradient-5">
            <stop stop-color="#8BD2E8" offset="0%"></stop>
            <stop stop-color="#DCF2F9" offset="100%"></stop>
        </linearGradient>
    </defs>
    <g id="V2" stroke="none" stroke-width="1" fill="none" fill-rule="evenodd" sketch:type="MSPage">
        <g id="stellar-homepage-hayashi" sketch:type="MSArtboardGroup" transform="translate(-517.000000, -176.000000)">
            <g id="Group" sketch:type="MSLayerGroup">
                <g id="spaceship" transform="translate(517.000000, 176.000000)" sketch:type="MSShapeGroup">
                    <g>
                        <path d="M51.876,80.4041692 L29.3531677,160.110978 C43.4203677,170.201487 66.9132,175.935638 83.846,175.935638 C100.7228,175.935638 124.161632,170.239204 138.194432,160.213037 L115.6608,80.4041692 L51.876,80.4041692 Z" id="Fill-1" opacity="0.231343284" fill="#CDECF9" filter="url(#filter-1)"></path>
                        <path d="M83.846,175.935638 C93.4096,175.935638 102.6592,174.102463 111.4368,170.692368 L103.9944,80.4041692 L63.5452,80.4041692 L56.1048,170.632464 C64.926,174.080831 74.228,175.935638 83.846,175.935638" id="Fill-2" opacity="0.127915112" fill="#E5F4F9" filter="url(#filter-2)"></path>
                        <path d="M143.618,51.376769 L23.6048,49.247195 L33.4196,72.4505452 L33.4892,72.4505452 C36.3484,80.2256421 57.7976,86.2708586 83.846,86.2708586 C109.49,86.2708586 130.6752,80.4121392 134.054,72.8099905 L134.0672,72.8099905 L143.618,51.376769" id="Fill-3" fill="url(#linearGradient-3)"></path>
                        <path d="M167.6812,44.8553472 C167.6812,59.0952791 130.1436,70.6401682 83.846,70.6401682 C37.5444,70.6401682 0.0108,59.0952791 0.0108,44.8553472 C0.0108,30.6134228 37.5444,19.0689322 83.846,19.0689322 C130.1436,19.0689322 167.6812,30.6134228 167.6812,44.8553472" id="Fill-4" fill="#08B5E5"></path>
                        <path d="M158.21,44.8553472 C158.21,57.4861437 124.9132,67.7267484 83.846,67.7267484 C42.7752,67.7267484 9.482,57.4861437 9.482,44.8553472 C9.482,32.2225582 42.7752,21.9827504 83.846,21.9827504 C124.9132,21.9827504 158.21,32.2225582 158.21,44.8553472" id="Fill-5" opacity="0.336229011" fill="#22C7F5"></path>
                        <path d="M142.9828,44.8553472 C142.9828,54.9006879 116.5056,63.0428015 83.846,63.0428015 C51.186,63.0428015 24.708,54.9006879 24.708,44.8553472 C24.708,34.808014 51.186,26.6662989 83.846,26.6662989 C116.5056,26.6662989 142.9828,34.808014 142.9828,44.8553472" id="Fill-6" fill="#08B5E5"></path>
                        <path d="M134.8212,45.3837557 C134.8212,54.0427214 111.9992,61.0614688 83.846,61.0614688 C55.6916,61.0614688 32.8672,54.0427214 32.8672,45.3837557 C32.8672,36.721602 55.6916,29.7048471 83.846,29.7048471 C111.9992,29.7048471 134.8212,36.721602 134.8212,45.3837557" id="Fill-7" fill="#22C7F4"></path>
                        <path d="M83.846,70.6401682 C37.5444,70.6401682 0.0108,59.0952791 0.0108,44.8553472 C0.0108,63.0973957 37.5444,77.8860596 83.846,77.8860596 C130.1436,77.8860596 167.6812,63.0973957 167.6812,44.8553472 C167.6812,59.0952791 130.1436,70.6401682 83.846,70.6401682" id="Fill-8" fill="url(#linearGradient-4)"></path>
                        <path d="M83.8328,0.225948436 C43.7696,0.28652015 38.158,37.8613066 38.158,44.6660606 L83.7712,43.7734248 L129.3876,44.6660606 C129.3876,37.8613066 123.7756,0.28652015 83.8328,0.225948436 Z" id="Fill-9" fill="url(#linearGradient-5)"></path>
                        <path d="M48.0868,35.124023 C47.8312,35.124023 47.5728,35.0857672 47.314,35.0088571 C45.904,34.5852536 45.1048,33.1008481 45.5312,31.6961422 C48.236,22.7729722 55.7884,7.36823029 75.982,4.42930663 C77.4244,4.22806508 78.796,5.2219194 79.0096,6.67683605 C79.2228,8.1289632 78.2124,9.47827785 76.7548,9.69067735 C60.3444,12.0792751 53.4968,23.8102628 50.6416,33.2327509 C50.2928,34.380824 49.2328,35.124023 48.0868,35.124023" id="Fill-10" opacity="0.200209888" fill="#FFFFFF"></path>
                        <path d="M129.51,45.0378593 C129.51,52.7954223 109.0656,59.0833242 83.846,59.0833242 C58.6264,59.0833242 38.1812,52.7954223 38.1812,45.0378593 C38.1812,37.2798979 58.6264,30.9923945 83.846,30.9923945 C109.0656,30.9923945 129.51,37.2798979 129.51,45.0378593" id="Fill-11" fill="#9AEAFF"></path>
                    </g>
                </g>
            </g>
        </g>
    </g>
</svg>