<svg xmlns="http://www.w3.org/2000/svg" xmlns:xlink="http://www.w3.org/1999/xlink" xmlns:sketch="http://www.bohemiancoding.com/sketch/ns" width="230px" height="310px" viewBox="0 0 230 310" version="1.1">
    <!-- Generator: Sketch 3.2.2 (9983) - http://www.bohemiancoding.com/sketch -->
    <title>STROOPY</title>
    <desc>Created with Sketch.</desc>
    <defs>
        <path id="path-1" d="M109.928495 198.7 L109.928495 14.8 C93.9271868 5.3 75.2 -0.2 55.3 -0.2 C34.7535074 -0.2 15.6 5.6 -0.7 15.6 L-0.694475728 197.9 C15.5895703 207.9 34.8 213.7 55.3 213.7 C75.2340501 213.7 93.9 208.2 109.9 198.7"/>
        <path id="path-3" d="M51.2186771 150.4 L163.36854 150.4 C193.969164 131.6 214.4 97.9 214.4 59.3 C214.369049 37.9 208 17.9 197.1 1.1 L17.4559345 1.1 C6.55176234 17.9 0.2 37.9 0.2 59.3 C0.217165049 97.9 20.6 131.6 51.2 150.4"/>
    </defs>
    <g id="Page-1" stroke="none" stroke-width="1" fill="none" fill-rule="evenodd" sketch:type="MSPage">
        <g id="404-v2" sketch:type="MSArtboardGroup" transform="translate(-548.000000, -395.000000)">
            <g id="Content" sketch:type="MSLayerGroup" transform="translate(215.000000, 160.000000)">
                <g id="STROOPY" transform="translate(333.000000, 235.000000)">
                    <path d="M112.817379 23.7 L117.34165 23.7 L117.34165 59.9 L112.817379 59.9 L112.817379 23.7 Z" id="Fill-1" fill="#3292AD" sketch:type="MSShapeGroup"/>
                    <path d="M106.216466 14.1 L102.823262 14.1 C102.825524 21.4 108.7 27.3 116 27.3 C123.311427 27.3 129.2 21.4 129.2 14.1 C129.215602 6.9 123.3 1 116 1 C108.731961 1 102.8 6.9 102.8 14.1 L109.60967 14.1 C109.616456 10.6 112.5 7.8 116 7.7 C119.563068 7.8 122.4 10.6 122.4 14.1 C122.42467 17.7 119.6 20.5 116 20.5 C112.484845 20.5 109.6 17.7 109.6 14.1 L106.216466 14.1" id="Fill-2" fill="#3292AD" sketch:type="MSShapeGroup"/>
                    <path d="M113.801408 278.3 C94.5777767 278.3 77.3 270.2 65 257.2 C63.5842524 255.7 62.9 254.1 61.7 252.5 C59.8019612 249.8 58.5 250.5 58.5 253.9 L58.5238544 277.8 C58.5238544 281.2 59.8 285.6 61.8 287.8 C62.9553786 289 63.9 290.3 65.2 291.5 C78.340165 302.8 95.3 309.7 113.9 309.7 C132.459505 309.7 149.4 302.9 162.5 291.7 C163.77199 290.6 164.9 289.5 166.2 288.3 C168.395796 286.3 169.4 281.6 169.4 278.2 L169.368515 254.2 C169.368515 250.8 168.5 250.5 166.3 253.1 C164.934728 254.6 163.6 256 162.3 257.5 C150.018204 270.3 132.9 278.3 113.8 278.3" id="Fill-3" fill="#2BB0D1" sketch:type="MSShapeGroup"/>
                    <path d="M114.880447 53 C123.641699 53 131.5 56.7 137.1 62.6 C137.766476 63.3 138 64 138.5 64.8 C139.435932 66 140 65.7 140 64.1 L139.96301 53.2 C139.96301 51.6 139.4 49.7 138.5 48.7 C137.997214 48.1 137.6 47.5 137 47 C131.011738 41.8 123.3 38.7 114.8 38.7 C106.356718 38.7 98.6 41.8 92.7 46.9 C92.0984757 47.4 90.8 47.9 90.2 48.4 C89.1803204 49.3 87.9 51.5 87.9 53.1 L87.9338835 64 C87.9338835 65.5 89.2 65.6 90.2 64.5 C90.7660777 63.8 91.8 63.1 92.4 62.5 C97.961932 56.7 106.2 53 114.9 53" id="Fill-4" fill="#3292AD" sketch:type="MSShapeGroup"/>
                    <path d="M113.801408 249 C94.5777767 249 77.3 240.9 65 227.9 C63.5842524 226.4 62.9 224.9 61.7 223.2 C59.8019612 220.5 58.5 221.2 58.5 224.6 L58.5238544 248.6 C58.5238544 252 59.8 256.4 61.8 258.5 C62.9553786 259.8 63.9 261 65.2 262.2 C78.340165 273.6 95.3 280.5 113.9 280.5 C132.459505 280.5 149.4 273.7 162.5 262.4 C163.77199 261.3 164.9 260.2 166.2 259 C168.395796 257.1 169.4 252.3 169.4 248.9 L169.368515 225 C169.368515 221.6 168.5 221.3 166.3 223.8 C164.934728 225.3 163.6 226.8 162.3 228.2 C150.018204 241 132.9 249 113.8 249" id="Fill-5" fill="#3292AD" sketch:type="MSShapeGroup"/>
                    <path d="M8.00357282 158.7 C8.00357282 217.8 55.9 265.7 115.1 265.7 C174.216272 265.7 222.2 217.8 222.2 158.7 C222.155456 99.7 174.2 51.8 115.1 51.8 C55.9450194 51.8 8 99.7 8 158.7" id="Fill-6" fill="#2BB0D1" sketch:type="MSShapeGroup"/>
                    <g id="Group-9" transform="translate(59.815534, 51.956835)">
                        <mask id="mask-2" sketch:name="Clip 8" fill="white">
                            <use xlink:href="#path-1"/>
                        </mask>
                        <g id="Clip-8"/>
                        <path d="M15.9005534 191.3 C19.4159126 198.6 23.4 205 27.7 210.1 C29.2132233 210.5 30.7 210.9 32.2 211.2 L78.2947864 211.2 C79.2494078 211 80.2 210.8 81.2 210.5 C85.5494563 205.4 89.6 199 93.2 191.6 C81.4210583 195.7 68.8 197.9 55.6 197.9 L53.157932 197.4 C40.109932 197.4 27.6 195.2 15.9 191.3 M55.2639806 -0.2 C45.8896893 -0.2 36.8 1.1 28.1 3.3 C18.8458544 14.1 11.2 30.5 6.1 50.3 C21.3138447 46.2 37.4 44.1 54.1 44.1 L56.3950485 44.1 C72.429068 44.1 88.1 46.1 103.1 50 C97.9256019 30.1 90.1 13.7 80.7 2.9 C72.5738447 0.9 64 -0.2 55.3 -0.2" id="Fill-7" fill="#4FB6D4" sketch:type="MSShapeGroup" mask="url(#mask-2)"/>
                    </g>
                    <g id="Group-16" transform="translate(7.786408, 99.395683)">
                        <mask id="mask-4" sketch:name="Clip 11" fill="white">
                            <use xlink:href="#path-3"/>
                        </mask>
                        <g id="Clip-11"/>
                        <path d="M1.5178932 76.1 C2.30737864 81.1 3.4 86 4.9 90.8 L4.91562136 90.8 C3.44749515 86 2.3 81.1 1.5 76.1" id="Fill-10" fill="#75ABBD" sketch:type="MSShapeGroup" mask="url(#mask-4)"/>
                        <path d="M1.5178932 76.1 C2.30737864 81.1 3.4 86 4.9 90.8 C18.3504466 115.5 40.8 134.6 67.9 143.8 C66.7533689 141.4 65.6 138.8 64.6 136.1 C36.2552524 125.3 13.5 103.6 1.5 76.1" id="Fill-12" fill="#349AB6" sketch:type="MSShapeGroup" mask="url(#mask-4)"/>
                        <path d="M212.982359 76.6 L212.982359 76.6 C212.649825 78.6 212.3 80.7 211.8 82.7 C212.258476 80.7 212.6 78.6 213 76.6" id="Fill-13" fill="#75ABBD" sketch:type="MSShapeGroup" mask="url(#mask-4)"/>
                        <path d="M212.982359 76.6 C200.803019 104.8 177.5 126.7 148.3 137.2 C147.289932 139.6 146.3 142 145.2 144.2 C175.191117 133.8 199.3 111.4 211.8 82.7 C212.256214 80.7 212.6 78.6 213 76.6" id="Fill-14" fill="#349AB6" sketch:type="MSShapeGroup" mask="url(#mask-4)"/>
                        <path d="M64.5590971 136.1 C65.6268252 138.8 66.8 141.4 67.9 143.8 C79.6000388 147.8 92.1 150 105.2 150 L107.589447 150.4 C120.809369 150.4 133.5 148.2 145.2 144.2 C146.256136 142 147.3 139.6 148.3 137.2 C136.060689 141.6 122.8 144 108.9 144 L106.162039 143.8 C91.4762524 143.7 77.4 141 64.6 136.1" id="Fill-15" fill="#3D9CB7" sketch:type="MSShapeGroup" mask="url(#mask-4)"/>
                    </g>
                    <path d="M85.6717476 274.9 L85.6717476 304.1 C94.3696602 307.7 103.9 309.7 113.9 309.7 C123.078427 309.7 131.9 308 140 305 L139.96301 275.8 C131.853252 278.8 123.1 280.5 113.9 280.5 C103.89099 280.5 94.4 278.5 85.7 274.9" id="Fill-18" fill="#40B3D1" sketch:type="MSShapeGroup"/>
                    <path d="M139.96301 263.2 L138.121631 263.2 C130.697301 264.8 123 265.7 115.1 265.7 C107.166563 265.7 99.5 264.8 92 263.2 L85.6717476 263.2 L85.6717476 274.9 C94.3696602 278.5 103.9 280.5 113.9 280.5 C123.078427 280.5 131.9 278.8 140 275.8 L139.96301 263.2" id="Fill-19" fill="#4198B0" sketch:type="MSShapeGroup"/>
                    <path d="M138.121631 263.2 L138.11032 263.2 C130.690515 264.8 123 265.7 115.1 265.7 C107.171087 265.7 99.5 264.8 92 263.2 L92.0396602 263.2 C99.4617282 264.8 107.2 265.7 115.1 265.7 C122.990204 265.7 130.7 264.8 138.1 263.2" id="Fill-20" fill="#40B3D1" sketch:type="MSShapeGroup"/>
                    <path d="M138.11032 263.2 L92.0464466 263.2 C99.4685146 264.8 107.2 265.7 115.1 265.7 C122.987942 265.7 130.7 264.8 138.1 263.2" id="Fill-21" fill="#59B9D4" sketch:type="MSShapeGroup"/>
                    <path d="M116.696942 243.4 C177.774612 243.4 226.2 197.3 229.8 137.7 C199.803291 110.5 159.2 96 116.2 96 L113.948447 96 C70.2123107 96 30.4 110.5 0.3 137.7 C3.92267961 197.3 53.4 243.1 113.9 243.1 L116.696942 243.4" id="Fill-22" fill="#95CCD0" sketch:type="MSShapeGroup"/>
                    <path d="M86.3956311 162.1 C86.3956311 171.5 89.9 179.1 94.3 179.1 C98.6880777 179.1 102.2 171.5 102.2 162.1 C102.230583 152.8 98.7 145.2 94.3 145.2 C89.9381359 145.2 86.4 152.8 86.4 162.1" id="Fill-23" fill="#1B3236" sketch:type="MSShapeGroup"/>
                    <path d="M127.114078 162.1 C127.114078 171.5 130.7 179.1 135 179.1 C139.406524 179.1 142.9 171.5 142.9 162.1 C142.949029 152.8 139.4 145.2 135 145.2 C130.656583 145.2 127.1 152.8 127.1 162.1" id="Fill-24" fill="#1B3236" sketch:type="MSShapeGroup"/>
                    <path d="M58.9943786 112.9 C48.6066505 116.8 38.9 121.6 29.8 127.5 C29.226932 134.8 28.9 142.2 28.9 149.9 C28.9057087 163.9 29.9 177.3 31.9 189.7 C41.2275631 203.5 53.9 214.9 68.9 222.9 C61.2565146 204.4 56.1 178.9 56.1 149.9 C56.0513398 136.7 57.1 124.3 59 112.9" id="Fill-25" fill="#AAD5D8" sketch:type="MSShapeGroup"/>
                </g>
            </g>
        </g>
    </g>
</svg>
