<svg width="79" height="49" viewBox="0 0 79 49" xmlns="http://www.w3.org/2000/svg"><title>mobile branch</title><g fill="none" fill-rule="evenodd"><path fill="#D8EEF5" d="M54.018 1.76h10.51l5.01 15.52-15.25.25z"/><path stroke="#5B6A72" stroke-width="2" d="M5.584 25.344v7.928h2.832v7.89h5.65M5.667 9.01V1.334h58.477l5.672 15.862 6.008 3.84c.912.62 1.843 1.653 1.843 2.757v17.536H70.66M27.096 41.372H57.63"/><path d="M64.145 47.678a6.522 6.522 0 0 0 6.515-6.514 6.522 6.522 0 0 0-6.515-6.515 6.522 6.522 0 0 0-6.515 6.514 6.522 6.522 0 0 0 6.515 6.514zM20.58 47.678a6.522 6.522 0 0 0 6.516-6.514 6.522 6.522 0 0 0-6.515-6.515 6.522 6.522 0 0 0-6.514 6.514 6.522 6.522 0 0 0 6.515 6.514zM10.734 20.01h-7.65M.333 14.71h13.25M8.417 33.26h69.21M53.95 1.333V33.26M53.95 17.194h15.865" stroke="#5B6A72" stroke-width="2"/></g></svg>