<?xml version="1.0" encoding="UTF-8" standalone="no"?>
<svg width="70px" height="70px" viewBox="0 0 70 70" version="1.1" xmlns="http://www.w3.org/2000/svg" xmlns:xlink="http://www.w3.org/1999/xlink" xmlns:sketch="http://www.bohemiancoding.com/sketch/ns">
    <!-- Generator: Sketch 3.2.2 (9983) - http://www.bohemiancoding.com/sketch -->
    <title>red planet</title>
    <desc>Created with Sketch.</desc>
    <defs>
        <path id="path-1" d="M68.1053712,34.5089119 C68.1053712,53.4381371 52.912273,68.7835233 34.1701123,68.7835233 C15.4283052,68.7835233 0.234853537,53.4381371 0.234853537,34.5089119 C0.234853537,15.5793297 15.4283052,0.234300518 34.1701123,0.234300518 C52.912273,0.234300518 68.1053712,15.5793297 68.1053712,34.5089119"></path>
    </defs>
    <g id="www" stroke="none" stroke-width="1" fill="none" fill-rule="evenodd" sketch:type="MSPage">
        <g id="Hayashi-www-8" sketch:type="MSArtboardGroup" transform="translate(-405.000000, -416.000000)">
            <g id="red-planet" sketch:type="MSLayerGroup" transform="translate(405.000000, 416.000000)">
                <path d="M69.182681,35.0529534 C69.182681,54.2826425 53.7484225,69.8716062 34.7087672,69.8716062 C15.6694711,69.8716062 0.234853537,54.2826425 0.234853537,35.0529534 C0.234853537,15.8229016 15.6694711,0.234300518 34.7087672,0.234300518 C53.7484225,0.234300518 69.182681,15.8229016 69.182681,35.0529534" id="Fill-1" fill="#F45C5C" sketch:type="MSShapeGroup"></path>
                <g id="Group-23" transform="translate(0.718207, 0.362694)">
                    <mask id="mask-2" sketch:name="Clip 13" fill="white">
                        <use xlink:href="#path-1"></use>
                    </mask>
                    <g id="Clip-13"></g>
                    <path d="M74.2101267,43.3949223 L36.8633869,43.3949223 C35.2768686,43.3949223 33.9905607,44.6937306 33.9905607,46.296114 C33.9905607,47.8984974 35.2768686,49.1976684 36.8633869,49.1976684 L56.9731699,49.1976684 C58.5596881,49.1976684 59.845996,50.4972021 59.845996,52.0995855 C59.845996,53.7019689 58.5596881,55.0007772 56.9731699,55.0007772 L48.3546914,55.0007772 C46.7681732,55.0007772 45.4818653,56.2999482 45.4818653,57.9023316 C45.4818653,59.504715 46.7681732,60.8042487 48.3546914,60.8042487 L68.4644744,60.8042487" id="Fill-12" opacity="0.116954291" fill="#FFFFFF" sketch:type="MSShapeGroup" mask="url(#mask-2)"></path>
                    <path d="M-6.22900528,43.3949223 L19.6490535,43.3949223 C21.2355717,43.3949223 22.5218796,44.6937306 22.5218796,46.296114 C22.5218796,47.8984974 21.2355717,49.1976684 19.6490535,49.1976684 L16.7762274,49.1976684 C15.1897091,49.1976684 13.9034012,50.4972021 13.9034012,52.0995855 C13.9034012,53.7019689 15.1897091,55.0007772 16.7762274,55.0007772 L16.7087159,55.0007772 L25.3720823,55.0007772 C26.9586005,55.0007772 28.2449084,56.2999482 28.2449084,57.9023316 C28.2449084,59.504715 26.9586005,60.8042487 25.3720823,60.8042487 L5.26229929,60.8042487" id="Fill-15" opacity="0.116954291" fill="#FFFFFF" sketch:type="MSShapeGroup" mask="url(#mask-2)"></path>
                    <path d="M46.9182784,31.788342 L32.5541476,31.788342 C30.9676294,31.788342 29.6813215,30.4895337 29.6813215,28.8867876 C29.6813215,27.2844041 30.9676294,25.9855959 32.5541476,25.9855959 L35.4269738,25.9855959 C37.013492,25.9855959 38.2997999,24.6867876 38.2997999,23.0836788 C38.2997999,21.4812953 37.013492,20.1821244 35.4269738,20.1821244 L12.4443646,20.1821244 C10.8578464,20.1821244 9.5715385,21.4812953 9.5715385,23.0836788 C9.5715385,24.6867876 10.8578464,25.9855959 12.4443646,25.9855959 L23.9356692,25.9855959 C25.5221875,25.9855959 26.8084954,27.2844041 26.8084954,28.8867876 C26.8084954,30.4895337 25.5221875,31.788342 23.9356692,31.788342 L21.0628431,31.788342 C19.4763248,31.788342 18.1900169,33.0878756 18.1900169,34.6902591 C18.1900169,36.2926425 19.4763248,37.5914508 21.0628431,37.5914508 L46.9182784,37.5914508 C48.5047966,37.5914508 49.7911045,36.2926425 49.7911045,34.6902591 C49.7911045,33.0878756 48.5047966,31.788342 46.9182784,31.788342 L46.9182784,31.788342 Z" id="Fill-17" opacity="0.116954291" fill="#FFFFFF" sketch:type="MSShapeGroup" mask="url(#mask-2)"></path>
                    <path d="M74.2101267,20.1821244 L51.2275176,20.1821244 C49.6409993,20.1821244 48.3546914,21.4812953 48.3546914,23.0836788 C48.3546914,24.6867876 49.6409993,25.9855959 51.2275176,25.9855959 L74.2101267,25.9855959 C75.7966449,25.9855959 77.083312,24.6867876 77.083312,23.0836788 C77.083312,21.4812953 75.7966449,20.1821244 74.2101267,20.1821244 L74.2101267,20.1821244 Z" id="Fill-19" opacity="0.116954291" fill="#FFFFFF" sketch:type="MSShapeGroup" mask="url(#mask-2)"></path>
                    <path d="M42.6090391,8.57626943 L2.38947314,8.57626943 C0.802954907,8.57626943 -0.483352999,9.87507772 -0.483352999,11.4774611 C-0.483352999,13.0802073 0.802954907,14.3790155 2.38947314,14.3790155 L42.6090391,14.3790155 C44.1955574,14.3790155 45.4818653,13.0802073 45.4818653,11.4774611 C45.4818653,9.87507772 44.1955574,8.57626943 42.6090391,8.57626943 L42.6090391,8.57626943 Z" id="Fill-21" opacity="0.116954291" fill="#FFFFFF" sketch:type="MSShapeGroup" mask="url(#mask-2)"></path>
                </g>
            </g>
        </g>
    </g>
</svg>