<?xml version="1.0" encoding="UTF-8" standalone="no"?>
<svg width="60px" height="60px" viewBox="0 0 60 60" version="1.1" xmlns="http://www.w3.org/2000/svg" xmlns:xlink="http://www.w3.org/1999/xlink" xmlns:sketch="http://www.bohemiancoding.com/sketch/ns">
    <!-- Generator: Sketch 3.2.2 (9983) - http://www.bohemiancoding.com/sketch -->
    <title>violet planet</title>
    <desc>Created with Sketch.</desc>
    <defs></defs>
    <g id="www" stroke="none" stroke-width="1" fill="none" fill-rule="evenodd" sketch:type="MSPage">
        <g id="Hayashi-www-8" sketch:type="MSArtboardGroup" transform="translate(-892.000000, -342.000000)">
            <g id="blue-planet-+-violet-planet" sketch:type="MSLayerGroup" transform="translate(802.000000, 342.000000)">
                <g id="violet-planet" transform="translate(90.000000, 0.000000)" sketch:type="MSShapeGroup">
                    <path d="M60,30 C60,46.5684375 46.56875,60 30,60 C13.4315625,60 0,46.5684375 0,30 C0,13.43125 13.4315625,0 30,0 C46.56875,0 60,13.43125 60,30" id="Fill-14" fill="#CBACF9"></path>
                    <circle id="Oval-54" fill="#D6C3F9" cx="16.09375" cy="10.7245036" r="1.09375"></circle>
                    <circle id="Oval-55" fill="#D6C3F9" cx="25.46875" cy="23.2245036" r="1.09375"></circle>
                    <circle id="Oval-56" fill="#D6C3F9" cx="34.84375" cy="13.8495036" r="1.09375"></circle>
                    <circle id="Oval-57" fill="#D6C3F9" cx="24.84375" cy="6.66200364" r="1.09375"></circle>
                    <circle id="Oval-58" fill="#D6C3F9" cx="8.90625" cy="18.8495036" r="0.78125"></circle>
                    <circle id="Oval-59" fill="#D6C3F9" cx="49.53125" cy="15.7245036" r="0.78125"></circle>
                    <circle id="Oval-60" fill="#D6C3F9" cx="24.21875" cy="31.3495036" r="0.78125"></circle>
                    <circle id="Oval-61" fill="#D6C3F9" cx="35.15625" cy="22.9120036" r="0.78125"></circle>
                    <circle id="Oval-62" fill="#D6C3F9" cx="40.15625" cy="6.34950364" r="0.78125"></circle>
                    <circle id="Oval-63" fill="#D6C3F9" cx="8.90625" cy="26.6620036" r="0.78125"></circle>
                    <ellipse id="Oval-64" fill="#D6C3F9" cx="42.4230957" cy="10.6146331" rx="0.743408203" ry="0.780495581"></ellipse>
                    <ellipse id="Oval-65" fill="#D6C3F9" cx="48.3190918" cy="27.3666975" rx="0.743408203" ry="0.780495581"></ellipse>
                    <ellipse id="Oval-66" fill="#D6C3F9" cx="19.5300293" cy="35.661647" rx="0.743408203" ry="0.780495581"></ellipse>
                    <circle id="Oval-67" fill="#D6C3F9" cx="22.96875" cy="12.9120036" r="0.78125"></circle>
                    <ellipse id="Oval-68" fill="#D6C3F9" cx="22.6550293" cy="45.036647" rx="0.743408203" ry="0.780495581"></ellipse>
                    <ellipse id="Oval-69" fill="#D6C3F9" cx="14.1809082" cy="30.8936987" rx="0.743408203" ry="0.780495581"></ellipse>
                    <ellipse id="Oval-70" fill="#D6C3F9" cx="28.6633301" cy="17.5987492" rx="0.743408203" ry="0.780495581"></ellipse>
                    <path d="M0.977636719,26.3625 C1.72763672,23.8125 2.40263672,22.5375 2.40263672,22.5375 C2.40263672,22.5375 12.7541016,28.6558594 29.2541016,28.3558594 C45.7541016,28.0558594 57.8276367,22.9889648 57.8276367,22.9889648 C57.8276367,22.9889648 58.7626101,25.4102909 59.1776367,26.8139648 C59.5604616,28.1087284 59.8526367,30.9764648 59.8526367,30.9764648 C59.8526367,30.9764648 45.604102,37.2181641 29.5541016,37.2058594 C13.5041011,37.1935547 0.152636719,30.8625 0.152636719,30.8625 C0.152636719,30.8625 0.227636719,28.9125 0.977636719,26.3625 Z" id="Path-1527" opacity="0.455806903" fill="#B78EF5"></path>
                    <path d="M0.977636719,22.7625 C1.72763672,20.2125 2.40263672,18.9375 2.40263672,18.9375 C2.40263672,18.9375 12.7541016,25.0558594 29.2541016,24.7558594 C45.7541016,24.4558594 57.8276367,19.3889648 57.8276367,19.3889648 C57.8276367,19.3889648 58.7626101,21.8102909 59.1776367,23.2139648 C59.5604616,24.5087284 59.8526367,27.3764648 59.8526367,27.3764648 C59.8526367,27.3764648 45.604102,33.6181641 29.5541016,33.6058594 C13.5041011,33.5935547 0.152636719,27.2625 0.152636719,27.2625 C0.152636719,27.2625 0.227636719,25.3125 0.977636719,22.7625 Z" id="Path-1527" opacity="0.693388526" fill="#C8A2FF"></path>
                </g>
            </g>
        </g>
    </g>
</svg>