<svg width="18" height="13" viewBox="0 0 18 13" xmlns="http://www.w3.org/2000/svg" xmlns:sketch="http://www.bohemiancoding.com/sketch/ns"><title>Stellar envelope</title><path d="M17.733 11.027v-9.719c0-.37-.163-.712-.41-.955l-.11-.097c-.203-.158-.446-.256-.705-.256h-15.283c-.278 0-.533.103-.739.271l-.01.009c-.287.24-.476.609-.476 1.028v9.719c0 .349.128.678.359.925.231.247.539.383.866.383h15.283c.327 0 .635-.136.866-.383.231-.247.359-.575.359-.925zm-2.353-9.896l-6.495 4.394-6.524-4.394h13.019zm1.128 10.074h-15.283c-.12 0-.166-.05-.166-.177v-9.437l7.544 5.081c.173.116.393.116.565-.001l7.505-5.078v9.435l-.049.125-.118.052z" sketch:type="MSShapeGroup" fill="#D4D4D4"/></svg>
