<svg width="1145" height="269" viewBox="0 0 1145 269" xmlns="http://www.w3.org/2000/svg" xmlns:sketch="http://www.bohemiancoding.com/sketch/ns"><title>Group</title><desc>Created with Sketch.</desc><g id="Group" sketch:type="MSLayerGroup" fill="none"><g stroke="#42AAE6" stroke-opacity=".5" sketch:type="MSShapeGroup" stroke-linecap="square"><path d="M584.277 157.641l93.734-52.606" id="Line"/><path d="M312.5 188.5l117-68" id="Line-2"/><path d="M689.5 103.5l172 65M885.5 168.5l157.45-63.465M1055.692 100.53l65.808 29.97M452.5 123.5l124 37M304.5 193.5l-158-68" id="Line"/><path d="M16.5 162.5l114-37"/><path d="M144.5 121.583h89" id="Line"/><path d="M349 130l23 22"/><path d="M288 144l18 50"/><path d="M296 112l-8 33" id="Line"/><path d="M639 130l35 12"/><path d="M677 147l-5 21"/><path d="M837 99l36 63"/><path d="M872 107l30 19" id="Line-22"/><path d="M902 125l15-30" id="Line-23"/><path d="M960.5 189.5l17.5 4.5" id="Line-21"/><path d="M979 194l13 8"/><path d="M993 204l8-17"/><path d="M917 95l50 41"/><path d="M723 183l4-13"/><path d="M776 139l-45 24"/><path d="M296 112l52 17"/><path d="M296 112l-61 11" id="Line"/><path d="M379 158l63 45" id="Line-6"/><path d="M461 184l-15 17" id="Line-12"/><path d="M472 212l8 13" id="Line-13"/><path d="M466 208l-19-3" id="Line-14"/><path d="M21 170.999l78 38"/><path d="M122 231.999l-19-22"/><path d="M139 203.999l12-25"/><path d="M138 205.999l-33 3"/><path d="M305 193.999l-166 12" id="Line-15"/><path d="M871.5 177.5l88.5 11.5" id="Line"/><path d="M836 99l36 8"/><path d="M575 163l-102 45"/></g><g stroke="#42AAE6" stroke-width=".25" sketch:type="MSShapeGroup" stroke-linecap="square" opacity=".497"><path d="M13.5 165.5l1-54M14.5 111.5l1-54M14.5 111.5l63 31M77.5 142.5l2-59M14.5 111.5l64-27M141 125l-60.5-40.5M193.5 85.5l42 37M296.5 110.5l-103-26M151.5 176.5l-74-34M152.5 176.5l78 22M230.125 199.5v-35M138.5 205.5l-16 25M153.5 176.5l-139-10M79.5 83.5l-64-27M804.5 221.5l-28-83M295.5 110.5l-63 53M303.5 194.5l141 9M439.5 151.125h-66M439.125 152.5v-34M495.5 165.5l4-28M440.5 152.5l55 13M260.5 239.5l60-16M320.5 223.5l-15-28M320.5 223.5l27-25M260.5 240.5l-61-38M348.5 198.5l36 48M384.5 246.5l60-43M347.5 197.5l-8-23M339.5 173.5l-42-63M233.5 163.5l-80 13M296.5 111.5l43-24M340.5 87.5l8 42M373.5 152.5l-33-65M340.5 87.5l98 31M439.5 118.5l49-31M489.5 87.5l9 50M489.5 87.5l55 7M499.5 137.5l44-43M543.5 94.5l35 65M463.5 181.5l-24-29M439.5 152.5l4 51M463.5 181.5l32-17M495.5 164.5l-19 31M463.5 181.5l13 15M476.5 196.5l-6 12M483.5 229.5l12-65M578.5 159.5l15-52M593.5 106.5l40 20M678.5 143.5l-53 26M634.5 126.5l-9 42M625.5 169.5l45 2M678.5 142.5l7-44M633.125 126.5v-40M594.5 106.5l39-20M594.5 106.5l-50-12M545.5 94.5l88-8M633.5 86.5l52 14M729.5 166.5l36 29M721.5 187.5l44 8M765.5 195.5l10-57M729.5 166.5l-46-67M775.5 138.5l62-40M871.5 107.5l1.5 53.5M871.5 106.5l-20-34M851.5 72.5l-13 26M838.5 98.5l-66-17M773.5 81.5l3 57M773.5 81.5l78-9M773.5 81.5l-89 18M872.5 105.5l44-11M966.5 138.5l2-56M916.5 94.5l52-12M901.5 125.5l66 13M901.5 125.5l4-57M905.5 68.5l11 26M905.5 68.5l95 2M968.5 82.5l3-36M971.5 46.5l30 25M1001 71l54.5 31.5M978.5 192.5l22-122M1001.5 188.5l-16-34M961.5 189.5l25 45M993.5 203.5l-7 31M960.5 188.5l28-52M1057.5 102.5l-56 85M1121.5 129.5l-29.5-69.5M1057.5 102.5l34.5-43.5M1122.5 128.5l15-33M678.5 143.5l44 45M766.5 196.5l-34 33M721.5 187.5l11 42M766.5 195.5l37 27M803.5 222.5l-53-10M670.5 171.5l51 15M671.5 171.5l29 71M700.5 242.5l21-56M625.5 169.5l3 59M628.5 228.5l-50-69M628.5 228.5l42-57M624.5 167.5l-31-61M499.5 137.5l15 96M514.5 233.5l64-74M508.5 192.125h40M230.5 200.5l30 39M260.5 239.5l44-43M803.5 221.5l-70 8M701.5 242.5l33-13M629.5 227.5l72 15M1138 15l-10-12M1119 19l8.5-15.5M1085.5 16.5l-84.5 54.5M1091 59l-54-11M988.5 139.5l26 30M1000.5 70.5l34 68M1035.5 139.5l88-10M1108 97l29.5-1.5M1137.5 95.5l-2.5-44.5M1108 98l26.5-46.5M1091.5 59.5l43-8M1134.5 51.5l3.5-36.5M1091.5 59.5l-7-42M1085 17l34.5 1.5M1119.5 18.5l-28 41M1119.5 18.5l14.5 32.5M70.5 266.5l32-58M122.5 230.5l-52 37M70.5 267.5l-55-99M122.5 232.5l137 8M199.5 202.5l-77 30"/></g><g><path d="M1060.851 99.476c-.436-5.354-7.661-7.118-10.614-2.534-1.915-1.057-4.358.187-4.511 2.371-2.1.251-3.727 1.996-3.727 4.113 0 2.289 1.902 4.145 4.248 4.145h13.314c2.346 0 4.248-1.856 4.248-4.145 0-1.851-1.243-3.418-2.959-3.95zM769.643 194.989c-.2-2.455-3.512-3.264-4.866-1.162-.878-.485-1.998.086-2.068 1.087-.963.115-1.709.915-1.709 1.886 0 1.05.872 1.901 1.948 1.901h6.105c1.076 0 1.948-.851 1.948-1.901 0-.849-.57-1.567-1.357-1.811z" id="Oval-397" fill="#DCF2F9" sketch:type="MSShapeGroup"/><path d="M576.04 155.601c-2.24-1.198-5.096.211-5.275 2.687-2.456.284-4.358 2.262-4.358 4.662 0 2.595 2.224 4.698 4.968 4.698h15.569c2.743 0 4.968-2.103 4.968-4.698 0-2.098-1.454-3.874-3.46-4.477-.509-6.068-8.958-8.068-12.411-2.872z" fill="#DCF2F9" sketch:type="MSShapeGroup"/><g transform="translate(672.634 88.62)" sketch:type="MSShapeGroup"><ellipse fill="#F7A696" cx="12.498" cy="12.369" rx="12.498" ry="12.525"/><path d="M18.137 14.801c-3.319-1.286-3.934-1.838-4.032-2.035v-.452c.377-.413.672-.956.857-1.58.276-.229.439-.574.439-.941 0-.251-.076-.49-.22-.697v-1.255c0-1.639-1.011-2.579-2.773-2.579-1.737 0-2.775.964-2.775 2.579v1.255c-.144.207-.219.445-.219.696 0 .367.162.712.438.941.186.624.48 1.167.858 1.581v.452c-.098.197-.712.748-4.032 2.035-.257.1-.429.354-.429.631v1.496c0 .373.3.676.669.676h10.98c.369 0 .669-.303.669-.676v-1.496c0-.279-.173-.532-.429-.631z" fill="#FDFDFD"/></g><g transform="translate(0 149.499)" sketch:type="MSShapeGroup"><ellipse id="Oval-73" fill="#FDE699" cx="14.997" cy="15.03" rx="14.997" ry="15.03"/><path d="M20.636 18.306c-3.319-1.286-3.934-1.838-4.032-2.035v-.452c.377-.413.672-.956.857-1.58.276-.229.439-.574.439-.941 0-.251-.076-.49-.22-.697v-1.255c0-1.639-1.011-2.579-2.773-2.579-1.737 0-2.775.964-2.775 2.579v1.255c-.144.207-.219.445-.219.696 0 .367.162.712.438.941.186.624.48 1.167.858 1.581v.452c-.098.197-.712.748-4.032 2.035-.257.1-.429.354-.429.631v1.496c0 .373.3.676.669.676h10.98c.369 0 .669-.303.669-.676v-1.496c0-.279-.173-.532-.429-.631z" id="Imported-Layers-2" fill="#fff"/></g><g transform="translate(296.2 184.57)" sketch:type="MSShapeGroup"><ellipse id="Oval-73" fill="#D0C8FF" cx="9.373" cy="9.394" rx="9.373" ry="9.394"/><path d="M12.898 11.441c-2.074-.803-2.459-1.149-2.52-1.272v-.282c.236-.258.42-.598.536-.988.173-.143.274-.359.274-.588 0-.157-.047-.306-.137-.435v-.784c0-1.024-.632-1.612-1.733-1.612-1.086 0-1.734.602-1.734 1.612v.785c-.09.129-.137.278-.137.435 0 .229.102.445.274.588.116.39.3.73.536.988v.282c-.061.123-.445.468-2.52 1.272-.16.062-.268.221-.268.395v.935c0 .233.187.423.418.423h6.862c.23 0 .418-.19.418-.423v-.935c0-.174-.108-.333-.268-.395z" id="Imported-Layers-2" fill="#fff"/></g><g sketch:type="MSShapeGroup"><path d="M634.268 120.691c-3.796 0-6.874 3.084-6.874 6.889s3.077 6.889 6.874 6.889c3.796 0 6.874-3.084 6.874-6.889s-3.077-6.889-6.874-6.889" id="Fill-14" fill="#08B5E5"/><path id="Star-1" fill="#fff" d="M634.268 129.512l-2.267 1.194.433-2.529-1.834-1.791 2.534-.369 1.133-2.301 1.133 2.301 2.534.369-1.834 1.791.433 2.529z"/></g><g sketch:type="MSShapeGroup"><path d="M775.94 130.947c-3.833 0-6.94 3.114-6.94 6.955s3.107 6.955 6.94 6.955 6.94-3.114 6.94-6.955-3.107-6.955-6.94-6.955" fill="#AAC68E"/><path d="M778.14 135.357h-1.109l-.735 1.481c-.084.174-.149.337-.194.49-.039-.141-.104-.305-.195-.49l-.72-1.481h-1.109l1.12 2.193h-.94v.768h1.336v.417h-1.336v.768h1.336v.949h1.011v-.949h1.354v-.768h-1.354v-.417h1.354v-.768h-.954l1.134-2.193" fill="#fff"/></g><g transform="translate(423.178 104.146)" sketch:type="MSShapeGroup"><ellipse fill="#ACD6F7" cx="14.997" cy="15.03" rx="14.997" ry="15.03"/><path d="M20.636 18.306c-3.319-1.286-3.934-1.838-4.032-2.035v-.452c.377-.413.672-.956.857-1.58.276-.229.439-.574.439-.941 0-.251-.076-.49-.22-.697v-1.255c0-1.639-1.011-2.579-2.773-2.579-1.737 0-2.775.964-2.775 2.579v1.255c-.144.207-.219.445-.219.696 0 .367.162.712.438.941.186.624.48 1.167.858 1.581v.452c-.098.197-.712.748-4.032 2.035-.257.1-.429.354-.429.631v1.496c0 .373.3.676.669.676h10.98c.369 0 .669-.303.669-.676v-1.496c0-.279-.173-.532-.429-.631z" fill="#fff"/></g><g id="str-5" sketch:type="MSShapeGroup"><path d="M1120.874 123.691c-3.796 0-6.874 3.084-6.874 6.889s3.077 6.889 6.874 6.889c3.796 0 6.874-3.084 6.874-6.889s-3.077-6.889-6.874-6.889" id="Fill-14" fill="#08B5E5"/><path id="Star-1" fill="#fff" d="M1120.874 132.512l-2.267 1.194.433-2.529-1.834-1.791 2.534-.369 1.133-2.301 1.133 2.301 2.534.369-1.834 1.791.433 2.529z"/></g><g sketch:type="MSShapeGroup"><path d="M232.587 157.014c-3.796 0-6.874 3.084-6.874 6.889s3.077 6.889 6.874 6.889c3.796 0 6.874-3.084 6.874-6.889s-3.077-6.889-6.874-6.889" id="Fill-14" fill="#08B5E5"/><path id="Star-1" fill="#fff" d="M232.587 165.835l-2.267 1.194.433-2.529-1.834-1.791 2.534-.369 1.133-2.301 1.133 2.301 2.534.369-1.834 1.791.433 2.529z"/></g><path d="M477.528 228.716c0 2.209 1.791 4 4 4s4-1.791 4-4-1.791-4-4-4-4 1.791-4 4z" id="Stroke-175" fill="#DBE7EA" sketch:type="MSShapeGroup"/><g id="$-4" transform="translate(363.439 144.031)"><ellipse id="Oval-130" fill="#D8D8D8" sketch:type="MSShapeGroup" cx="9.373" cy="9.394" rx="9.373" ry="9.394"/><text id="$" sketch:type="MSTextLayer" font-family="Avenir" font-size="11" font-weight="686" fill="#fff"><tspan x="6.224" y="12.859">$</tspan></text></g><g transform="translate(67.439 134.031)"><ellipse id="Oval-130" fill="#D8D8D8" sketch:type="MSShapeGroup" cx="9.373" cy="9.394" rx="9.373" ry="9.394"/><text sketch:type="MSTextLayer" font-family="Avenir" font-size="11" font-weight="686" fill="#fff"><tspan x="6.224" y="13.859">¥</tspan></text></g><g transform="translate(955.439 126.031)"><ellipse id="Oval-130" fill="#D8D8D8" sketch:type="MSShapeGroup" cx="9.373" cy="9.394" rx="9.373" ry="9.394"/><text id="€" sketch:type="MSTextLayer" font-family="Avenir" font-size="9.5" font-weight="686" fill="#fff"><tspan x="6.224" y="12.859">€</tspan></text></g><g id="bank-icon" transform="translate(130 111)" stroke="#D8D8D8" sketch:type="MSShapeGroup"><circle id="Oval-122" fill="#FEFEFE" cx="13" cy="13" r="13"/><g id="Group"><path d="M6.636 10.17h12.85M6.636 17.413h12.85" id="Path-740"/><path d="M7.509 10.2v7.063M10.804 10.2v7.063M15.196 10.2v7.063M18.491 10.2v7.063" id="Path-742"/><path d="M7.507 10.275l5.837-3.378 5.181 3.343" id="Path-917"/></g></g><g transform="translate(862 158)" stroke="#D8D8D8" sketch:type="MSShapeGroup"><circle fill="#FEFEFE" cx="13" cy="13" r="13"/><g><path d="M6.636 10.17h12.85M6.636 17.413h12.85"/><path d="M7.509 10.2v7.063M10.804 10.2v7.063M15.196 10.2v7.063M18.491 10.2v7.063"/><path d="M7.507 10.275l5.837-3.378 5.181 3.343"/></g></g></g><g><path d="M1040.643 46.989c-.2-2.455-3.512-3.264-4.866-1.162-.878-.485-1.998.086-2.068 1.087-.963.115-1.709.915-1.709 1.886 0 1.05.872 1.901 1.948 1.901h6.105c1.076 0 1.948-.851 1.948-1.901 0-.849-.57-1.567-1.357-1.811zM351.643 196.989c-.2-2.455-3.512-3.264-4.866-1.162-.878-.485-1.998.086-2.068 1.087-.963.115-1.709.915-1.709 1.886 0 1.05.872 1.901 1.948 1.901h6.105c1.076 0 1.948-.851 1.948-1.901 0-.849-.57-1.567-1.357-1.811zM74.643 264.989c-.2-2.455-3.512-3.264-4.866-1.162-.878-.485-1.998.086-2.068 1.087-.963.115-1.709.915-1.709 1.886 0 1.05.872 1.901 1.948 1.901h6.105c1.076 0 1.948-.851 1.948-1.901 0-.849-.57-1.567-1.357-1.811zM548.372 93.536c-.24-3.093-4.215-4.112-5.84-1.464-1.054-.61-2.398.108-2.482 1.37-1.155.145-2.05 1.153-2.05 2.376 0 1.323 1.046 2.395 2.337 2.395h7.325c1.291 0 2.337-1.072 2.337-2.395 0-1.069-.684-1.974-1.628-2.282zM21.287 110.432c-.4-5.302-7.025-7.05-9.733-2.509-1.756-1.047-3.996.185-4.137 2.348-1.926.249-3.417 1.977-3.417 4.073 0 2.267 1.744 4.105 3.895 4.105h12.209c2.151 0 3.895-1.838 3.895-4.105 0-1.833-1.14-3.385-2.713-3.912zM779.101 79.916c-.28-3.535-4.917-4.7-6.813-1.673-1.229-.698-2.797.123-2.896 1.565-1.348.166-2.392 1.318-2.392 2.716 0 1.512 1.221 2.737 2.727 2.737h8.546c1.506 0 2.727-1.225 2.727-2.737 0-1.222-.798-2.257-1.899-2.608z" fill="#DCF2F9" sketch:type="MSShapeGroup"/><g id="str-5" sketch:type="MSShapeGroup"><path d="M508.5 189c-1.933 0-3.5 1.567-3.5 3.5s1.567 3.5 3.5 3.5 3.5-1.567 3.5-3.5-1.567-3.5-3.5-3.5" id="Fill-14" fill="#08B5E5"/><path id="Star-1" fill="#fff" d="M508.5 193.482l-1.154.607.22-1.285-.934-.91 1.29-.187.577-1.169.577 1.169 1.29.187-.934.91.22 1.285z"/></g><g id="str-5" sketch:type="MSShapeGroup"><path d="M750.5 209c-1.933 0-3.5 1.567-3.5 3.5s1.567 3.5 3.5 3.5 3.5-1.567 3.5-3.5-1.567-3.5-3.5-3.5" id="Fill-14" fill="#08B5E5"/><path id="Star-1" fill="#fff" d="M750.5 213.482l-1.154.607.22-1.285-.934-.91 1.29-.187.577-1.169.577 1.169 1.29.187-.934.91.22 1.285z"/></g><g id="str-5" sketch:type="MSShapeGroup"><path d="M340.5 84c-1.933 0-3.5 1.567-3.5 3.5s1.567 3.5 3.5 3.5 3.5-1.567 3.5-3.5-1.567-3.5-3.5-3.5" id="Fill-14" fill="#08B5E5"/><path id="Star-1" fill="#fff" d="M340.5 88.482l-1.154.607.22-1.285-.934-.91 1.29-.187.577-1.169.577 1.169 1.29.187-.934.91.22 1.285z"/></g><g sketch:type="MSShapeGroup"><path d="M200.5 199c-1.933 0-3.5 1.567-3.5 3.5s1.567 3.5 3.5 3.5 3.5-1.567 3.5-3.5-1.567-3.5-3.5-3.5" fill="#08B5E5"/><path fill="#fff" d="M200.5 203.482l-1.154.607.22-1.285-.934-.91 1.29-.187.577-1.169.577 1.169 1.29.187-.934.91.22 1.285z"/></g><g id="$-3" transform="translate(484 84)"><circle id="Oval-130" fill="#D8D8D8" sketch:type="MSShapeGroup" cx="5" cy="5" r="5"/><text id="$" sketch:type="MSTextLayer" font-family="Avenir" font-size="6" font-weight="686" fill="#fff"><tspan x="3.333" y="7">$</tspan></text></g><g id="$-3" transform="translate(509 226)"><circle id="Oval-130" fill="#D8D8D8" sketch:type="MSShapeGroup" cx="5" cy="5" r="5"/><text id="$" sketch:type="MSTextLayer" font-family="Avenir" font-size="6" font-weight="686" fill="#fff"><tspan x="3.333" y="7">$</tspan></text></g><g id="$-3" transform="translate(253 235)"><circle id="Oval-130" fill="#D8D8D8" sketch:type="MSShapeGroup" cx="5" cy="5" r="5"/><text id="€" sketch:type="MSTextLayer" font-family="Avenir" font-size="5.5" font-weight="686" fill="#fff"><tspan x="3.333" y="7">€</tspan></text></g><g id="$-3" transform="translate(489 160)"><circle id="Oval-130" fill="#D8D8D8" sketch:type="MSShapeGroup" cx="5" cy="5" r="5"/><text id="€" sketch:type="MSTextLayer" font-family="Avenir" font-size="5.5" font-weight="686" fill="#fff"><tspan x="3.333" y="7">€</tspan></text></g><g id="$-3" transform="translate(589 102)"><circle id="Oval-130" fill="#D8D8D8" sketch:type="MSShapeGroup" cx="5" cy="5" r="5"/><text id="€" sketch:type="MSTextLayer" font-family="Avenir" font-size="5.5" font-weight="686" fill="#fff"><tspan x="3.333" y="7">€</tspan></text></g><g id="$-3" transform="translate(1135 10)"><circle id="Oval-130" fill="#D8D8D8" sketch:type="MSShapeGroup" cx="5" cy="5" r="5"/><text sketch:type="MSTextLayer" font-family="Avenir" font-size="5.5" font-weight="686" fill="#fff"><tspan x="3.333" y="7">€</tspan></text></g><g id="$-3" transform="translate(74 80)"><circle id="Oval-130" fill="#D8D8D8" sketch:type="MSShapeGroup" cx="5" cy="5" r="5"/><text id="$" sketch:type="MSTextLayer" font-family="Avenir" font-size="6" font-weight="686" fill="#fff"><tspan x="3.333" y="7">$</tspan></text></g><g transform="translate(35 207)"><circle fill="#D8D8D8" sketch:type="MSShapeGroup" cx="5" cy="5" r="5"/><text sketch:type="MSTextLayer" font-family="Avenir" font-size="6" font-weight="686" fill="#fff"><tspan x="3.333" y="7">$</tspan></text></g><path d="M239 122.947c0 2.209-1.791 4-4 4s-4-1.791-4-4 1.791-4 4-4 4 1.791 4 4z" fill="#FDE699" sketch:type="MSShapeGroup"/><path d="M291.762 145.358c0 2.209-1.791 4-4 4s-4-1.791-4-4 1.791-4 4-4 4 1.791 4 4z" fill="#DBE7EA" sketch:type="MSShapeGroup"/><path d="M352 129.947c0 2.209-1.791 4-4 4s-4-1.791-4-4 1.791-4 4-4 4 1.791 4 4z" fill="#F7A696" sketch:type="MSShapeGroup"/><path d="M299.762 112c0 2.209-1.791 4-4 4s-4-1.791-4-4 1.791-4 4-4 4 1.791 4 4z" fill="#ACD7F7" sketch:type="MSShapeGroup"/><path d="M731.762 166c0 2.209-1.791 4-4 4s-4-1.791-4-4 1.791-4 4-4 4 1.791 4 4zM1112.762 97c0 2.209-1.791 4-4 4s-4-1.791-4-4 1.791-4 4-4 4 1.791 4 4z" fill="#ACD7F7" sketch:type="MSShapeGroup"/><path d="M724.762 187.07c0 2.209-1.791 4-4 4s-4-1.791-4-4 1.791-4 4-4 4 1.791 4 4zM1139 52.07c0 2.209-1.791 4-4 4s-4-1.791-4-4 1.791-4 4-4 4 1.791 4 4z" fill="#F7A696" sketch:type="MSShapeGroup"/><path d="M681.762 143c0 2.209-1.791 4-4 4s-4-1.791-4-4 1.791-4 4-4 4 1.791 4 4z" fill="#DBE7EA" sketch:type="MSShapeGroup"/><path d="M670 175.488c-2.209 0-4-1.791-4-4s1.791-4 4-4 4 1.791 4 4-1.791 4-4 4zM906 73.488c-2.209 0-4-1.791-4-4s1.791-4 4-4 4 1.791 4 4-1.791 4-4 4z" fill="#FDE699" sketch:type="MSShapeGroup"/><path d="M920.762 95c0 2.209-1.791 4-4 4s-4-1.791-4-4 1.791-4 4-4 4 1.791 4 4z" id="Stroke-174" fill="#ACD7F7" sketch:type="MSShapeGroup"/><path d="M905 125.947c0 2.209-1.791 4-4 4s-4-1.791-4-4 1.791-4 4-4 4 1.791 4 4z" id="Stroke-165" fill="#F7A696" sketch:type="MSShapeGroup"/><path d="M875.478 107c0 2.209-1.791 4-4 4s-4-1.791-4-4 1.791-4 4-4 4 1.791 4 4zM1122.478 19c0 2.209-1.791 4-4 4s-4-1.791-4-4 1.791-4 4-4 4 1.791 4 4z" id="Stroke-169" fill="#DBE7EA" sketch:type="MSShapeGroup"/><path d="M840.5 99c0 2.209-1.791 4-4 4s-4-1.791-4-4 1.791-4 4-4 4 1.791 4 4z" id="Stroke-171" fill="#FDE699" sketch:type="MSShapeGroup"/><path d="M1002.88 187.54c0 1.133-.906 2.051-2.022 2.051-1.117 0-2.022-.919-2.022-2.051 0-1.133.905-2.051 2.022-2.051 1.117 0 2.022.918 2.022 2.051zM805.88 221.54c0 1.133-.906 2.051-2.022 2.051-1.117 0-2.022-.919-2.022-2.051 0-1.133.905-2.051 2.022-2.051 1.117 0 2.022.918 2.022 2.051zM853.88 72.54c0 1.133-.906 2.051-2.022 2.051-1.117 0-2.022-.919-2.022-2.051 0-1.133.905-2.051 2.022-2.051 1.117 0 2.022.918 2.022 2.051zM627.88 169.54c0 1.133-.906 2.051-2.022 2.051-1.117 0-2.022-.919-2.022-2.051 0-1.133.905-2.051 2.022-2.051 1.117 0 2.022.918 2.022 2.051zM196.88 85.54c0 1.133-.906 2.051-2.022 2.051-1.117 0-2.022-.919-2.022-2.051 0-1.133.905-2.051 2.022-2.051 1.117 0 2.022.918 2.022 2.051z" id="Stroke-174" fill="#ACD7F7" sketch:type="MSShapeGroup"/><path d="M989.88 138.54c0 1.133-.906 2.051-2.022 2.051-1.117 0-2.022-.919-2.022-2.051 0-1.133.905-2.051 2.022-2.051 1.117 0 2.022.918 2.022 2.051zM1093.88 59.54c0 1.133-.906 2.051-2.022 2.051-1.117 0-2.022-.919-2.022-2.051 0-1.133.905-2.051 2.022-2.051 1.117 0 2.022.918 2.022 2.051z" id="Stroke-174" fill="#D6E2E5" sketch:type="MSShapeGroup"/><path d="M1140.045 95.54c0 1.133-.906 2.051-2.022 2.051-1.117 0-2.022-.919-2.022-2.051 0-1.133.905-2.051 2.022-2.051 1.117 0 2.022.918 2.022 2.051z" fill="#D0C8FF" sketch:type="MSShapeGroup"/><path d="M992.888 205.461c-1.117 0-2.022-.919-2.022-2.051 0-1.133.905-2.051 2.022-2.051 1.117 0 2.022.918 2.022 2.051s-.906 2.051-2.022 2.051zM1034.888 140.461c-1.117 0-2.022-.919-2.022-2.051 0-1.133.905-2.051 2.022-2.051 1.117 0 2.022.918 2.022 2.051s-.906 2.051-2.022 2.051zM967.888 84.461c-1.117 0-2.022-.919-2.022-2.051 0-1.133.905-2.051 2.022-2.051 1.117 0 2.022.918 2.022 2.051s-.906 2.051-2.022 2.051z" fill="#F7A696" sketch:type="MSShapeGroup"/><path d="M979.983 193.694c0 1.133-.906 2.051-2.022 2.051-1.117 0-2.022-.919-2.022-2.051 0-1.133.905-2.051 2.022-2.051 1.117 0 2.022.918 2.022 2.051z" id="Stroke-169" fill="#DBE7EA" sketch:type="MSShapeGroup"/><path d="M987.983 233.694c0 1.133-.906 2.051-2.022 2.051-1.117 0-2.022-.919-2.022-2.051 0-1.133.905-2.051 2.022-2.051 1.117 0 2.022.918 2.022 2.051zM987.983 155.694c0 1.133-.906 2.051-2.022 2.051-1.117 0-2.022-.919-2.022-2.051 0-1.133.905-2.051 2.022-2.051 1.117 0 2.022.918 2.022 2.051z" id="Stroke-169" fill="#D0C8FF" sketch:type="MSShapeGroup"/><path d="M973.983 46.694c0 1.133-.906 2.051-2.022 2.051-1.117 0-2.022-.919-2.022-2.051 0-1.133.905-2.051 2.022-2.051 1.117 0 2.022.918 2.022 2.051z" fill="#DBE7EA" sketch:type="MSShapeGroup"/><path d="M962.298 189.591c0 1.133-.906 2.051-2.022 2.051-1.117 0-2.022-.919-2.022-2.051 0-1.133.905-2.051 2.022-2.051 1.117 0 2.022.918 2.022 2.051zM1016.298 168.591c0 1.133-.906 2.051-2.022 2.051-1.117 0-2.022-.919-2.022-2.051 0-1.133.905-2.051 2.022-2.051 1.117 0 2.022.918 2.022 2.051zM1130.298 2.591c0 1.133-.906 2.051-2.022 2.051-1.117 0-2.022-.919-2.022-2.051 0-1.133.905-2.051 2.022-2.051 1.117 0 2.022.918 2.022 2.051zM1002.298 70.591c0 1.133-.906 2.051-2.022 2.051-1.117 0-2.022-.919-2.022-2.051 0-1.133.905-2.051 2.022-2.051 1.117 0 2.022.918 2.022 2.051z" fill="#FDE699" sketch:type="MSShapeGroup"/><path d="M384.888 248.461c-1.117 0-2.022-.919-2.022-2.051 0-1.133.905-2.051 2.022-2.051 1.117 0 2.022.918 2.022 2.051s-.906 2.051-2.022 2.051z" fill="#F7A696" sketch:type="MSShapeGroup"/><path d="M232.983 199.694c0 1.133-.906 2.051-2.022 2.051-1.117 0-2.022-.919-2.022-2.051 0-1.133.905-2.051 2.022-2.051 1.117 0 2.022.918 2.022 2.051z" fill="#DBE7EA" sketch:type="MSShapeGroup"/><path d="M322.298 222.591c0 1.133-.906 2.051-2.022 2.051-1.117 0-2.022-.919-2.022-2.051 0-1.133.905-2.051 2.022-2.051 1.117 0 2.022.918 2.022 2.051z" id="Stroke-178" fill="#FDE699" sketch:type="MSShapeGroup"/><path d="M341.298 172.591c0 1.133-.906 2.051-2.022 2.051-1.117 0-2.022-.919-2.022-2.051 0-1.133.905-2.051 2.022-2.051 1.117 0 2.022.918 2.022 2.051zM442.298 152.591c0 1.133-.906 2.051-2.022 2.051-1.117 0-2.022-.919-2.022-2.051 0-1.133.905-2.051 2.022-2.051 1.117 0 2.022.918 2.022 2.051z" id="Stroke-178" fill="#DBE7EA" sketch:type="MSShapeGroup"/><path d="M478.298 196.591c0 1.133-.906 2.051-2.022 2.051-1.117 0-2.022-.919-2.022-2.051 0-1.133.905-2.051 2.022-2.051 1.117 0 2.022.918 2.022 2.051z" id="Stroke-178" fill="#ACD6F7" sketch:type="MSShapeGroup"/><path d="M548.275 196.642c-1.117 0-2.022-.919-2.022-2.051 0-1.133.905-2.051 2.022-2.051 1.117 0 2.022.918 2.022 2.051s-.906 2.051-2.022 2.051z" id="Stroke-178" fill="#D0C8FF" sketch:type="MSShapeGroup"/><path d="M630.298 227.591c0 1.133-.906 2.051-2.022 2.051-1.117 0-2.022-.919-2.022-2.051 0-1.133.905-2.051 2.022-2.051 1.117 0 2.022.918 2.022 2.051z" id="Stroke-178" fill="#DBE7EA" sketch:type="MSShapeGroup"/><path d="M636.298 86.591c0 1.133-.906 2.051-2.022 2.051-1.117 0-2.022-.919-2.022-2.051 0-1.133.905-2.051 2.022-2.051 1.117 0 2.022.918 2.022 2.051z" id="Stroke-178" fill="#D0C8FF" sketch:type="MSShapeGroup"/><path d="M703.298 242.591c0 1.133-.906 2.051-2.022 2.051-1.117 0-2.022-.919-2.022-2.051 0-1.133.905-2.051 2.022-2.051 1.117 0 2.022.918 2.022 2.051zM735.298 229.591c0 1.133-.906 2.051-2.022 2.051-1.117 0-2.022-.919-2.022-2.051 0-1.133.905-2.051 2.022-2.051 1.117 0 2.022.918 2.022 2.051z" id="Stroke-178" fill="#DBE7EA" sketch:type="MSShapeGroup"/><path d="M1086.298 17.591c0 1.133-.906 2.051-2.022 2.051-1.117 0-2.022-.919-2.022-2.051 0-1.133.905-2.051 2.022-2.051 1.117 0 2.022.918 2.022 2.051z" id="Stroke-178" fill="#D0C8FF" sketch:type="MSShapeGroup"/><path d="M501.298 137.591c0 1.133-.906 2.051-2.022 2.051-1.117 0-2.022-.919-2.022-2.051 0-1.133.905-2.051 2.022-2.051 1.117 0 2.022.918 2.022 2.051z" fill="#DBE7EA" sketch:type="MSShapeGroup"/><path d="M439.528 203.716c0 2.209 1.791 4 4 4s4-1.791 4-4-1.791-4-4-4-4 1.791-4 4z" id="Stroke-176" fill="#ACD7F7" sketch:type="MSShapeGroup"/><path d="M466.158 208.716c0 2.209 1.791 4 4 4s4-1.791 4-4-1.791-4-4-4-4 1.791-4 4z" id="Stroke-166" fill="#F7A696" sketch:type="MSShapeGroup"/><path d="M459.158 181.716c0 2.209 1.791 4 4 4s4-1.791 4-4-1.791-4-4-4-4 1.791-4 4z" id="Stroke-172" fill="#FDE699" sketch:type="MSShapeGroup"/><path d="M98.528 209.773c0-2.209 1.791-4 4-4s4 1.791 4 4-1.791 4-4 4-4-1.791-4-4zM11.528 58.773c0-2.209 1.791-4 4-4s4 1.791 4 4-1.791 4-4 4-4-1.791-4-4z" fill="#ACD7F7" sketch:type="MSShapeGroup"/><path d="M134.158 205.773c0-2.209 1.791-4 4-4s4 1.791 4 4-1.791 4-4 4-4-1.791-4-4z" fill="#F7A696" sketch:type="MSShapeGroup"/><path d="M147.528 177.773c0-2.209 1.791-4 4-4s4 1.791 4 4-1.791 4-4 4-4-1.791-4-4z" fill="#DBE7EA" sketch:type="MSShapeGroup"/><path d="M118.158 231.773c0-2.209 1.791-4 4-4s4 1.791 4 4-1.791 4-4 4-4-1.791-4-4z" fill="#FDE699" sketch:type="MSShapeGroup"/></g></g></svg>