<svg xmlns="http://www.w3.org/2000/svg" width="785.206" height="329.45" viewBox="0 0 785.20581 329.44965"><title>stellar.org half planet</title><defs><filter x="-.5" y="-.5" width="2" height="2" filterUnits="objectBoundingBox" id="b"><feGaussianBlur stdDeviation="50" in="SourceGraphic" result="blur"/></filter><clipPath id="a"><path fill="#00f" fill-rule="evenodd" stroke="#000" d="M0-1.053h785.206v329.45H0z"/></clipPath></defs><g clip-path="url(#a)" transform="translate(0 1.053)" fill="none" fill-rule="evenodd"><g transform="translate(29 50)"><g stroke="#fff" stroke-width="2"><path d="M523.395 417.917L604.46 376.7l17.534-55.308-38.683-13.096 25.686-33.695-27.636-11.37 10.745-29.87-35.403 4.39 9.827-43.19-40.532 8.2 8.374-38.763-39.802 12.943 3.72-37.962-37.966 6.296 3.176-24.94-29.276 3.823-21.953-18.915-10.447 23.012-18.408-26.833-21.678 27.427-20.498-27.935-17.978 32.665-22.827-22.942-21.338 44.41-30.304-27.954-5.642 45.368-40.448-16.46-7.826 49.644-45.067 8.25 44.384 24.798 13.778 32.264 9.787 19.292 9.094 28.468-33.783 32.406-53.346 41.63-5.948-24.85 53.11-16.192 45.868 5.814-34.417 26.85 17.91 25.212-27-5.84-24.025 23.166 40.424 11.83-41.81 21.105-33.057-15.284-1.86 40.514 32.004-21.123-23.957 37.088 29.433-11.84 17.262-6.945 26.812 16.603 13.136 26.765-61.355 11.056" stroke-linecap="square" stroke-dasharray="2,6"/><path d="M602.508 378.06l-7.04-31.914-13.132-35.953-1.765-45.688-23.887-25.32L525.4 203.46l-32.228-25.09-33.477-31.45-25.343-20.927-32.983 3.29-40.964 1.264-38.377 3.982-43.466 21.666-35.998 17.45-49.185 33.862-.498 31.5 46.29-20.453 33.892-23.172 28.378-21.728 51.332-14.212 42.44-1.065 44.355-13.055" stroke-linecap="square" stroke-dasharray="2,6"/><path d="M459.513 147.812l-7.63 29.54 41.902 1.334-10.915 31.32 42.225-5.535-8.832 32.424 39.466 2.482-11.18 28.202 35.65-1.975-26.642 35.72 28.64 9.206-17.783 27.142 31.074 8.058-25.588 28.968 33.363 3.042" stroke-linecap="square" stroke-dasharray="2,6"/><path d="M450 176l31.854 33.504 32.81 27.476 29.96 30.915 8.168 33.782 10.15 35.633 4.7 36.35M432.182 122.508l5.553 21.564-37.933-16.642-6.163 28.94-33.752-28.258-9.22 29.23-27.07-23.384-23.376 37.758-21.19-17.868-5.528 39.005-32.84-20.45-2.58 44.065-43.913-12.208" stroke-linecap="square" stroke-dasharray="2,6"/><path d="M523 417.81l2.9-4.117 5.822-31.514 6.06-32.987-29.182-30-35.275-44.06-27.89-61.418 6.66-36.715" stroke-linecap="square" stroke-dasharray="2,6"/><path d="M532.098 381.983l36.76-8.748-31.077-22.674 25.48-13.63-55.142-18.053 44.796-16.79-40.306-11.834 31.53-23.416-39.78-5.59 11.397-24.293-29.85-1.694-2.945-24.42-36.67 3.373M493 389.42l5.876-33.612-25.92-26.54-25.596-43.394-19.868-17.094L444.837 214" stroke-linecap="square" stroke-dasharray="2,6"/><path d="M492.714 389.52l40.06-8.61-32.882-24.894M537.765 349.12l-39.245 5.297 10.088-35.336-37.397 7.902 1.435-52.106L428 267M416.674 191.086l-35.492-.318-39.484-8.705L300 173M390.442 214.684l-44.793-2.537-32.036-12.048L274 193" stroke-linecap="square" stroke-dasharray="2,6"/><path d="M415.962 190.962l-21.46-32.07-13.296 31.928-29.807-31.865-10.292 22.356M508.103 317.363l4.504-27.108-8-29.78-18.635-25.16L444 213.5M512.883 289.58L473 274.5M502.89 260.502l-30.945 14.402M484.847 236L471 274.017M519.83 412.562l-82.95-66.702 9.895-60.86" stroke-linecap="square" stroke-dasharray="2,6"/><path d="M438.286 145l-22.337 44.852L317 288.926M471.88 389.028l-40.897-22.868-41.015-22.06-36.06-29.74L318 288.5" stroke-linecap="square" stroke-dasharray="2,6"/><path d="M473.055 387.66l6.8 27.94-30.368 1.417-12.596-19.683-37.083 10.356-28.985 30.05-29.097 21.583-24.214 14.664-33.165 9.43-42.34 14.914L212 497.5" stroke-linecap="square" stroke-dasharray="2,6"/><path d="M428.9 364.47l6.267 31.822-50.87-17.273 13.614 28.356-35.732 1.303 8.337 28.294-48.005-6.8-7.058 44.37-29.212-29.99-6.226 39.137-31.62-19.6-7.584 33.437-24.438-26.98-5.9 27.592" stroke-linecap="square" stroke-dasharray="2,6"/><path d="M428.35 365.96l-45.725 11.952-22.843 31.045-38.775 20.827-36.25 14.264-36.295 19.68-32.867 7.064L183 481" stroke-linecap="square" stroke-dasharray="2,6"/><path d="M389.262 342.847l-7.935 35.77-44.425-24.002-12.118 33.565-30.202 23.76-48.178 17.83-41.314 8.082M351.894 313l-16.69 40.813-48.705 12.065-27.13 29.675-42.803 13.054M350.887 313.115L265.7 328.81l-33.683 26.416" stroke-linecap="square" stroke-dasharray="2,6"/><path d="M336.397 355.857l-30.02-33.956-20.454 43.635L234 356.5l25.47 38.64 36.697 15.056 25.73 17.918 20.002 30.058M316.906 288.187l-36.767 3.48-28.78 10.114-25.94 15.945" stroke-linecap="square" stroke-dasharray="2,6"/><path d="M315.9 288.41l-11.906 33.49-23.324-29.23-15.918 35.15-12.794-24.373M450.715 417.758l-65.797 44.906-43.17-3.005 7.285 39.588 19.98 35.454-17.793 36.38 19.437 24.606L363 629.832M206.275 269.684l-50.193-8.936-6.905-47.01M102.215 367.317l29.72-2.114-28.89-17.855 30.195-37.7 55.872 38.18M160.25 373.93l-28.322-9.054M473.073 388.698l-36.177 9.34" stroke-linecap="square" stroke-dasharray="2,6"/><path d="M436.913 399.753l-4.894 30.2-33.738-20.9 15.25 33.478-43.4-3.876L382 464.64M317.398 473.69l32.692 25.807-37.864 1.747-29.253-19.138-3.084 33.28-36.83-18.757 10.492 37.668-28.132-12.064-2.36 28.76-27.305-21.9-9.19 29.17M210.972 496l-42.798-9.957-5.674 46M384.602 379.053l-60.364 9.447M360.01 407.7l-76.104-43.818M329.912 385.023l-8.115 43.945M285.502 365l11.068 45.036-10.675 33.257L246.1 428.24l1.428 34.225-44.345-25.63L217 469.176l-54.83-11.793 22.227 22.095" stroke-linecap="square" stroke-dasharray="2,6"/><path d="M258.66 394.727l-12.797 32.703-29.49-19.925-13.74 30.178M231.64 357L215 408.177M264.67 327.994l-38.922-10.854L231 355.677M284.512 366.616l-18.768-36.507M198.54 381.356l-30.42 15.755-6.12 58.96M498.07 354.775l-38.582 10.042 13.184-35.73L437 345M350.106 500.76l-13.328 17.983L312.17 501.5l-4.726 31.04-28.413-17.09 1.742 38.254-27.44-18.518-5.533 36.34-25.145-18.883-9.632 28.68" stroke-linecap="square" stroke-dasharray="2,6"/><path d="M369.717 596.406l-44.608-4.05-36.99.25-35.08 12.122-5.46-32.484L211 579.5M367.533 534.847l-34.75 13.17L307 534M350.033 570.3l-39.245-3.196L280 553M311.722 474l-4.222 26.687" stroke-linecap="square" stroke-dasharray="2,6"/><path d="M367.387 534.713l-29.944-15.485-30.81 13.61-26.62 20.427-33.974 19.267" stroke-linecap="square" stroke-dasharray="2,6"/><path d="M361.988 630.073l-20.454-17.4-16.543-18.994-12.01-25.068L306.125 533" stroke-linecap="square" stroke-dasharray="2,6"/><path d="M407.07 99.29c-143.846-22.736-279.352 77.897-302.66 224.77C81.1 470.934 178.81 608.43 322.656 631.167c143.845 22.736 279.35-77.896 302.66-224.77 23.31-146.873-74.404-284.37-218.248-307.106z" stroke-linecap="square" stroke-dasharray="2,6"/><path d="M350.297 571.707l-16.103-22.586 1.662-29.12M332.694 548L287.5 593.722M369.174 597.88l-26.464 14.344-40.097 9.906-13.57-28.326L248 572M279.91 552.838l9.607 40.64M193.03 530.12l-23.135-42.07M309.908 500.08l-31.67 14.25-25.03 19.88-32.226 17.982L184 558" stroke-linecap="square" stroke-dasharray="2,6"/><path d="M350.024 572l-26.093 22.038L302 622.82M202 435.177L189.196 401M389.962 215.937l-8.082-25.152-37.26 21.048-3.54-29.823-28.58 18.606-9.93-27.755M345.22 212.653l12.03 33.44-32.494-8.997-30.523-11.73-26.97 13.413-29.337 4.576L193 237" stroke-linecap="square" stroke-dasharray="2,6"/><path d="M343.703 211.832l-19.886 24.63-11.33-37.06-18.663 26.388-19.673-32.245-9.8 46.173-26.79-21.034-1.707 24.347M323.137 238.386l11.89 30.52-42.22-9.973-39.32 10.584L206 269.5" stroke-linecap="square" stroke-dasharray="2,6"/><path d="M323.95 239.358L293 259.748l1.232-33.042M317.187 287.89l-23.758-26.926L265 239.5" stroke-linecap="square" stroke-dasharray="2,6"/><path d="M292.267 259.367l-12.664 31.594-24.97-21.35L217 289" stroke-linecap="square" stroke-dasharray="2,6"/><path d="M264.158 239l-10.753 30.565-2.19 33.488-33.4-12.32" stroke-linecap="square" stroke-dasharray="2,6"/><path d="M253.64 269.713l-16.765-27.27-29.73 26.736M192.816 238.67l-36.26 21.197M193.473 351.265l3.608 30.25M425.43 579.068l23.37-13.334-19.717-12.865 25.87-10.67M410.715 605.795l-21.78 4.34L393 585.523l12.618-17.2 9.525 15.208-4.428 22.265z" stroke-linecap="square" stroke-dasharray="2,6"/><path d="M409.516 605.91L392 586l21.865-2.128M471.608 327.58l-28.82-9.92M479.608 416.04l-41.748-16.31M472.36 274.657l-26.25 10.535M217.266 288.33L168 311l23.387 38.46M224.37 316.024L106 307M188.672 399.764l-47.043-7.48M165.318 423.472L139.122 390.1M164.828 424.644l-34.41 16.402M197.097 382.517l-38.115-8.017M450.41 176.33L415 191M442.045 212.877l-52.703 2.716M441.318 214.88l-26.026-23.08M425.38 267.156l-36.698-51.56M425.036 267.487L359.1 251.283M390.57 215.29l-.685 40.812M492.68 388.335l-20.59.34M459.594 364.61l11.768 24.383M524.416 416.674l-43.91-.053M491.785 390L480 417.588M441.068 314.968l-49.125-57.086M445.65 284.785l-24.812 7.023 5.28-23.46M483.63 235.66l-24.624 8.15L431 254.5M352.062 314l29.438 64.988M391.274 345.933l46.507-1.447M320.536 291.803l100.344-.2M336 269.5l16.474 20.506 37.385-33.22-.21 33.7M389.922 343.202l51.673-28.5-52.548-23.93" stroke-linecap="square" stroke-dasharray="2,6"/><path d="M352.4 314.51l1.854-25.085 36.484 53.992-.344-53.096" stroke-linecap="square" stroke-dasharray="2,6"/><path d="M389.157 531.213c-3.24-.506-6.298 1.762-6.83 5.067-.53 3.304 1.668 6.393 4.908 6.9 3.24.506 6.298-1.763 6.83-5.067.53-3.305-1.667-6.394-4.908-6.9zM576.157 588.213c-3.24-.506-6.298 1.762-6.83 5.067-.53 3.304 1.668 6.393 4.908 6.9 3.24.506 6.298-1.763 6.83-5.067.53-3.305-1.667-6.394-4.908-6.9z" fill="#d8d8d8"/><path d="M157.14 259.526L117 270M117 270l51.285 40.828M168.5 312.222L207.63 270M135.5 365.435L133.517 310M140.58 390.32L102 389.5" stroke-linecap="square" stroke-dasharray="2,6"/></g><ellipse cx="362.5" cy="310.5" rx="254.5" ry="222.5" opacity=".322" fill="#fff" filter="url(#b)"/><circle cx="319.5" cy="231.5" r="9.5" fill="#fde699" stroke="#5b6a72" stroke-width="2"/><circle cx="237.5" cy="173.5" r="9.5" fill="#f7a696" stroke="#5b6a72" stroke-width="2"/><circle cx="452.5" cy="177.5" r="9.5" fill="#fff" stroke="#5b6a72" stroke-width="2"/><circle cx="237.5" cy="241.5" r="9.5" fill="#d0c8ff" stroke="#5b6a72" stroke-width="2"/><circle cx="521.5" cy="201.5" r="9.5" fill="#f7a696" stroke="#5b6a72" stroke-width="2"/><circle cx="300.5" cy="105.5" r="9.5" fill="#dcf2f9" stroke="#5b6a72" stroke-width="2"/><circle cx="422.5" cy="260.5" r="9.5" fill="#dcf2f9" stroke="#5b6a72" stroke-width="2"/><circle cx="400.5" cy="122.5" r="9.5" fill="#fde699" stroke="#5b6a72" stroke-width="2"/><circle cx="501.5" cy="132.5" r="9.5" fill="#d0c8ff" stroke="#5b6a72" stroke-width="2"/><circle cx="352.5" cy="158.5" r="9.5" fill="#d0c8ff" stroke="#5b6a72" stroke-width="2"/><circle cx="149.5" cy="209.5" r="9.5" fill="#fff" stroke="#5b6a72" stroke-width="2"/></g></g></svg>