<svg xmlns="http://www.w3.org/2000/svg" width="378" height="378" viewBox="0 0 378 378" version="1.1"><title>grid-globe</title><desc>Created with Sketch.</desc><g stroke="none" stroke-width="1" fill="none" fill-rule="evenodd"><g transform="translate(-475.000000, -188.000000)" stroke-width="1.35"><g transform="translate(663.995789, 376.629763) rotate(-330.000000) translate(-663.995789, -376.629763) translate(475.495789, 189.129763)"><path d="M50.01 42.92L56.93 60.42 36.17 67.84 52.67 86.37 28.18 89.51 44.15 112.29 22.83 114.41 39.87 138.24 20.17 140.89 36.14 160.49 23.36 175.85 45.22 182.2 29.75 201.27 58.51 206.04 44.13 231.99 64.9 236.78 60.64 258.47 85.13 251.59 83 282.33 110.69 272.27 109.09 299.81 135.74 286.57 137.34 313.05 163.43 304.58 163.96 322.06 184.2 316.23 201.79 326.82 206.6 309.87 222.58 326.29 234.83 305.08 252.4 322.03 261.45 297.63 280.11 310.89 290.23 278.06 314.72 293.95 313.66 262.17 344.03 269.05 344.03 234.09 374.92 223.5 340.84 211.32 327.52 190.66 318.47 178.48 308.89 159.92 329.12 133.96 362.14 99.54 369.1 115.96 333.42 132.88 300.41 133.9 321.71 111.7 306.26 96.34 325.97 97.4 340.34 78.86 310.5 75.15 337.66 56.08 362.69 62.97 359.49 34.94 339.26 52.95 352.04 24.85C352.04 24.85 339.07 32.42 332.58 36.2 328.78 38.42 321.17 42.86 321.17 42.86L300.41 34.38 288.16 17.44 330.23 3.13" stroke="#FFFFFF" transform="translate(197.541860, 164.979062) scale(-1, -1) translate(-197.541860, -164.979062) "/><path d="M70.79 14.37L66.53 40.85 58.52 65.72 53.73 92.21 50.5 114.45 59.06 135.64 72.37 158.94 78.76 190.17 98.46 205 124.55 226.19 150.11 239.96 177.27 257.97 197.5 269.62 220.4 263.79 249.15 258.5 275.78 251.61 304 232.01 327.43 216.12 358.31 187.52 355.12 165.81 324.77 184.87 303.47 204.47 285.89 222.48 251.28 237.8 221.46 243.12 191.64 256.89" stroke="#FFFFFF" transform="translate(204.404896, 141.994670) scale(-1, -1) translate(-204.404896, -141.994670) "/><path d="M356.14 268.58L358.27 247.4 328.45 251.1 332.71 228.33 303.43 236.8 306.09 213.5 277.87 216.15 282.66 195.49 257.63 200.79 272.54 173.24 251.24 170.07 260.83 149.41 237.93 147.29 252.84 124.52 228.88 126.1 232.63 103.86 256.61 99.62 236.91 77.91 258.21 77.38 246.5 51.95 264.07 55.66 249.69 26" stroke="#FFFFFF" transform="translate(293.576519, 147.291280) scale(-1, -1) translate(-293.576519, -147.291280) "/><path d="M333.23 238.36L307.11 218.78 281.02 203.42 256.53 185.41 246.94 163.16 235.76 139.86 228.3 115.5 232.01 90.05 233.61 67.84 240 46.66" stroke="#FFFFFF" transform="translate(280.764618, 142.507779) scale(-1, -1) translate(-280.764618, -142.507779) "/><path d="M57.48 99.06L51.09 84.76 79.84 92.17 80.9 71.52 108.02 87.41 111.22 66.22 133.05 79.46 145.3 50.86 162.34 60.92 161.8 33.38 187.39 43.97 184.19 13.25 216.67 16.96" stroke="#FFFFFF" transform="translate(133.878597, 56.156482) scale(-1, -1) translate(-133.878597, -56.156482) "/><path d="M236.94 47.17L251.85 80.03 230.55 67.85 228.44 90.05 250.27 83.17 249.74 105.44 249.21 128.74 273.15 146.22 302.97 172.7 329.55 211.9 329.02 237.83" stroke="#FFFFFF" transform="translate(278.997639, 142.499503) scale(-1, -1) translate(-278.997639, -142.499503) "/><path d="M233.27 67.23L254.04 82.59 229.01 92.65 253.51 104.84 237 117.02 278 123.37 248.18 139.86 278 143.56 258.3 163.14 287.06 162.61 281.69 180.58 302.99 178.46 307.78 194.94 333.34 188.59" stroke="#FFFFFF" transform="translate(281.178543, 131.086964) scale(-1, -1) translate(-281.178543, -131.086964) "/><path d="M222.09 73.59L221.56 97.42 242.86 112.78 265.76 139.79 281.73 149.33 275.34 189.05" stroke="#FFFFFF" transform="translate(251.645337, 131.318690) scale(-1, -1) translate(-251.645337, -131.318690) "/><path d="M307.82 165.71L280.67 175.77 306.72 189.54" stroke="#FFFFFF" transform="translate(294.244207, 177.624719) scale(-1, -1) translate(-294.244207, -177.624719) "/><path d="M221.64 120.16L248.8 112.21 245.6 137.64 271.16 128.1 275.95 164.12 308.39 164.65" stroke="#FFFFFF" transform="translate(265.016764, 138.429803) scale(-1, -1) translate(-265.016764, -138.429803) "/><path d="M122.6 64.54L147.62 60.83 176.38 62.42 206.73 64.01" stroke="#FFFFFF" transform="translate(164.662937, 62.688278) scale(-1, -1) translate(-164.662937, -62.688278) "/><path d="M106.03 82L137.98 78.82 161.96 83.59 190.75 84.12" stroke="#FFFFFF" transform="translate(148.390917, 81.468485) scale(-1, -1) translate(-148.390917, -81.468485) "/><path d="M152.31 44.91L170.95 64.5 176.81 41.17 201.3 59.71 206.09 43.27" stroke="#FFFFFF" transform="translate(179.204377, 52.838859) scale(-1, -1) translate(-179.204377, -52.838859) "/><path d="M227.42 73.55L227.39 92.61 236.45 112.21 252.42 127.53 284.37 138.13" stroke="#FFFFFF" transform="translate(255.882344, 105.835995) scale(-1, -1) translate(-255.882344, -105.835995) "/><path d="M254.55 112.21L284.37 118.57" stroke="#FFFFFF" transform="translate(269.460733, 115.389549) scale(-1, -1) translate(-269.460733, -115.389549) "/><path d="M254.02 112.74L274.25 99.48" stroke="#FFFFFF" transform="translate(264.135875, 105.855651) scale(-1, -1) translate(-264.135875, -105.855651) "/><path d="M253.49 111.7L258.81 84.16" stroke="#FFFFFF" transform="translate(256.148586, 97.933494) scale(-1, -1) translate(-256.148586, -97.933494) "/><path d="M236.98 122.83L303.01 159.9 303.01 202.81" stroke="#FFFFFF" transform="translate(269.993219, 162.816969) scale(-1, -1) translate(-269.993219, -162.816969) "/><path d="M147.52 139.74L158.17 106.41 216.74 27.49" stroke="#FFFFFF" transform="translate(182.133050, 83.612992) scale(-1, -1) translate(-182.133050, -83.612992) "/><path d="M147.01 139.71L178.43 150.88 209.85 161.47 238.6 177.89 266.83 191.66" stroke="#FFFFFF" transform="translate(206.919123, 165.687173) scale(-1, -1) translate(-206.919123, -165.687173) "/><path d="M102.83 295.33L94.84 276.8 116.14 272.56 127.29 284.78 152.31 273.66 169.38 249.82 187.48 231.81 202.92 219.1 225.29 209.04 253.51 194.21 274.81 191.56" stroke="#FFFFFF" transform="translate(184.826679, 243.446479) scale(-1, -1) translate(-184.826679, -243.446479) "/><path d="M102.25 295.95L94.27 274.76 132.07 281.12 119.29 263.11 144.34 258.34 135.29 239.8 169.9 239.27 169.9 208.02 193.86 225.46 193.86 197.9 218.36 207.94 219.96 184.14 240.21 200.03 241.28 180.44" stroke="#FFFFFF" transform="translate(167.772571, 238.192284) scale(-1, -1) translate(-167.772571, -238.192284) "/><path d="M73.07 287.43L103.95 274.19 116.65 250.44 141.68 231.9 165.64 218.13 189.05 200.65 211.41 192.17 233.25 181.58" stroke="#FFFFFF" transform="translate(153.157290, 234.507415) scale(-1, -1) translate(-153.157290, -234.507415) "/><path d="M83.78 255.1L85.37 229.68 119.37 241.33 124.16 216.97 142.8 197.37 174.77 179.89 203 169.85" stroke="#FFFFFF" transform="translate(143.385342, 212.475793) scale(-1, -1) translate(-143.385342, -212.475793) "/><path d="M88.57 233.95L96.02 204.25 129.04 190.48 145.01 167.18 173.77 153.41" stroke="#FFFFFF" transform="translate(131.166247, 193.681103) scale(-1, -1) translate(-131.166247, -193.681103) "/><path d="M94.42 195.25L152.47 175.12 173.23 153.4" stroke="#FFFFFF" transform="translate(133.828677, 174.324682) scale(-1, -1) translate(-133.828677, -174.324682) "/><path d="M109.67 234.5L134.74 254.63 144.36 222.28 182.17 222.81 159.8 198.95 132.11 192.6 111.88 183.06 94.35 164.53" stroke="#FFFFFF" transform="translate(138.256006, 209.577140) scale(-1, -1) translate(-138.256006, -209.577140) "/><path d="M85.79 170.41L111.35 164.06 130.52 153.99 147.02 140.22" stroke="#FFFFFF" transform="translate(116.404324, 155.316886) scale(-1, -1) translate(-116.404324, -155.316886) "/><path d="M102.83 173.02L107.62 148.66 127.32 166.14 134.78 140.18 146.49 155.5" stroke="#FFFFFF" transform="translate(124.657856, 156.601728) scale(-1, -1) translate(-124.657856, -156.601728) "/><path d="M181.06 370.62L222.6 332.49 253.48 329.84 243.9 303.36 225.79 281.11 234.31 254.1 217.8 239.27 219.4 214.9" stroke="#FFFFFF" transform="translate(217.270877, 292.763920) scale(-1, -1) translate(-217.270877, -292.763920) "/><path d="M20.29 107.42L57.03 107.95 67.11 139.69" stroke="#FFFFFF" stroke-dasharray="3" transform="translate(43.700242, 123.556881) scale(-1, -1) translate(-43.700242, -123.556881) "/><path d="M23.57 204.94L2.78 209.73 25.15 218.73" stroke="#FFFFFF" transform="translate(13.963194, 211.832337) scale(-1, -1) translate(-13.963194, -211.832337) "/><path d="M25.12 213.96L46.42 217.12" stroke="#FFFFFF" transform="translate(35.772235, 215.551344) scale(-1, -1) translate(-35.772235, -215.551344) "/><path d="M240.92 202.38L265.32 191.74" stroke="#FFFFFF" transform="translate(253.604718, 197.033898) scale(-1, -1) translate(-253.604718, -197.033898) "/><path d="M199.78 253.73L199.91 232.57 225.89 243.14 211.52 221.95 242.42 219.83 231.24 203.39" stroke="#FFFFFF" transform="translate(221.100200, 228.560108) scale(-1, -1) translate(-221.100200, -228.560108) "/><path d="M108.72 341.13L82.63 326.83 109.26 321.53 132.15 331.6 130.55 308.27 158.78 317.25 147.06 292.36 168.36 297.65 166.76 277.53 188.6 289.71 191.79 268.56" stroke="#FFFFFF" transform="translate(137.210794, 304.845778) scale(-1, -1) translate(-137.210794, -304.845778) "/><path d="M62.93 323.65L94.35 325.77 93.28 293.46" stroke="#FFFFFF" transform="translate(78.637348, 309.615830) scale(-1, -1) translate(-78.637348, -309.615830) "/><path d="M160.91 208.23L202.97 194.45" stroke="#FFFFFF" transform="translate(182.205851, 201.339463) scale(-1, -1) translate(-182.205851, -201.339463) "/><path d="M132.15 197.63L189.62 218.27" stroke="#FFFFFF" transform="translate(160.906416, 207.695395) scale(-1, -1) translate(-160.906416, -207.695395) "/><path d="M164.67 236.3L162.01 207.67" stroke="#FFFFFF" stroke-dasharray="3" transform="translate(163.608365, 221.996243) scale(-1, -1) translate(-163.608365, -221.996243) "/><path d="M68.29 286.64L55.51 256.98 59.36 233.01 89.06 238.97 84.27 215.66 118.35 228.37 105.03 207.72 144.97 209.8 126.87 197.09" stroke="#FFFFFF" transform="translate(100.242546, 241.861634) scale(-1, -1) translate(-100.242546, -241.861634) "/><path d="M82.14 255.96L87.46 232.12 110.48 242.63 116.75 220.43" stroke="#FFFFFF" transform="translate(99.443817, 238.193318) scale(-1, -1) translate(-99.443817, -238.193318) "/><path d="M88 234.24L94.39 197.16" stroke="#FFFFFF" transform="translate(91.190286, 215.702380) scale(-1, -1) translate(-91.190286, -215.702380) "/><path d="M85.87 192.93L114.62 196.1 106.63 170.15" stroke="#FFFFFF" transform="translate(100.242546, 183.128228) scale(-1, -1) translate(-100.242546, -183.128228) "/><path d="M114.09 173.33L131.66 197.19" stroke="#FFFFFF" transform="translate(123.139439, 185.511702) scale(-1, -1) translate(-123.139439, -185.511702) "/><path d="M53.42 273.49L73.26 259.26 71.03 217.86" stroke="#FFFFFF" transform="translate(63.339819, 245.677366) scale(-1, -1) translate(-63.339819, -245.677366) "/><path d="M236.66 161.15L262.75 150.02 257.4 175.98 280.79 161.15" stroke="#FFFFFF" transform="translate(258.726775, 163.001109) scale(-1, -1) translate(-258.726775, -163.001109) "/><path d="M104.37 353.78L111.82 340.01 130.99 349.01 130.99 327.3 152.82 335.77 147.5 309.86 168.8 319.41 168.8 293.99 188.52 304.05 192.23 283.4" stroke="#FFFFFF" transform="translate(148.297316, 318.589033) scale(-1, -1) translate(-148.297316, -318.589033) "/><path d="M102.77 362.78L134.72 360.67 160.81 356.43 184.24 344.25 191.69 365.96 216.72 356.96" stroke="#FFFFFF" transform="translate(159.745763, 355.104608) scale(-1, -1) translate(-159.745763, -355.104608) "/><path d="M165.6 317.23L188.5 304.52 208.2 311.41" stroke="#FFFFFF" transform="translate(186.902542, 310.877913) scale(-1, -1) translate(-186.902542, -310.877913) "/><path d="M148.52 329.42L176.76 327.3 200.21 333.65" stroke="#FFFFFF" transform="translate(174.367284, 330.475371) scale(-1, -1) translate(-174.367284, -330.475371) "/><path d="M163.39 288.1L163.39 269.03" stroke="#FFFFFF" transform="translate(163.394105, 278.568591) scale(-1, -1) translate(-163.394105, -278.568591) "/><path d="M126.69 336.83L149.58 344.25 169.82 331.53 186.33 314.59 208.16 297.64" stroke="#FFFFFF" transform="translate(167.423127, 320.941472) scale(-1, -1) translate(-167.423127, -320.941472) "/><path d="M165.03 310.35L181.53 319.88 195.38 331.01 206.56 346.89 215.08 370.73" stroke="#FFFFFF" stroke-dasharray="3" transform="translate(190.053777, 340.538930) scale(-1, -1) translate(-190.053777, -340.538930) "/><ellipse stroke="#FFFFFF" transform="translate(188.500000, 187.500000) scale(-1, -1) translate(-188.500000, -187.500000) " cx="188.5" cy="187.5" rx="188.5" ry="187.5"/><path d="M184.17 297.66L198.04 311.43 200.19 331.56" stroke="#FFFFFF" transform="translate(192.183721, 314.608299) scale(-1, -1) translate(-192.183721, -314.608299) "/><path d="M158.61 353.8L185.24 317.79" stroke="#FFFFFF" transform="translate(171.926377, 335.794740) scale(-1, -1) translate(-171.926377, -335.794740) "/><path d="M127.73 367.02L144.77 354.31 171.93 343.19 184.71 361.22 216.12 371.81" stroke="#FFFFFF" transform="translate(171.926377, 357.499462) scale(-1, -1) translate(-171.926377, -357.499462) "/><path d="M158.61 352.76L147.43 326.81" stroke="#FFFFFF" transform="translate(153.289371, 340.048580) scale(-1, -1) translate(-153.289371, -340.048580) "/><path d="M63.83 293.44L85.13 320.45" stroke="#FFFFFF" transform="translate(74.481462, 307.209597) scale(-1, -1) translate(-74.481462, -307.209597) "/><path d="M81.34 341.13L102.15 327.89 117.59 311.45 138.36 295.56 163.92 287.61" stroke="#FFFFFF" transform="translate(122.628793, 314.371400) scale(-1, -1) translate(-122.628793, -314.371400) "/><path d="M171.39 372.34L187.35 354.33 199.59 332.13" stroke="#FFFFFF" transform="translate(185.493327, 352.233887) scale(-1, -1) translate(-185.493327, -352.233887) "/><path d="M68.09 232.51L81.34 254.75" stroke="#FFFFFF" transform="translate(75.013948, 243.633723) scale(-1, -1) translate(-75.013948, -243.633723) "/><path d="M124.03 63.57L132.55 79.99 156.51 61.45 162.34 81.58 180.45 65.67 190.56 83.68" stroke="#FFFFFF" transform="translate(157.294456, 72.564594) scale(-1, -1) translate(-157.294456, -72.564594) "/><path d="M65.96 118.17L53.71 96.46 77.7 99.1 100.6 103.85 118.17 91.67 138.4 85.31 170.88 84.78" stroke="#FFFFFF" transform="translate(112.299399, 101.476637) scale(-1, -1) translate(-112.299399, -101.476637) "/><path d="M83.53 111.91L94.72 92.85 106.96 117.17 117.08 97.02 134.65 117.15 136.25 84.31 157.55 95.96 155.95 79.01" stroke="#FFFFFF" transform="translate(120.541490, 98.093841) scale(-1, -1) translate(-120.541490, -98.093841) "/><path d="M78.72 139.42L67 119.82 97.91 121.94 124.54 110.29 158.08 104.99" stroke="#FFFFFF" transform="translate(112.542762, 122.204797) scale(-1, -1) translate(-112.542762, -122.204797) "/><path d="M123.98 117.15L143.68 99.67 146.34 122.45" stroke="#FFFFFF" transform="translate(135.161971, 111.059157) scale(-1, -1) translate(-135.161971, -111.059157) "/><path d="M104.81 111.85L124.51 127.74 146.88 139.4" stroke="#FFFFFF" transform="translate(125.843469, 125.624834) scale(-1, -1) translate(-125.843469, -125.624834) "/><path d="M76.59 151.58L81.91 128.27 102.15 140.46 126.64 122.98" stroke="#FFFFFF" stroke-dasharray="3" transform="translate(101.615361, 137.277377) scale(-1, -1) translate(-101.615361, -137.277377) "/><path d="M77.12 157.38L81.38 135.14 79.25 111.83 104.28 116.6" stroke="#FFFFFF" transform="translate(90.699401, 134.608382) scale(-1, -1) translate(-90.699401, -134.608382) "/><path d="M67.58 122.43L82.49 139.38 100.59 117.66" stroke="#FFFFFF" transform="translate(84.082848, 128.517280) scale(-1, -1) translate(-84.082848, -128.517280) "/><path d="M29.77 138.85L53.73 119.76" stroke="#FFFFFF" transform="translate(42.016464, 129.311772) scale(-1, -1) translate(-42.016464, -129.311772) "/><path d="M72.37 218.85L65.45 198.17" stroke="#FFFFFF" transform="translate(69.173243, 208.251953) scale(-1, -1) translate(-69.173243, -208.251953) "/><path d="M237.42 271.83L252.33 283.49 253.95 303.08 250.22 327.98 237.44 308.91 237.97 289.84 237.42 271.83Z" stroke="#FFFFFF" transform="translate(245.680871, 299.906068) scale(-1, -1) translate(-245.680871, -299.906068) "/><path d="M237.95 316.29L253.39 310.99 237.95 297.79 252.33 291.43" stroke="#FFFFFF" transform="translate(245.669431, 303.858870) scale(-1, -1) translate(-245.669431, -303.858870) "/><path d="M269.37 299.85L254.43 311.5 269.9 318.38 252.88 328.45" stroke="#FFFFFF" transform="translate(261.389204, 314.146915) scale(-1, -1) translate(-261.389204, -314.146915) "/><path d="M231.56 328.45L246.47 323.15 246.47 340.63 239.55 353.87 231.03 344.34 231.56 328.45Z" stroke="#FFFFFF" transform="translate(238.747114, 338.511322) scale(-1, -1) translate(-238.747114, -338.511322) "/><path d="M232.05 333.19L246.45 344.87 231.54 348.57" stroke="#FFFFFF" stroke-dasharray="3" transform="translate(238.992557, 340.883417) scale(-1, -1) translate(-238.992557, -340.883417) "/><path d="M237.4 143.57L259.74 148.36" stroke="#FFFFFF" transform="translate(248.577303, 146.221613) scale(-1, -1) translate(-248.577303, -146.221613) "/><path d="M242.21 201.28L274.18 209.23" stroke="#FFFFFF" transform="translate(258.182849, 205.520889) scale(-1, -1) translate(-258.182849, -205.520889) "/><path d="M255.65 290.27L253.9 306.38 270.41 316.45" stroke="#FFFFFF" stroke-dasharray="3" transform="translate(262.155693, 303.356106) scale(-1, -1) translate(-262.155693, -303.356106) "/><path d="M236.86 121.87L253.9 111.81" stroke="#FFFFFF" stroke-dasharray="3" transform="translate(245.382388, 117.106809) scale(-1, -1) translate(-245.382388, -117.106809) "/><path d="M44.2 196.89L76.68 175.74 55.91 151.91" stroke="#FFFFFF" transform="translate(60.437147, 174.399166) scale(-1, -1) translate(-60.437147, -174.399166) "/><path d="M42.6 173.06L84.69 169.88" stroke="#FFFFFF" transform="translate(63.898305, 171.467409) scale(-1, -1) translate(-63.898305, -171.467409) "/><path d="M32.25 230.31L68.19 232.17" stroke="#FFFFFF" stroke-dasharray="3" transform="translate(50.359436, 231.370829) scale(-1, -1) translate(-50.359436, -231.370829) "/><path d="M33.07 231.9L54.63 251.49" stroke="#FFFFFF" stroke-dasharray="3" transform="translate(43.714802, 241.434388) scale(-1, -1) translate(-43.714802, -241.434388) "/><path d="M32 266.34L54.63 251.24" stroke="#979797" transform="translate(43.182316, 258.924581) scale(-1, -1) translate(-43.182316, -258.924581) "/><path d="M44.77 217.33L72.44 218.39" stroke="#979797" transform="translate(58.616087, 217.856197) scale(-1, -1) translate(-58.616087, -217.856197) "/><path d="M205.58 60.86L229.01 47.09" stroke="#979797" transform="translate(217.296878, 53.978871) scale(-1, -1) translate(-217.296878, -53.978871) "/><path d="M188.81 81.26L226.62 74.11" stroke="#FFFFFF" transform="translate(207.978375, 77.548787) scale(-1, -1) translate(-207.978375, -77.548787) "/><path d="M205.56 60.88L227.13 74.39" stroke="#FFFFFF" transform="translate(216.212146, 67.769713) scale(-1, -1) translate(-216.212146, -67.769713) "/><path d="M189.06 81.54L220.48 112.53" stroke="#FFFFFF" transform="translate(205.029942, 96.901069) scale(-1, -1) translate(-205.029942, -96.901069) "/><path d="M170.94 106.43L221.26 112.26" stroke="#FFFFFF" transform="translate(195.966242, 109.612934) scale(-1, -1) translate(-195.966242, -109.612934) "/><path d="M194.1 109.34L189.58 81.53" stroke="#FFFFFF" stroke-dasharray="3" transform="translate(191.972598, 95.565537) scale(-1, -1) translate(-191.972598, -95.565537) "/><path d="M266.27 191.72L281.44 189.87" stroke="#FFFFFF" transform="translate(273.720620, 190.662449) scale(-1, -1) translate(-273.720620, -190.662449) "/><path d="M265.47 192.25L254.28 176.63" stroke="#FFFFFF" stroke-dasharray="3" transform="translate(260.142231, 184.306516) scale(-1, -1) translate(-260.142231, -184.306516) "/><path d="M274.23 210.26L305.92 206.29" stroke="#FFFFFF" stroke-dasharray="3" transform="translate(290.207922, 208.141262) scale(-1, -1) translate(-290.207922, -208.141262) "/><path d="M275.05 210.24L280.38 190.11" stroke="#FFFFFF" transform="translate(277.717384, 200.173588) scale(-1, -1) translate(-277.717384, -200.173588) "/><path d="M194.92 109.12L236.49 143.55" stroke="#FFFFFF" transform="translate(215.685900, 126.601397) scale(-1, -1) translate(-215.685900, -126.601397) "/><path d="M219.87 120.69L236.37 113.28 235.31 129.78" stroke="#FFFFFF" transform="translate(228.120277, 121.528238) scale(-1, -1) translate(-228.120277, -121.528238) "/><path d="M223.1 103.21L239.61 94.74 258.25 84.15" stroke="#FFFFFF" transform="translate(240.673216, 93.679654) scale(-1, -1) translate(-240.673216, -93.679654) "/><path d="M201.79 194.44L174.1 153.12" stroke="#FFFFFF" stroke-dasharray="3" transform="translate(187.948794, 173.778469) scale(-1, -1) translate(-187.948794, -173.778469) "/><path d="M237.47 164.24L203.37 169.01" stroke="#FFFFFF" stroke-dasharray="3" transform="translate(220.430432, 166.892876) scale(-1, -1) translate(-220.430432, -166.892876) "/><path d="M220.99 129.29L147.99 139.35" stroke="#FFFFFF" transform="translate(184.244273, 134.583554) scale(-1, -1) translate(-184.244273, -134.583554) "/><path d="M198.39 121.85L184.55 109.67 161.65 136.68 158.2 113.56" stroke="#FFFFFF" transform="translate(178.295407, 123.173083) scale(-1, -1) translate(-178.295407, -123.173083) "/><path d="M231.19 132.97L197.64 158.4 237.54 168.99" stroke="#FFFFFF" stroke-dasharray="3" transform="translate(217.590161, 150.980287) scale(-1, -1) translate(-217.590161, -150.980287) "/><path d="M202.97 148.86L204.56 166.34 172.61 132.97 179 169.52" stroke="#FFFFFF" transform="translate(188.589441, 151.245117) scale(-1, -1) translate(-188.589441, -151.245117) "/><ellipse stroke="#FFFFFF" fill="#DCF2F9" transform="translate(237.488701, 165.254237) scale(-1, -1) translate(-237.488701, -165.254237) " cx="237.49" cy="165.25" rx="4.26" ry="4.24"/><ellipse stroke="#FFFFFF" fill="#D8D8D8" transform="translate(166.135593, 183.262712) scale(-1, -1) translate(-166.135593, -183.262712) " cx="166.14" cy="183.26" rx="4.26" ry="4.24"/><ellipse stroke="#FFFFFF" fill="#DCF2F9" transform="translate(227.903955, 73.093220) scale(-1, -1) translate(-227.903955, -73.093220) " cx="227.9" cy="73.09" rx="4.26" ry="4.24"/><ellipse stroke="#FFFFFF" fill="#DCF2F9" transform="translate(44.728814, 172.669492) scale(-1, -1) translate(-44.728814, -172.669492) " cx="44.73" cy="172.67" rx="4.26" ry="4.24"/><ellipse stroke="#FFFFFF" fill="#D8D8D8" transform="translate(116.081921, 291.313559) scale(-1, -1) translate(-116.081921, -291.313559) " cx="116.08" cy="291.31" rx="4.26" ry="4.24"/><ellipse stroke="#FFFFFF" fill="#D8D8D8" transform="translate(115.016949, 242.584746) scale(-1, -1) translate(-115.016949, -242.584746) " cx="115.02" cy="242.58" rx="4.26" ry="4.24"/><ellipse stroke="#FFFFFF" fill="#F7A696" transform="translate(211.929379, 254.237288) scale(-1, -1) translate(-211.929379, -254.237288) " cx="211.93" cy="254.24" rx="4.26" ry="4.24"/><ellipse stroke="#FFFFFF" fill="#F7A696" transform="translate(66.028249, 197.033898) scale(-1, -1) translate(-66.028249, -197.033898) " cx="66.03" cy="197.03" rx="4.26" ry="4.24"/><ellipse stroke="#FFFFFF" fill="#D8D8D8" transform="translate(253.463277, 309.322034) scale(-1, -1) translate(-253.463277, -309.322034) " cx="253.46" cy="309.32" rx="4.26" ry="4.24"/><ellipse stroke="#FFFFFF" fill="#FDE699" transform="translate(306.711864, 205.508475) scale(-1, -1) translate(-306.711864, -205.508475) " cx="306.71" cy="205.51" rx="4.26" ry="4.24"/><ellipse stroke="#FFFFFF" fill="#FDE699" transform="translate(145.901130, 103.813559) scale(-1, -1) translate(-145.901130, -103.813559) " cx="145.9" cy="103.81" rx="4.26" ry="4.24"/></g></g></g></svg>