<svg width="1294" height="665" viewBox="0 0 1294 665" xmlns="http://www.w3.org/2000/svg"><title>Stellar.org world map wireframe</title><defs><linearGradient x1="91.465%" y1="12.554%" x2="11.029%" y2="41.36%" id="a"><stop stop-color="#43C0A7" offset="0%"/><stop stop-color="#08B5E5" offset="100%"/></linearGradient></defs><path d="M55.173 98.352l5.973-24.57L81.738 89.3l-26.565 9.052zm119.912 210.25l15.644 12.085 2.425-5.818-18.07-6.27zm15.644 12.085l15.866 3.85-13.44-9.668-2.427 5.817zm-15.645-21.304v9.218l26.957-5.59-26.957-3.627zm0 9.218l18.07 6.27 8.887-11.86-26.957 5.59zm-40.915-28.858l40.915 19.64-8.48-19.188-32.435-.452zm40.915 19.64l26.957 3.628-10.52-5.242-16.437 1.615zm16.436-1.614l10.522 5.242-2.126-19.95-8.395 14.708zm8.396-14.707l2.126 19.95 10.038-19.95h-12.164zm2.126 19.95l-8.887 11.86 5.95-3.173 2.937-8.687zm38.345-38.434l-7.6-24.458 11.8 18.8-4.2 5.658zm-47.232 50.293l13.44 9.668 16.163-9.895-29.603.226zm24.828 20.623l-11.387-10.955 16.162-9.895-4.775 20.85zm-24.828-20.624l5.95-3.173 23.653 2.946-29.603.226zm39.633-74.752l11.798 18.8v-26.236l-11.798 7.436zm102.458-100.863l-12.823 26.577 2.858-45.914 9.966 19.337zM369.86 3.285l15.31 11.912 39.737-10.493-55.048-1.418zm46.927 70.75l18.023 18.883 17.85-23.915-35.873 5.03zm9.35-66.096l42.847-4.654-42.846 26.286V7.94zm26.524 61.063l-26.522-39.43 2.38 29.6 24.143 9.83zM426.14 7.94V29.57l-32.304-9.035L426.138 7.94zm49.137 57.526l43.187-19.875-31.85-15.195-11.337 35.07zm-366.478 33.93l9.565 49.067 33.568-36.747-43.133-12.32zm74.285 144.44l49.706-3.718-33.732-42.97-15.974 46.688zm49.706-3.718l11.798-7.436-45.53-35.534 33.732 42.97zm11.798-7.436l27.957-21.57-73.487-13.964 45.53 35.534zm-153.418-15.82l27.194-68.4-29.08 38.418 1.886 29.982zm0 0l27.194-68.4 31.17 28.15-58.364 40.25zm27.194-68.4l33.568-36.746-2.397 64.897-31.17-28.15zm33.568-36.746l41.536 31.216-43.933 33.68 2.397-64.896zm223.644 23.155l5.1 21.714-21.523-5.36 16.424-16.353zm-182.108 8.062l5.59 54.216-49.523-20.535 43.933-33.68zm259.195-73.93l-26.522-39.43 40.505 9.858-13.982 29.573zm0 0l22.615-3.536-8.632-26.036-13.982 29.573zm-26.522-39.43l42.846-26.286-2.34 36.144-40.506-9.858zm42.846-26.286l17.627 27.11-19.967 9.034 2.34-36.144zm6.29 62.18l11.337-35.07-19.967 9.034 8.632 26.036zm-6.29-62.18l17.627 27.11L509.776 0l-40.79 3.286zm17.627 27.11L509.776 0l17.868 21.358-41.032 9.037zm0 0l31.852 15.195 9.18-24.232-41.03 9.037zM509.776 0l47.623 6.573-29.755 14.785L509.775 0zm-81.257 59.172l24.143 9.83-35.873 5.032 11.73-14.862zM249.038 34.51l-21.57-.83-15.804 6.464 37.373-5.635zm-15.804 7.354l44.5-5.813-8.53 18.166-35.97-12.352zm10.13-16.23l42.844 3.938-24.468 2.26-18.377-6.198zm15.64 68.268l37.44-20.84-15.225-12.337-22.217 33.177zm28.308-49.337l5.123-7.653 11.628-.86-16.75 8.513zm-6.093 16.16l15.224 12.337 1.66-27.928-16.885 15.59zm31.86-35.09l-6.96 4.76-10.203-4.76h17.164zm-14.975 19.5l-1.66 27.927 15.237-9.604-13.577-18.324zm12.553-10.626h12.607l-17.145 7.354 4.538-7.355zm11.765 5.634l27.2 7.786-27.2 1.33v-9.116zm0 0l27.2 7.786 9.528-11.018-36.727 3.232zm3.56-8.414h33.168l-11.923-3.903-21.245 3.903zm5.68 20.12l-19.98 11.608 15.36 1.437 4.62-13.045zm21.724-28.686L369.86 3.286l-29.073 8.055 12.6 11.824zm-3.763 24.766l9.527-11.018V61.61l-9.526-13.68zm9.527-11.018V61.61l13.64-17.045-13.64-7.653zm-5.763-13.748L369.86 3.286l-1.377 20.948-15.096-1.07zm5.764 38.446l7.875-3.697 5.764-13.348-13.64 17.045zm10.71-58.324l15.31 11.91-16.687 9.038 1.376-20.948zm-2.835 54.627l5.764-13.348 15.053 20.33-20.818-6.982zm0 0l4.004 7.553 16.813-.57-20.818-6.983zm4.004 7.553l9.58 5.178 7.233-5.75-16.814.572zm-36.983 7.56L359.15 61.61l6.05 19.852-31.153-8.437zM359.15 61.61l7.875-3.697-1.826 23.55-6.05-19.853zm7.875-3.697l4.004 7.553-5.83 15.996 1.825-23.55zM301.16 78.405L311.233 68.2l8.923 9.516-18.998.69zm46.067 24.205l-5.625-17.59-15.78-2.006 21.405 19.596zm-21.946 17.308l21.947-17.308-21.406-19.596-.54 36.904zm0 0l21.947-17.308 17.972 8.318-39.92 8.99zm21.947-17.308l17.562-6.5.41 14.818-17.973-8.318zm-34.146 7.444l12.74-27.04-.54 36.904-12.2-9.864zm22.166 29.2l25.16.874-35.125-20.21 9.966 19.337zm25.16.874l19.215-14.447-54.34-5.762 35.126 20.21zm-35.125 33.146l28.014-15.974-16.32 3.985-11.693 11.99zm39.92-62.346l14.42 14.753-54.34-5.762 39.92-8.99zm-52.12-.874l12.2 9.864-39.072 15.49 26.873-25.354zm9.343 55.778l2.858-45.914-39.072 15.49 36.215 30.424zM151.93 111.716l38.794-62.43 23.51 54.217-62.304 8.213zm0 0l41.536 31.216 20.767-39.43-62.303 8.214zm107.073-17.814v13.708l-44.77-4.107 44.77-9.6zm-68.28-44.615l23.51 54.216 8.6-44.082-32.11-10.133zm20.94-9.143l37.374-5.635-33.22 11.268-4.153-5.634zm2.57 63.36l44.77-9.602-36.17-34.48-8.6 44.08zm19-61.64l35.97 12.352-37.007-1.44 1.038-10.912zm25.77 52.038l22.216-33.177-58.387-1.304 36.17 34.482zm-65.537 49.03l5.59 54.216 53.146-35.863-58.736-18.353zm0 0l20.767-39.43 37.97 57.783-58.737-18.353zm5.59 54.216l73.487 13.963-20.34-49.825-53.147 35.863zm15.177-93.645l44.77 4.107-6.8 53.675-37.97-57.782zm58.31 107.608l16.908-26.393-37.248-23.432 20.34 49.826zm-13.54-103.5l27.205 27.797-34.006 25.878 6.8-53.675zm0 0l27.205 27.797v-17.01l-27.205-10.787zm27.205 27.797l36.215 30.425-70.22-4.547 34.005-25.878zm3.243 49.31l32.973-18.885-70.22-4.547 37.248 23.432zM0 118.397L55.173 98.35l-21.22 3.718L0 118.396zM55.173 98.35l5.973-24.57-27.194 28.288 21.22-3.718zM29.865 85.02l31.28-11.24-27.193 28.29-4.087-17.05zm31.28-11.24L81.74 89.3 106.4 70.644 61.146 73.78zm0 0l38.864-26.957 6.39 23.82-45.254 3.138zm0 0l38.864-26.957L66.49 56l-5.344 17.78zM81.74 89.3l27.06 10.096-2.398-28.752L81.738 89.3zm18.27-42.477l21.654-.41-15.262 24.23-6.39-23.82zm6.392 23.82l2.397 28.753 35.145-18.893-37.542-9.86zm0 0l15.262-24.23 22.28 34.09-37.542-9.86zm2.397 28.753l43.133 12.32-7.988-31.213-35.145 18.893zm12.865-52.983l35.06 6.982-12.78 27.108-22.28-34.09zm30.268 65.303l38.794-62.43-46.782 31.217 7.988 31.213zm4.792-58.32l34.002-4.11-46.782 31.217 12.78-27.108zm-7.19 123.217l49.524 20.535-46.302 27.07-3.22-47.605zm-15.362 103.13l32.435.45-13.85-55.974-18.585 55.522zm32.435.45l5.293-21.275-19.144-34.7 13.85 55.976zm5.293-21.275l11.184-15.082-30.328-19.617 19.144 34.698zm102.53 42.56l3.126-2.935-8.147-7.953 5.02 10.89zm3.126-2.935l11.517-1.237-19.663-6.716 8.147 7.953zm-78.498-101.395l-15.974 46.688-30.328-19.617 46.302-27.072zm-64.886 82.594l40.915 19.64-8.48 13.31-32.435-32.95zm40.915 19.64v9.22l-8.48 4.09 8.48-13.31zm-8.48 13.31l-32.435-32.95-1.04 12.524 33.475 20.427zm-32.435-32.95l18.584-55.523-37.608 10.098 19.024 45.424zm0 0L115.146 245.8v-11.482l19.024 45.424zm-43.002-62.88l11.474 34.912 2.66-20.798-14.134-14.114zm0 0l58.365-40.25-44.232 54.364-14.132-14.114zm11.474 34.912l15.72 24.063-13.06-44.86-2.66 20.797zm12.504-17.456l37.608-10.1-47.453 6.758 9.846 3.342zm34.387-57.705l3.22 47.606-47.452 6.756 44.233-54.363zm89.426 98.008l26.13 15.305h-11.596L238.96 274.62zm0 0l-11.6.746 2.862 2.15 8.737-2.895zm0 0l14.534 15.305-23.272-12.41 8.737-2.894zm-11.6.746l-6.528 6.46 9.39-4.31-2.862-2.15zm-20.764 49.172l5.484 16.016 5.903-5.06-11.387-10.956zm11.387 10.955l-5.903 5.06 15.33 11.457-9.427-16.517zm0 0l9.426 11.29v5.227l-9.427-16.517zm21.538 6.47l-12.11 4.82v5.227l12.11-10.048zm0 0l-.403 3.396-11.708 6.65 12.11-10.048zm0 0l-.403 3.396 5.48 10.082-5.076-13.48zm0 0l7.787 6.74-2.71 6.74-5.076-13.48zm95.726-202.708l-12.823 26.577 12.823-4.19v-22.387zM1072.7 529.6l-16.748-29.41 58.912 10.32-42.164 19.09zm0 0l42.164-19.09v36.665L1072.7 529.6zm42.164-19.09v36.665l54.115-20.718-54.116-15.946zm103.87 106.38l8.406 8.527 35.52-32.897-43.927 24.37zm-49.755-90.433l45.188 6.748 1.97-15.626-47.16 8.877zm-54.116-15.946l54.115 15.947 3.614-47.353-57.73 31.407zm54.115 15.947l47.157-8.878-43.543-38.476-3.615 47.353zm16.618-81.077l30.54 72.2-43.544-38.476 13.004-33.724zm-56.942 18.73l-13.792 46.4 37.795-46.027-24.004-.374zm-13.792 46.4l57.73-31.406-19.935-14.62-37.796 46.027zm103.87-68.792l-28.64-37.076-9.31 31.047 37.95 6.028zm-90.078 22.39l24.003.375-16.98-12.977-7.024 12.603zm24.003.375l8.112-14.963-25.093 1.986 16.98 12.977zm-96.708 35.707l58.912 10.32-25.074-23.137-33.838 12.817zm72.704-36.08l-13.792 46.4-25.074-23.137 38.866-23.264zm38.457 127.56l-19.272 19.82 2.066-16.754 17.207-3.067zm-38.457-127.56l-15.922-2.46-22.944 25.723 38.866-23.264zm-13.792 83.065l66.793 29.798 13.792-18.238-80.586-11.56zm112.276 78.242l36.56-25.848-1.04-7.05-35.52 32.897zm-112.276-78.242l54.115-20.718 26.47 32.278-80.586-11.56zm54.115-20.718l45.188 6.748-18.72 25.53-26.47-32.278zm-96.28 3.144l-16.748-29.41-7.29 64.827L1072.7 529.6zm205.118 50.868l13.842 2.06-24.177 16.25 10.335-18.31zm0 0l13.842 2.06-11.228-20.465-2.614 18.405zM1072.7 529.6l42.164 17.575-66.203 17.842 24.04-35.416zm42.164 17.575l66.793 29.798-36.057 5.673-30.736-35.47zM547.93 339.34l33.52-97.68-74.23 38.146 40.71 59.533zm0 0l29.876 22.982-33.87 5.747 3.993-28.73zM661.267 440.3l51.88-7.386 7.983-48.43-59.862 55.817zM618.224 370l-1.32 29.613 84.27-44.678L618.225 370zm-1.32 29.613l44.364 40.688 39.907-85.365-84.272 44.678zm44.364 40.688l59.863-55.815-19.955-29.55-39.907 85.366zm39.907-85.365l19.956 29.55v-59.1l-19.955 29.55zm19.956-29.55l23.565-11.514-11.7-31.475-11.864 42.99zm-13.448-91.63l7.86 15.293H674.04l33.644-15.292zm0 0l7.86 15.293 5.56-16.158-13.42.866zm14.478 15.787l-6.617-.494 5.56-16.158 1.057 16.652zm-6.617-.494l17.452 33.347-58.957-33.347h41.505zm5.588 76.336l11.865-42.99-58.957-33.346 47.093 76.336zm-47.092-76.336l33.644-15.292-43.195-6.75 9.55 22.042zm-9.55-22.042l9.55 22.042-15.975-9.69 6.424-12.352zM581.45 241.66l-9.15-27.33-15.593-4.682 24.744 32.013zm-74.23 38.146l74.23-38.145-45.754 2.705-28.475 35.44zm49.487-70.158l24.744 32.013-45.754 2.705 21.01-34.717zm-49.486 70.158l40.71 59.533-40.71-18.058v-41.476zm19.157 60.354l21.552-.82-40.71-18.058 19.157 18.878zm-19.156-18.878l19.157 18.878-3.193 11.64-15.963-30.518zm19.157 18.878l21.552-.82-24.746 12.46 3.193-11.64zm17.56 27.91l3.992-28.73-24.746 12.46 20.753 16.27zm74.287 1.93l82.95-15.065-63.85-51.713-19.1 66.778zm8.687-145.577l31.153 14.935-20.74 63.864-10.412-78.8zm31.153 14.935l15.975 9.69-36.715 54.174 20.74-63.864zm15.975 9.69l47.093 76.336-83.807-22.162 36.715-54.174zm27.137 105.887l19.956-29.55-83.807-22.163 63.852 51.713zM547.93 339.34l29.876 22.982 59.517-59.1-89.394 36.117zm0 0l33.52-97.68 55.873 61.562-89.394 36.117zm29.876 22.982L618.224 370l19.1-66.778-59.518 59.1zm3.645-120.66l45.46-17.24 10.413 78.8-55.872-61.56zm139.68 83.722l23.565-11.513 14.625 11.82-38.19-.306zm0 59.1v-59.1l44.353 13.197-44.352 45.905zm0-59.1l38.19.306 6.163 12.89-44.352-13.196zm0 59.1l44.353-45.903 13.095 35.234-57.447 10.67zm44.353-45.903l30.607-5.908-17.512 41.142-13.095-35.233zm-52.335 94.334l7.983-48.43 23.956 27.91-31.938 20.52zm7.983-48.43l57.448-10.67-33.492 38.58-23.955-27.91zm23.956 27.91l5.75 52.962-37.688-32.442 31.938-20.52zm-31.938 20.52l37.69 32.442-25.718 25.2-11.972-57.642zm-54.674 131.6l28.734-4.075-35.52-40.517 6.786 44.59zm28.734-4.075l25.94-27.71-61.46-12.807 35.52 40.516zm25.94-27.71l.8-15.213-62.26 2.406 61.46 12.806zm-74.32-30.866l12.86 18.06 24.745-50.894-37.604 32.834zm0 0l22.44-61.563 15.165 28.73-37.604 32.834zm12.86 18.06l62.26-2.407-37.515-48.487-24.744 50.893zm9.58-79.623l51.88-7.386-36.715 36.116-15.165-28.73zm63.852 50.257l-48.687-21.527 36.715-36.116 11.972 57.643zm-11.173 26.96l12.28-5.435-49.794-43.052 37.514 48.487zm12.28-5.435l-1.107-21.525-48.687-21.527 49.793 43.052zm-109.324-112.47l44.365 40.69-25.08 5.493-19.285-46.182zm19.284 46.183l25.08-5.494-34.59 37.823 9.51-32.328zm2.642 56.07l22.438-61.564-34.592 37.823 12.153 23.74zm0 0l12.86 18.058-9.956 6.83-2.905-24.89zm12.86 18.058l6.784 44.59-16.74-37.76 9.955-6.83zm108.88-6.54l5.713-41.07 16.4 20.33-22.114 20.74zm0 0l13.13 2.51 8.984-23.25-22.115 20.74zm5.713-41.07l16.4 20.33-5.983-20.33h-10.417zm0 0l24.138-17.88-13.72 17.88h-10.417zm16.4 20.33l7.738-38.21-13.72 17.88 5.984 20.33zM581.452 241.66l45.46-17.237-5.88-19.903-39.58 37.14zm0 0l39.58-37.14-48.73 9.81 9.15 27.33zM229.276 420.345l51.683 61.542-25.842-17.23-25.84-44.312zm60.278 175.898l13.877 40.815 18.983-18.66-32.86-22.155zm13.877 40.815l21.72 11.616-2.737-30.275-18.983 18.66zm21.72 11.616l-2.737-30.275 9.49 8.037-6.753 22.238zM374.88 519.2l30.684-19.81 7.232-45.408L374.88 519.2zM357.666 369.43l4.04 22.978-29.067-31.816 25.026 8.838zm-25.027-8.838l25.026 8.838-13.526-9.117-11.5.28zm-88.044-5.152l23.85-24.95 1.455 61.097-25.304-36.148zm36.362 126.444l2.285 61.095 44.934-6.08-47.22-55.014zm53.51 103.188l11.575-19.85-17.866-28.325 6.29 48.174zm0 0l11.575-19.85 2.7 15.184-14.275 4.666zm11.575-19.85h12.69L328.176 536.9l17.866 28.325zm-65.085-83.338l47.22 55.013 14.363-49.642-61.582-5.372zm0 0l48.018-35.293 13.565 40.665-61.582-5.372zm47.22 55.013l30.554 28.325-16.19-77.967-14.365 49.64zm30.554 28.325L374.88 519.2l-32.34-31.942 16.192 77.967zM374.88 519.2l37.916-65.218-70.255 33.276 32.34 31.94zM229.275 395.727v24.616l39.83 19.68-39.83-44.296zm0 0l40.626-4.14-.796 48.437-39.83-44.297zm0 24.616l51.683 61.542-11.854-41.86-39.83-19.682zM269.9 391.59l59.076 55.003-59.872-6.568.797-48.436zm11.058 90.296l48.018-35.293-59.872-6.568 11.854 41.86zm22.472 155.17l21.72 11.617-4.955 8.717-16.765-20.333zm21.72 11.617l23.592 13.873-28.547-5.156 4.955-8.717zM283.243 542.98l6.31 53.262 19.465-37.998-25.775-15.263zm0 0l44.934-6.08-19.16 21.344-25.774-15.263zm6.31 53.262l32.86 22.156-13.395-60.154-19.465 37.998zm32.86 22.156l12.055-33.324-25.45-26.83 13.395 60.154zm5.764-81.5l6.29 48.176-25.45-26.83 19.16-21.345zm-59.732-206.405l1.456 61.096 32.73-18.062-34.185-43.035zm0 0l14.23 3.02 19.956 40.015-34.185-43.035zm1.456 61.096l59.076 55.003-26.345-73.065-32.73 18.06zm12.774-58.076l31.134 6.353-11.177 33.66-19.956-40.013zm31.134 6.353l18.83 20.727-30.007 12.934 11.178-33.66zm15.168 106.726l32.73-54.183-59.075-18.882 26.346 73.065zm3.663-86l29.066 31.817-59.075-18.882 30.01-12.934zm-3.664 86l13.565 40.665 50.3-69.397-63.864 28.733zm0 0l32.73-54.183 31.133 25.45-63.864 28.733zm13.565 40.665l70.256-33.276-19.957-36.12-50.3 69.396zm19.166-94.848l20.756 4.925 10.377 20.526-31.134-25.45zm20.756 4.925l42.988 17.974-32.61 2.55-10.378-20.525zm30.334 56.647l15.156-23.903-35.113-12.22 19.956 36.122zm12.654-38.673l2.502 14.77-35.113-12.22 32.61-2.55zm-196.175-19.582l40.626-4.14-24.304-18.575-16.32 22.715zm15.32-40.286l25.306 36.147-24.304-18.577-1-17.57zm23.85-24.95l-23.85 24.95 2.712-6.74 21.138-18.21zm457.088-164.355l1.836-11.572 14.9 22.007-16.737-10.435zm-23.37 19.086l14.134-5.337-3.912 30.576-10.222-25.24zm-13.576 18.755l-4.84-16.823 28.638 23.307-23.798-6.484zm23.798 6.484l-28.637-23.307 18.415-1.932 10.222 25.24zm0 0l3.912-30.576 14.554 6.665-18.465 23.912zm0 0l18.466-23.91-5.317 19.43-13.148 4.48zm18.466-23.91l13.462-2.228-18.78 21.658 5.32-19.43zm4.498 81.694l22.79 37.26 37.59-34.216-60.38-3.044zm70.873 41.598L764.3 326.548l-6.16-21.043 48.083 4.34zm0 0L795.73 271.29l-37.59 34.215 48.083 4.34zm0 0l23.207-30.814-33.7-7.74 10.494 38.554zm10.495-39.75l12.712 8.936-33.7-7.74 20.988-1.197zm0 0l-3.304-9.36-17.682 10.556 20.987-1.197zm-81.367-1.848l60.38 3.044-41.074-17.223-19.306 14.18zm-14.245-35.356l4.43-26.908 54.427 32.912-58.857-6.004zm0 0l14.245 35.356 19.306-14.18-33.55-21.176zm0 0l33.55 21.177 25.307-15.173-58.857-6.004zm58.857 6.004l-25.306 15.173 25.306-2.124v-13.05zm-25.306 15.173l41.074 17.223-15.768-19.347-25.306 2.124zm50.295 2.895l8.46-2.895-22.64-5.02 14.18 7.915zm-14.18-7.914l22.64 5.02-.793-13.285-21.846 8.265zm22.64 5.02l-.793-13.285 43.143 22.32-42.35-9.036zm0 0l4.913 7.296 37.437 1.738-42.35-9.035zM875.74 287l-19.98-23.898 21.062-6.14-1.083 30.04zm6.928-2.296l19.474 17.972 18.315-45.714-37.79 27.742zM998 327.756l-8.052-21.897 13.37 17.848-5.318 4.048zm0 0l5.317-4.048L998 349.04v-21.284zm-78.603 26.467v-12.755l10.176 13.9-10.176-1.145zM998 349.04l22.36 26.187-17.458-27.938-4.902 1.75zm22.36 15.736v10.45l-17.458-27.937 17.458 17.486zM998 349.04l5.317-25.332-.415 23.58L998 349.04zm-8.052-43.18l13.37 17.848 8.87-4.147-22.24-13.7zm13.37 17.848l8.87-4.147 12.9 19.29-21.77-15.142zm22.175 24.71l-.404-9.57 17.582-5.086-17.18 14.655zm-13.306-28.857l12.902 19.29 11.288-29.16-24.19 9.87zm12.902 19.29l17.582-5.088-6.294-24.073-11.29 29.16zm-35.142-32.99l22.24 13.7 9.178-23.655-31.418 9.954zm113.896 44.688l10.632 11.56-4.72-33.03-5.912 21.47zm-18.3-40.937l24.212 19.47-20.376-32.212-3.835 12.743zm-73.357 9.95l24.19-9.87-15.01-13.785-9.18 23.656zm-22.24-13.7l31.42-9.955-56.373-14.34 24.954 24.294zm31.42-9.955l-56.373-14.34 68.886-.6-12.514 14.94zm23.88-13.237l-2.575 6.066-8.792-7.77 11.368 1.704zm0 0l-11.367-1.704 32.927-5.88-21.56 7.584zm-8.87 27.02l6.295 24.074-.805-14.2-5.49-9.873zm30.43-34.604l15.418-29.508-21.5-31 6.082 60.508zm-6.083-60.51l10.775-10.502-23.028-6.912 12.252 17.415zm3.08-18.268l-3.82-10.81 10.06 4.753-6.24 6.056zm-3.08 18.27l21.5 31-5.125-15.306-16.376-15.695zm17.077-20.983l9.118 8.273-7.512-2.083-1.605-6.19zm9.118 8.273l5.904 15.256 10.985-5.04-16.89-10.216zm-16.874-11.617l7.757 3.343 7.126-1.064-14.882-2.28zm7.757 3.343l9.118 8.273-1.992-9.337-7.125 1.063zm9.118 8.273l16.89 10.215-18.882-19.55 1.992 9.336zm-26.933-16.37l10.06 4.753 21.57-15.468-31.63 10.715zm10.06 4.753l14.88 2.28 6.69-17.748-21.57 15.467zm14.88 2.28l6.33-6.473.36-11.275-6.69 17.747zm6.69-17.748l11.96.932 6.18-26.74-18.14 25.808zm0 0l18.14-25.808-7.954-15.992-10.184 41.8zm0 0l10.186-41.8-11.124-10.655.94 52.455zm-14.108-78.124l37.3 1.08 1.846-11.556-39.146 10.476zm63.16-12.857l-2.254-15.675L1148.603 93l-7.937-9.2zm0 0l7.937 9.2-12.757 17.94 4.82-27.14zm-4.82 27.14l27.972 26.053-1.03-26.052h-26.943zm0 0L1148.604 93l1.152 11.156-13.91 6.785zm0 0h26.944l-13.034-6.784-13.91 6.785zm2.566-42.815L1148.603 93l6.788-23.636-16.977-1.24zM1148.603 93l38.754-9.2-31.966-14.436L1148.605 93zm-10.19-24.875l16.978 1.24v-15.76l-16.977 14.52zm16.978 1.24l47.63 5.237-47.63-20.998v15.76zm-38.737 16.817l21.76-18.057 2.278 15.676-24.037 2.382zm0 0l15.598 4.515 8.44-6.896-24.037 2.382zm-39.146 10.476l39.146-10.476-28.97-33.638-10.176 44.114zm39.146-10.476l21.76-18.057-50.73-15.58 28.97 33.637zm21.76-18.057l16.978-14.52-67.706-1.06 50.73 15.58zm-60.906 28.533l10.177-44.114-12.294-5.836 2.117 49.95zm-63.707-58.21l61.59 8.26-56.75-.797-4.84-7.463zm0 0l4.84 7.463H984.77l29.028-7.463zm-45.933-2.998l16.905 10.46-31.448-7.463 14.543-2.997zm-50.527-9.383l-4.49 9.383-35.323-13.586 39.813 4.203zm-72.872 4.62l33.06-8.823-30.64 19.07-2.42-10.247zm-87.964-4.363l30.137-2.846-30.136 15.945v-13.1zm87.964 4.363l2.42 10.248-35.078 2.04 32.658-12.288zm-45.97 4.763l13.312 7.526-7.66 14.616-5.652-22.142zm5.65 22.142L798.5 35.45l-5.654 10.46 11.305 11.682zm-124.28-7.276l39.43 10.52-24.422 4.562-15.01-15.082zm4.296 19.643l22.11 5.966-11.398-10.528-10.712 4.56zm32.047-3.318l3.088-5.805-24.422 4.56 21.335 1.245zm-36.343-16.326l15.01 15.082-14.1-1.243-.91-13.84zm4.297 19.643l10.712-4.562-14.1-1.243 3.388 5.804zm0 0l22.11 5.966-15.018 5.967-7.092-11.934zm94.928-12.368h25.057l-27.504 96.973 2.446-96.973zm0 0h25.057l-34.586-8.365 9.528 8.365zm76.668 205.51l21.062-6.14-31.55-94.543L855.76 263.1zM811.81 42.976l35.077-2.04 16.126 35.656-51.203-33.616zm35.077-2.04l30.64-19.072-14.514 54.728-16.126-35.657zm30.64-19.072L912.85 35.45l-49.837 41.142 14.514-54.728zM845.273 162.42l31.55 94.542 62.793-50.178-94.343-44.365zm31.55 94.542h43.634l19.16-50.178-62.795 50.178zm43.634 0l23.407 27.028-4.248-77.206-19.16 50.178zm-75.184-94.543l94.343 44.364-40.317-64.68-54.027 20.315zm94.343 44.364l18.545-65.51-58.86.83 40.316 64.68zm101.852 93.16l4.638-9.377-11.22 3.145 6.582 6.233zm-101.852-93.16l18.545-65.51 41.932 39.803-60.476 25.707zm-162.97-52.22l27.503-96.972 39.51 36.415-67.014 60.558zm0 0l68.627 7.855-1.613-68.413-67.014 60.558zm348.392 6.1l-3.795-15.836-21.026-22.042 24.82 37.878zM804.148 57.592l7.662-14.616 31.85 51.03-39.51-36.414zm7.662-14.616l51.203 33.616-19.353 17.415-31.85-51.03zm33.463 119.443l54.026-20.316-55.64-48.097 1.613 68.412zm17.74-85.828l36.286 65.512-55.64-48.097 19.353-17.415zm95.148 64.68l26.612-95.36 29.028 38.973-55.64 56.388zm0 0l41.932 39.805 13.708-96.192-55.64 56.388zm181.437 251.558l41.187 42.86 9.31-31.048-50.497-11.812zM984.772 45.91h33.867l-4.84 38.975-29.028-38.974zm33.867 0l56.75.798-61.59 38.177 4.84-38.974zm7.43-16.295l-26.99 3.293 5.016-6.584 21.975 3.29zm-26.99 3.293l-20.244-5.693 25.26-.89-5.017 6.583zm76.31 13.8l2.117 49.95-63.707-11.773 61.59-38.177zm-6.84 71.348l8.957-21.398-63.707-11.773 54.75 33.17zM718.055 69.96l32.875-13.27 4.84 37.317-37.714-24.048zm32.875-13.27l28.162.902-23.322 36.415-4.84-37.316zm25.716 97.875l2.446-96.973-23.322 36.415 20.876 60.558zm86.367-77.973l36.286 65.512 15.32-36.488-51.607-29.024zm0 0L912.85 35.45l1.77 70.166-51.607-29.024zm36.286 65.512l58.86-.83-43.54-35.658-15.32 36.488zm161.5 291.638l59.634-1.842-57.447-7.818-2.187 9.66zm-35.71-13.184l6.644-14.425-26.083-14.427 19.44 28.852zm79.878-26.09l-14.35-2.595 14.35 21.81V394.47zm-44.168 39.274l2.187-9.66-34-.26 31.813 9.92zm26.345-14.363l3.472-27.507 14.35 21.81-17.822 5.696zm-101.613-56.515l20.12 28.84 6.43-12.07-26.55-16.77zm20.12 28.84l26.082 14.428-19.653-26.498-6.43 12.07zM912.848 35.45l40.474 2.997-38.705 67.17-1.77-70.167zm40.474 2.997l31.448 7.464-70.153 59.706 38.704-67.17zM835.75 10.31L847.5 7.395l7.45 8.68-19.203-5.765zm19.203 5.766l-7.45-8.68 32.365 8.68h-24.915zM958.16 141.273l26.612-95.362-70.153 59.706 43.54 35.657zm-178.2 97.62l10.81 10.155 5.708-42.655-16.518 32.5zm10.81 10.155l21.847-8.265-16.14-34.39-5.706 42.655zm21.847-8.265l43.143 22.32-59.282-56.71 16.14 34.39zm43.143 22.32l-10.487-100.684-48.795 43.973 59.282 56.71zm-113.49-86.53l2.042 7.75 31.58 2.23-33.622-9.98zm34.376-22.008l68.627 7.854-49.545 22.803-19.082-30.658zm19.832 51.828l48.795-43.974-49.545 22.803.75 21.17zm-39.974-180.07L744.042 42.18l12.462-2.757v-13.1zm0 13.1l-12.462 2.756 21.403 6.364-8.94-9.12zm371.5 141.567l18.842-6.548-20.944-9.3 2.1 15.848zM755.77 94.007l20.876 60.558-27.505-29.134 6.63-31.423zm-74.993 3.548l10.48-15.662 15.016-5.967-25.496 21.63zm39.513 6.404l-14.017-28.034-1.675 55.317 15.692-27.284zm-15.692 27.283l27.922 12.533-12.23-39.817-15.692 27.283zm1.675-55.317l11.783-5.967 2.234 34-14.017-28.034zm11.783-5.967l37.714 24.047-35.48 9.952-2.234-34zm14.464 73.816l16.62-18.345-28.85-21.47 12.23 39.816zm23.25-49.77l-6.63 31.425-28.85-21.47 35.48-9.953zm331.148 169.68l-1.334 18.316-5.06-10.33 6.394-7.985zm-86.826-82.61l13.708-96.19 34.672 66.34-48.38 29.85zm0 0l48.38 16.084v-45.935l-48.38 29.852zm13.708-96.19l54.75 33.17-20.078 33.17-34.672-66.34zm34.672 112.274l11.513-11.663-11.513-34.272v45.935zm11.513-11.663l31.63-10.715-43.143-23.557 11.513 34.272zm8.564-67.44l22.126 4.27-42.204 28.898 20.077-33.17zm22.126 4.27l.94 52.455-43.144-23.557 42.204-28.898zm-151.06 84.457l4.248 77.206 54.338-49.243-58.586-27.963zm0 0l60.476-25.707-1.89 53.67-58.586-27.963zm194.073-22.41l-2.9 23.54 16.126 7.533-13.227-31.074zm-2.9 23.54l-21.7 12.93 37.826-5.397-16.126-7.534zm-21.7 12.93l12.153 4.315 25.673-9.713-37.825 5.398zm24.6-36.47l13.226 31.073-4.345-23.805-8.88-7.27zm-18.523 50.373l6.076-9.588-12.152-4.315 6.077 13.902zM943.864 283.99l21.13-2.425 33.208-46.818-54.338 49.243zm56.228-102.913l48.38 16.083-50.27 37.587 1.89-53.67zm-35.098 100.488l68.886-.6-35.678-46.218-33.208 46.818zm68.886-.6l32.927-5.88-68.605-40.338 35.678 46.217zm14.592-83.805l12.252 17.415-62.522 20.172 50.27-37.587zm12.252 17.415l6.083 60.51-68.605-40.338 62.522-20.172zm-158.582 88.1l18.315-45.713-2.412 55.483-15.903-9.77zm18.315-45.713l23.407 27.028-25.82 28.455 2.413-55.483zm-37.79 27.742l22.474 65.125-2.998-47.154-19.474-17.972zm22.474 65.125l12.905-12.233-15.903-34.92 3 47.152zm12.905-37.385v25.152l-15.903-34.92 15.903 9.768zM727.37 154.565l14.9 22.007 18.445-8.73-33.346-13.277zm5.15-10.79l16.62-18.344 11.575 42.41-28.195-24.064zm9.75 32.797l33.622 9.982-15.177-18.713-18.445 8.732zm6.87-51.14l27.506 29.133-15.93 13.276-11.575-42.41zm-23.607 80.55l18.78-21.658 30.002 18.314-48.782 3.344zm0 0l54.427 32.912-5.645-36.256-48.782 3.344zm18.78-21.658l31.58 2.23-1.578 16.084-30.003-18.314zm35.647 54.57l16.518-32.5-22.163-3.756 5.645 36.256zm-99.183-141.34l25.496-21.628-21.43 36.78-4.066-15.15zm23.82 33.69l1.676-55.318-21.43 36.78 19.755 18.537zm382.548 232.65l-8.837-7.66 1.488 16.188 7.35-8.527zm-13.548 46.332l12.774-25.74-6.574-12.064-6.2 37.804zm-27.49-28.163l4.225 22.303 12.655-30.904-16.88 8.6zm32.2-25.83l1.49 16.19-16.81 1.04 15.32-17.23zm-27.975 48.133l12.655-30.904 16.81-1.04-29.465 31.944zm0 0l23.265 5.86 6.2-37.804-29.465 31.944zm-366.584-217.21l18.415-1.933-13.576-3.66-4.84 5.592zm76.967-19.315l-28.195-24.064-5.15 10.79 33.345 13.275zm-39.612 65.05l14.245 35.356-13.188-18.704-1.057-16.652zm198.294 121.333l1.59 5.97 8.586-4.826-10.176-1.144zM998 349.04l14.187 27.457 8.173-1.27L998 349.04zm14.187 27.457l8.173-1.27 4.144 7.895-12.317-6.625zm-216.46-191.274l-18.453-15.33-.628-15.328 19.082 30.658zm86.94 99.48l-5.845-27.74h43.635l-37.79 27.74zm0 0l-6.928 2.298 1.082-30.038 5.846 27.742zm107.28 21.156l-10.565 3.83-14.388-28.125 24.954 24.294zm-285.35-174.617l22.772 23.322-13.142 4.85-9.63-28.172zm-23.82-39.913l10.48-9.437-20.49-11.38 10.01 20.817zm0-27.175l3.387 5.804-13.397.552 10.01-6.357zm10.48 17.738l-7.093-11.934-13.397.552 20.49 11.38zm13.34 49.35l9.63 28.17-15.91-.726 6.28-27.444zm0 0l27.923 12.533-5.15 10.79-22.772-23.323zm-20.85 55.912l4.84-5.59-23.123-34.78 18.284 40.37zm-18.283-40.37l18.284 40.37-15.61-14.535-2.674-25.834zm0 0l32.854 11.902-27.938-50.584-4.916 38.683zm19.378-34.08l19.756 18.538-34.218-23.14 14.462 4.603zm13.476 45.982l6.28-27.444-34.218-23.14 27.938 50.584zm-27.938-50.584l14.462 4.603-17.607-13.902 3.145 9.3zm.387-37.59l10.01 20.817-9.346 2.414-.663-23.232zm10.01 27.042l4.065 15.15-17.607-13.9 13.542-1.25zm-23.35-14.8l5.61 1.3 1.813-8.473-7.424 7.174zm5.61 1.3l8.394 9.69-6.58-18.163-1.812 8.474zm8.394 9.69l-.663-23.233-5.917 5.07 6.58 18.162zm8.437-43.43l.91 13.84-19.884 3.315 18.974-17.154zm-9.1 20.197l10.01-6.357-19.884 3.315 9.874 3.042zm-9.874-3.042l18.974-17.154-16.295-1.772-2.68 18.926zm-4.243 7.585l4.243-7.585-11.095-.828 6.852 8.413zm6.922-26.51l-2.68 18.925-11.094-.828 13.774-18.098zM649.798 66.64l13.774-18.098-23.917 9.37 10.143 8.728zm-10.143-8.73l10.143 8.73-6.638 21.27-3.505-30zm10.143 8.73l6.852 8.413-13.49 12.858 6.638-21.27zm-10.143-8.73l3.505 30-21.05-10.315 17.545-19.684zm3.505 30l6.99 7.12-6.99 6.517V87.912zm14.266-5.156l5.612 1.3-3.478 6.818-2.134-8.118zm5.612 1.3l8.393 9.688-11.87-2.87 3.478-6.818zM643.16 101.55l-.566 8.213-10.102 5.68 10.668-13.894zm-21.05-23.953l21.05 10.316-21.05 8.582V77.597zm10.382 37.846l10.668-13.894-21.05-5.055 10.382 18.948zm10.668-13.894V87.912l-21.05 8.582 21.05 5.054zm-21.05-23.953v18.898l-15.822-12.44 15.822-6.458zm-18.508 22.63l18.508-3.732-15.822-12.44-2.686 16.172zm0 0l18.508-3.732-8.335 6.115-10.173-2.383zm13.988 7.876l4.026-2.903-2.013 19.126-2.013-16.223zm12.577 12.266l5.544 3.49-16.107.466 10.564-3.957zm-13.958.73l1.38-12.997 2.013 16.223-3.394-3.225zm3.393 3.226l16.108-.466 7.45 16.687-23.557-16.22zm16.108-.466l21.716-6.22-14.266 22.907-7.45-16.687zm29.754 22.926l4.916-38.683-27.22 32.444 22.304 6.24zm-22.304-6.24l22.304 6.24-22.304 26.828v-33.067zm-29.656 46.897l3.635-3.34-3.377 11.705-.26-8.365zm67.478 28.94l-7.574-3.942 11.38 1.2-3.806 2.742zM668.14 172.62l-2.676-25.834-22.304 26.828 24.98-.994zm0 0l1.126 16.74-7.603 6.23 6.476-22.97zm4.623 28.243l-4.455 5.53-3.82-6.243 8.275.713zm-29.603-27.25l24.98-.993-12.69 6.673-12.29-5.68zm24.98-.993l-6.477 22.97-6.214-16.297 12.69-6.673zm-24.98-32.073v33.067l-10.668-11.972 10.668-21.095zm-23.557-16.22l23.557 16.22-20.157 5.492-3.4-21.714zm12.89 37.315l10.667-21.095-20.157 5.492 9.49 15.602zm7.31 45.552l1.166-7.044-12.432.713 11.264 6.33zM616.208 121.1l1.38-12.997-5.15 1.45 3.77 11.548zm6.793 24.94l-3.4-21.714-18.632 3.55 22.033 18.163zm-6.794-24.94l3.393 3.226-18.632 3.55 15.24-6.775zm6.793 24.94l9.49 15.602-16.657 6.992 7.167-22.595zm-22.032-18.164l22.033 18.163-7.167 22.594-14.865-40.758zm0 0l14.866 40.758-14.886-17.41.02-23.348zm14.866 40.758l16.656-6.992-3.954 6.525-12.702.467zm32.947 17.418l-.097.113-5.567 4.51-1.676-8.242 7.34 3.62zm-.663 7.667l-4.482 7.143-.515-10.188 4.997 3.044zm-47.15-65.844l-.02 23.35-22.174-4.44 22.195-18.91zm-22.194 18.91l22.174 4.44-7.603 23.05-14.57-27.49zm-4.435 27.906l8.87 11.36-7.66 16.586-1.21-27.946zm-29.468 29.828l.98-30.906 29.698 29.024-30.678 1.882zm0 0l11.835 3.46 18.843-5.342-30.678 1.882zm.98-30.906l28.49 1.078 1.208 27.946-29.697-29.024zm28.49 1.078l8.868 11.36-5.644-27.365-3.225 16.005zm-10.757-25.77l15.19-2.136-1.21 11.9-13.98-9.765zm19.625 37.13l10.137-11.775-15.78-15.59 5.643 27.366zm10.137-11.775l-14.57-27.49-1.21 11.9 15.78 15.59zm-10.137 11.776l10.137-11.776-.998 7.63-9.14 4.146zm10.137-11.776l7.603-23.052 14.886 17.41-22.49 5.642zm22.49-5.643l12.7-.467 1.63 15.45-14.33-14.983zm12.7-.467l12.91 14.26-11.28 1.19-1.63-15.45zm14.586 22.508l-1.676-8.247-11.28 1.19 12.956 7.057zM509.775 78.715l1.96-11.382 17.392 11.38h-19.352zm1.96-11.382l24.654-1.867-7.263 13.248-17.393-11.38zm31.915 3.677l-7.26-5.544-7.263 13.248 14.523-7.704zm70.113 124.798l3.376-11.704 1.188 10.548-4.565 1.156zm-26.52-59.704l1.33-7.626-15.41-6.343 14.08 13.97zm-23.658-3.306l9.577 1.018v-11.68l-9.577 10.662zm24.99-4.32l-13.867-16.57-1.546 10.227 15.412 6.343zm-25.45-18.715l10.037 12.372-3.027-16.935-7.01 4.563zm10.037 12.372l1.546-10.227-4.573-6.708 3.027 16.935zm5.41-16.48l-3.864 6.253-4.573-6.708 8.437.456zm-4.29-4.966l-6.892.86 2.745 3.65 4.146-4.51zm-26.675 24.74l6.748-8.47 5.742 12.95-12.49-4.48zm0 0l.322 8.96 12.167-4.48-12.49-4.48zm6.748-8.47h7.876l-2.133 12.95-5.742-12.95zm7.014 24.466l25.872-5.322-14.08-2.288-11.793 7.61zm11.792-19.29l14.08 13.968-14.08-2.288v-11.68zm-5.772-20.587l-4.264 8.213 7.01-4.563-2.746-3.65zm85.82 88.807l-5.41-.676.886-3.515.097-.113 4.427 4.305zm-4.524-4.192l-.886 3.516-4.68.995 5.566-4.51zm-.567 7.558l-5-3.048 4.68-.994.32 4.043zm13.543 1.866l7.603-6.23 5.873 10.56-13.477-4.33zm58.627-30.45l-8.894 3.322-4.793-5.588 13.687 2.267zm-36.542 22.015l-14.482 2.206-1.127-16.74 15.608 14.535zm4.84-5.59l-23.124-34.78 32.854 11.902-9.73 22.876zm-18.208-73.462l-12.954 9.537-14.266 22.907 27.22-32.444zm0 0l-12.954 9.537 4.636-13.11 8.318 3.573z" transform="translate(1 1)" stroke="url(#a)" fill="none" fill-rule="evenodd"/></svg>