<svg xmlns="http://www.w3.org/2000/svg" xmlns:xlink="http://www.w3.org/1999/xlink" width="980" height="378" viewBox="0 0 980 378"><title>Group 7</title><defs><path d="M6 0C2.7 0 0 2.7 0 6v102c0 3.3 2.7 6 6 6h48c3.3 0 6-2.7 6-6V6c0-3.3-2.7-6-6-6H6z" id="a"/><mask id="p" x="-2" y="-2" width="64" height="118"><path fill="#fff" d="M-2-2h64v118H-2z"/><use xlink:href="#a" width="100%" height="100%"/></mask><path id="b" d="M0 0h116.3v44.5H0z"/><mask id="q" x="-2" y="-2" width="120.299" height="48.5"><path fill="#fff" d="M-2-2h120.3v48.5H-2z"/><use xlink:href="#b" width="100%" height="100%"/></mask><circle id="c" cx="34.973" cy="34.973" r="34.973"/><mask id="s" x="-2" y="-2" width="73.946" height="73.946"><path fill="#fff" d="M-2-2h73.946v73.946H-2z"/><use xlink:href="#c" width="100%" height="100%"/></mask><path d="M43.356 60.734c-3.55-2.32-2.378-6.605-2.378-6.605l-10.71-.24-.402 4.833s0 1.34-2.01 2.01c0 0-14.84.83-18.283 2.84 0 0 7.95 1.685 7.663 3.53 0 0 7.655 4.242 18.37 4.242 10.716 0 18.37-4.243 18.37-4.243-.287-1.844 6.178-4.123 6.178-4.123-13.087.113-16.798-2.246-16.798-2.246z" id="d"/><mask id="u" x="-2" y="-2" width="54.581" height="21.454"><path fill="#fff" d="M7.573 51.89h54.58v21.455H7.574z"/><use xlink:href="#d" width="100%" height="100%"/></mask><circle id="e" cx="34.973" cy="34.973" r="34.973"/><mask id="v" x="-2" y="-2" width="73.946" height="73.946"><path fill="#fff" d="M-2-2h73.946v73.946H-2z"/><use xlink:href="#e" width="100%" height="100%"/></mask><path d="M43.356 60.734c-3.55-2.32-2.378-6.605-2.378-6.605l-10.71-.24-.402 4.833s0 1.34-2.01 2.01c0 0-14.84.83-18.283 2.84 0 0 7.95 1.685 7.663 3.53 0 0 7.655 4.242 18.37 4.242 10.716 0 18.37-4.243 18.37-4.243-.287-1.844 6.178-4.123 6.178-4.123-13.087.113-16.798-2.246-16.798-2.246z" id="f"/><mask id="x" x="-2" y="-2" width="54.581" height="21.454"><path fill="#fff" d="M7.573 51.89h54.58v21.455H7.574z"/><use xlink:href="#f" width="100%" height="100%"/></mask><circle id="g" cx="34.973" cy="34.973" r="34.973"/><mask id="y" x="-2" y="-2" width="73.946" height="73.946"><path fill="#fff" d="M-2-2h73.946v73.946H-2z"/><use xlink:href="#g" width="100%" height="100%"/></mask><path d="M43.356 60.734c-3.55-2.32-2.378-6.605-2.378-6.605l-10.71-.24-.402 4.833s0 1.34-2.01 2.01c0 0-14.84.83-18.283 2.84 0 0 7.95 1.685 7.663 3.53 0 0 7.655 4.242 18.37 4.242 10.716 0 18.37-4.243 18.37-4.243-.287-1.844 6.178-4.123 6.178-4.123-13.087.113-16.798-2.246-16.798-2.246z" id="h"/><mask id="A" x="-2" y="-2" width="54.581" height="21.454"><path fill="#fff" d="M7.573 51.89h54.58v21.455H7.574z"/><use xlink:href="#h" width="100%" height="100%"/></mask><circle id="i" cx="35" cy="35" r="35"/><mask id="B" x="-2" y="-2" width="74" height="74"><path fill="#fff" d="M-2-2h74v74H-2z"/><use xlink:href="#i" width="100%" height="100%"/></mask><path id="j" d="M30.973 51.44l.557-.17 3.953 3.747 3.962-3.743.555.208v19.625l-4.56 5.515-4.467-5.515z"/><mask id="D" x="-2" y="-2" width="13.027" height="29.351"><path fill="#fff" d="M28.973 49.27H42v29.352H28.973z"/><use xlink:href="#j" width="100%" height="100%"/></mask><path d="M35.97 10.26c-1.65 0-13.756-.684-15.67 9.74v25.99s0 3.952 3.3 6.76c3.298 2.806 5.772 5.406 8.245 5.717 1.99.25 3.578.1 4.124.03.545.07 2.133.22 4.122-.03 2.474-.31 4.947-2.91 8.247-5.718 3.298-2.808 3.298-6.76 3.298-6.76V20c-1.915-10.424-13.95-9.74-15.67-9.74" id="k"/><mask id="E" x="-2" y="-2" width="35.336" height="52.355"><path fill="#fff" d="M18.3 8.25h35.337v52.356H18.3z"/><use xlink:href="#k" width="100%" height="100%"/></mask><circle id="l" cx="35" cy="35" r="35"/><mask id="F" x="-2" y="-2" width="74" height="74"><path fill="#fff" d="M-2-2h74v74H-2z"/><use xlink:href="#l" width="100%" height="100%"/></mask><path d="M44.386 63.133c-2.69-2.228-2.4-7.172-2.4-7.172l-12.544-.278s2.33 3.226-.54 6.94c-2.868 3.712-19.663 2.046-23.697 4.4 0 0 9.312 1.974 8.976 4.133 0 0 8.966 4.97 21.516 4.97 12.55 0 21.515-4.97 21.515-4.97-.335-2.16 7.236-4.83 7.236-4.83-15.327.135-17.37-.964-20.06-3.192z" id="m"/><mask id="H" x="-2" y="-2" width="63.241" height="24.443"><path fill="#fff" d="M3.205 53.682h63.24v24.443H3.206z"/><use xlink:href="#m" width="100%" height="100%"/></mask><circle id="n" cx="35" cy="35" r="35"/><mask id="I" x="-2" y="-2" width="74" height="74"><path fill="#fff" d="M-2-2h74v74H-2z"/><use xlink:href="#n" width="100%" height="100%"/></mask><path d="M44.386 63.133c-2.69-2.228-2.4-7.172-2.4-7.172l-12.544-.278s2.33 3.226-.54 6.94c-2.868 3.712-19.663 2.046-23.697 4.4 0 0 9.312 1.974 8.976 4.133 0 0 8.966 4.97 21.516 4.97 12.55 0 21.515-4.97 21.515-4.97-.335-2.16 7.236-4.83 7.236-4.83-15.327.135-17.37-.964-20.06-3.192z" id="o"/><mask id="K" x="-2" y="-2" width="63.241" height="24.443"><path fill="#fff" d="M3.205 53.682h63.24v24.443H3.206z"/><use xlink:href="#o" width="100%" height="100%"/></mask></defs><g fill="none" fill-rule="evenodd"><g opacity=".634" stroke="#fff" stroke-width="2" transform="translate(-169 -160.78)"><ellipse transform="rotate(-150 658.574 616.288)" cx="658.574" cy="616.288" rx="450.858" ry="450.183"/><path d="M863.4 1010.51l6.672-44.67 51.918 9.416-11.938-58.287 54.505 22.765-5.748-66.46 46.71 21.093-6.683-69.937 43.99 18.056-9.563-59.853 44.91-16.655-37.638-39.352 54.924-21.154-31.81-26.173-22.028-18.127 66.84-36.887-43.17-34.68 37.048-40.505-61.184-14.48 42.983-62.182-71.1-11.385 39.96-57.21-74.68-2.483 34.062-60.542-69.798-10.017 24.993-41.075-54.02-7.99-18.09-46.617-35.957 33.036-12.348-58.94-51.86 35.15-14.3-60.002-49.797 43.66-22.662-58.71-60.446 64.998-31.967-64.297-35.64 69.317-53.973-52.527-42.644 74.573-76.69-14.91 55.967 66.087 2.776 58.872 4.126 36.156-2.43 50.058-73.068 29.766L284.84 519.51l5.29-42.468 94.22 7.466 69.61 37.36-70.777 20.703 13.546 50.407-39.54-25.765-52.034 21.353 57.363 43.398-79.144 7.17-43.573-44.247-27.036 62.11L276.3 643.75l-60.2 43.134 53.92-.34 31.625-.198 32.842 42.456 5.022 49.89-104.305-20.572"/><path d="M869.704 965.858l40.616-49.972 46.437-42.143 41.72-49.335 33.405-42.388 7.704-54.29.403-64.378 24.25-72.572-23.005-54.4-28.612-75.256-36.41-59.2L941.578 332l-27.925-48.427-54.422-15.268-65.92-23.374-63.415-17.522-81.984 6.998-67.607 5.02L482 261.965l-19.453 48.975 85.76-3.35 67.646-15.278 58.017-16.43 90.086 9.535 68.153 24.6 76.907 7.715 32.945 14"/><path d="M940.504 331.323l-29.846 41.506 66.218 27.95-36.166 42.263 70.838 17.403-33.492 45.274 61.637 28.244-34.725 37.22 60.788 18.103-66.538 40.253 40.304 32.08-44.65 31.49 44.883 31.787-58.225 29.527 51.542 25.352-34.47 41.773-54.768-19.874 14.74 68.716-44.755-24.37-6.256 66.873-31.947-28.724-5.828 78.87"/><path d="M910.1 371.037l30.587 71.946 35.606 63.142 29.118 66.738-6.85 57.718-4.816 61.832-13.807 59.577-38.226 48.477-29.967 44.263-38.67 36.412M912.864 280.023l-3.932 37.378-50.66-49.805-27.003 41.678-37.096-65.47-32.052 40.232-29.326-53.642-59.704 44.825-23.214-41.303-31.96 57.906-40.275-52.62-30.26 67.7-62.832-46.556"/><path d="M872.723 879.47l8.566-86.16 29.494 50.803 31.023-43.654-53.488-11.793L916.154 743l29.08-47.82-28.603-64.973-29.974-90.727-8.014-113.292 32.232-53.28"/><path d="M940.833 799.897l-24.577-56.774 63.92 9.005-36.11-54.624 48.816-5.59-77.3-62.25 81.553 1.392-57.316-43.37 64.316-17.153-60.196-33.287 32.683-30.948-46.662-21.066 9.857-39.998-60.573-17.35M848.72 730.378l29.716-48.923-25.68-57.41-15-83.55-21.643-38.93 60.925-74.957"/><path d="M847.032 730.763l68.333 11.552-37.432-59.79M943.89 695.64l-65.79-15.957 37.138-49.043-64.39-10.742 33.312-80.622-66.564-39.9M848.386 374.71l-56.29-22.22-57.655-37.69-60.96-39.603M791.163 397.41l-69.994-31.6-43.96-38.597-59.007-35.536"/><path d="M847.145 373.824l-15.077-63.037-40.138 41.5-28.482-67.84-29.666 28.46M916.378 628.253l22.938-39.62 4.776-51.575-14.697-50.96-53.462-60.236M939.905 587.614l-54.137-48.877M942.474 534.765l-57.836 3.382M928.264 485.508l-44.094 50.9M877.385 785.06l-92.26-156.056 51.504-89.207"/><path d="M909.164 317.353l-62.07 56.566-216.07 94.048M815.822 718.61l-51.688-60.785-52.358-59.598-39.85-68.53L630 467.314"/><path d="M815.937 718.394l-5.71 48.098-49.206-16.66-8.408-38.74-65.193-6.8-63.957 29.153-59.12 15.794-47.247 7.964-58.406-5.82-76.262-2.914-47.298-19.966"/><path d="M759.836 655.166l-8.89 53.605-70.68-58.428 4.852 52.728-57.61-20.045-3.504 49.372-72.33-40.29-37.515 64.978-28.7-64.92-33.09 57.318-38.683-50.17-31.875 47.566-22.885-57.266-25.733 39.475M759.737 656.546l30.104-28.706"/><path d="M758.368 657.49l-79.87-9.402-54.826 34.207-74.095 8.617-66.166-.022-69.466 8.352-56.498-9.125-57.94-4.082M709.79 596.92l-33.83 50.953-56.437-64.89-39.176 44.93-62.13 18.46-87.21-1.89-70.512-12.874M668.98 527.774l-51.096 52.84-84.917-10.847L471.9 599.12l-76.092-5.752M667.88 527.128l-144.385-27.56-69.087 20.318"/><path d="M617.133 584.465l-27.76-71.827-58.767 55.748-77.675-46.314 17.685 76.353 49.725 46.33 30.468 44.022 14.06 59.514M629.413 468.374l-60.573-17.35-51.79-2-50.723 8.893"/><path d="M628.357 467.656l-39.176 44.93-19.826-59.906-46.598 45.05-5.873-45.867M760.28 750.98l-131.813 29.626-63.002-32.453-14.004 71.412 8.712 64.05-50.076 45.978 16.388 50.578-32.558 48.75M464.518 371.7l-75.47-45.04 17.23-78.05M236.013 461.245l52.453 14.65-38.1-47.906M328.696 507.997l-40.33-32.037M814.667 718.03l-63.306-7.05"/><path d="M751.658 709.672l-26.133 47.986-41.14-53.046 4.347 61.247-66.564-32.558 3.424 47.562-72.764 38.03M514.04 757.567l36.877 60.94-61.507-20.828-35.347-48.308-24.696 50.416-47.676-52.426-5.618 65.772-37.76-36.486-20.854 43.76-30.598-51.438-32.004 40.15M333.805 728.412l-62.533-41.977-36.58 68.455M681.308 648.692L577.64 627.02M624.654 680.592l-94.27-111.632M580.566 627.237l-28.848 62.703M530.434 568.874l-9.136 76.958-36.733 45.24-54.373-47.914-18.05 54.19-55.33-67.187 2.775 58.872-80.227-52.083 22.24 48.082"/><path d="M470.423 598.947L430.78 642.14l-35.05-49.377-39.65 38.662M452.027 523.824l-57.745 69.45"/><path stroke-dasharray="2.1" d="M522.55 498.463l-55.744-40.995-14.613 63.517"/><path d="M529.7 570.14l-7.757-70.62M383.413 541.596l-58.17 5.88-45.07 88.732M876.934 679.583l-66.015-7.038 40.85-48.607-66.258 2.862M551.18 820.144l-31.974 19.72-28.898-41.65-26.07 45.156-35.048-43.73-20.08 60.25-32.647-45.343-30.52 52.864-28.772-44.51-32.475 38.518"/><path d="M525.056 982.57l-68.722-33.804-59.133-22.393-63.155-2.69 10.628-54.068-62.65-11.208M558.91 883.174l-62.69-.95-32.544-37.88M513.053 757.898l-22.89 39.648"/><path d="M558.183 884.222l-38.526-42.8-57.173 2.232-54.54 15.502-65.57 9.133"/><path d="M493.678 1029.067l-22.747-39.565-15.324-39.685-4.087-46.413 10.965-59.748M509.866 929.813l-12.193-45.22 19.703-44.424M495.42 883.292l-98.386 43.05M284.224 770.208l-11.69-81.64M487.477 795.048l-58.995 2.65-51.725 15.72-62.09 8.206-62.482-14.047M357.103 628.687l-.743-62.075M790.023 398.467l2.064-44.33-71.89 9.89 12.078-48.828-56.604 11.435.663-49.544M720.024 366.986l-.702 59.8-46.502-34.19-41.732-37.247-51.023 4.315-49.544-10.983-67.916-37.743"/><path d="M718.38 364.63l-46.054 26.276 3.836-65.23-45.147 29.798-12.236-62.865-42.732 66.37-30.13-49.7-17.04 37.153M670.348 394.334l.74 54.76-61.478-41.368-69.138-7.61-75.846-29.107"/><path d="M670.327 394.26l-61.794 12.783 21.827-50.54M630.1 466.484l-21.734-56.602-32.337-50.975"/><path d="M607.9 408.142l-39.008 42.09-27.288-49.53-71.72 7.052"/><path d="M574.952 358.225l-35.53 41.16-21.96 52.015-47.723-40.85"/><path d="M539.97 401.17L529.436 348.1l-63.57 23.503M463.25 311.732l-73.984 14.232M392.592 490.88l-10.487 51.276M669.964 909.536l-23.993 39.01-20.468 38.11-16.895-42.06 20.17-42.686 37.606-47.305zM852.55 621.188l-40.53-36.68M809.283 765.013L752.6 710.26M884.27 538.226l-47.376.548M469.676 408.542l-92.67 5.13 14.402 74.396M465.75 456.1l-90.994-43.725M356 566.15l-72.203-46.825M304.54 587.835l-21.158-66.516M303.89 588.96l-64.997 4.323M381.137 541.728l-56.042-35.293M911.657 372.293l-65.684 1.812"/><path d="M875.067 426.178l-86.896-30.346" stroke-dasharray="2.1,2.1"/><path d="M873.496 427.53l-28.456-53.876M816.22 498.718l-27.902-102.013M815.56 499.805l-97.236-72.293M788.247 398.1l-24.007 63.232M848.015 731.498l-33.66-14.294M809.313 672.442l4.405 45.863M880.104 795.547l-70.396-29.63M845.76 731.6l-35.193 35.484M810.023 583.354L765.24 462.05M378.857 411.13l-62.307-87.5 72.826 2.087z"/><path stroke-dasharray="2.1" d="M291.654 475.905l87.514-64.063-128.833 16.456"/><path d="M287.12 520.73l-68.96 2.8 85.894 65.006M835.93 538.106l-43.095-4.322 22.016-33.04M927.112 484.796l-44.366-2.12-51.322-.262M670.024 527.59l7.76 119.016M710.976 596.757l76.36 30.87M630.817 468.243L794.1 534.615M671.437 449.048l14.053 41.887 79.857-28.785-20.602 52.2M712.884 596.327l100.008-12.745-69.924-69.74"/><path d="M669.638 528.773l17.675-38.255 24.223 105.69 32.535-81.73M629.14 783.187l16.802 50.41-91.742-14.003M647.312 833.596l42.006-66.512 36.404 55.31 35.593-72.113 32.286 70.714 18.873-54.61L874.73 858.1"/><path d="M666.103 852.42l60.207-29.405-77.71 11.25zM848.774 820.994L803.268 858.1l-77.71-35.706h67.91zM553.98 819.676l96.61 48.34"/></g><g transform="translate(103.124 52.935)" opacity=".44" stroke="#fff" stroke-width="1.965"><ellipse transform="rotate(-150 345.21 367.016)" cx="345.211" cy="367.016" rx="10.189" ry="10.174" fill="#08b5e5"/><ellipse transform="rotate(-150 605.406 211.814)" cx="605.406" cy="211.814" rx="10.189" ry="10.174" fill="#dcf2f9"/><ellipse transform="rotate(-150 121.32 275.925)" cx="121.32" cy="275.925" rx="10.189" ry="10.174" fill="#f7a696"/><ellipse transform="rotate(-150 398.67 177.617)" cx="398.67" cy="177.617" rx="10.189" ry="10.174" fill="#fde699"/><ellipse transform="rotate(-150 269.854 187.42)" cx="269.854" cy="187.419" rx="10.189" ry="10.174" fill="#ffd7bc"/><ellipse transform="rotate(-150 318.16 298.74)" cx="318.16" cy="298.739" rx="10.189" ry="10.174" fill="#d0c8ff"/><ellipse transform="rotate(-150 461.678 14.487)" cx="461.678" cy="14.487" rx="10.189" ry="10.174" fill="#d0c8ff"/><ellipse transform="rotate(-150 545.69 284.737)" cx="545.689" cy="284.737" rx="10.189" ry="10.174" fill="#08b5e5"/><ellipse transform="rotate(-150 14.32 307.14)" cx="14.321" cy="307.141" rx="10.189" ry="10.174" fill="#08b5e5"/><ellipse transform="rotate(-150 348.264 78.9)" cx="348.264" cy="78.899" rx="10.189" ry="10.174" fill="#fff"/><ellipse transform="rotate(-150 561.09 96.402)" cx="561.091" cy="96.402" rx="10.189" ry="10.174" fill="#f7a696"/><ellipse transform="rotate(-150 740.314 246.23)" cx="740.314" cy="246.23" rx="10.189" ry="10.174" fill="#d0c8ff"/><ellipse transform="rotate(-150 213.846 47.393)" cx="213.846" cy="47.393" rx="10.189" ry="10.174" fill="#dcf2f9"/><ellipse transform="rotate(-150 106.448 199.79)" cx="106.448" cy="199.79" rx="10.189" ry="10.174" fill="#dcf2f9"/></g><g transform="translate(547 23.22)"><use xlink:href="#a" width="100%" height="100%" fill="#fff"/><use mask="url(#p)" xlink:href="#a" width="100%" height="100%" stroke="#5b6a72" stroke-width="4"/></g><path fill="#f4f6f5" stroke="#5b6a72" stroke-width="2" d="M601 41.22h-48v78h48z"/><path d="M580 128.22a3 3 0 1 1-6 0 3 3 0 0 1 6 0zM572.5 32.22h9" stroke="#5b6a72" stroke-width="2" stroke-linecap="round" stroke-linejoin="round"/><path fill="#dcf2f9" stroke="#5b6a72" stroke-width="2" d="M637 53.22h-84v54h84z"/><path fill="#fff" stroke="#5b6a72" stroke-width="2" stroke-linecap="round" stroke-linejoin="round" d="M631 59.22h-78v42h78z"/><path d="M601 80.22c0 6.628-5.373 12-12 12-6.628 0-12-5.372-12-12s5.372-12 12-12c6.627 0 12 5.372 12 12zM625 80.22h-18M571 80.22h-18M659 79.22h57M886 253.22h-57M829 79.22h57M300 226.22h57M300 81.22h57M467 81.22h57M944 135.22v57M771 192.22v-57" stroke="#5b6a72" stroke-width="2" stroke-linecap="round" stroke-linejoin="round"/><path fill="#fff" d="M115.783 114.96H6.217v5.218h109.566z"/><path d="M6.217 120.178v-5.218" stroke="#5b6a72" stroke-width="2" stroke-linecap="round" stroke-linejoin="round"/><path fill="#fff" d="M27.087 125.395H16.652v62.61h10.435zM53.174 125.395H42.74v62.61h10.434zM79.26 125.395H68.827v62.61H79.26zM105.348 125.395H94.913v62.61h10.435zM110.565 120.178h-99.13v5.217h99.13z"/><path fill="#fff" d="M110.565 188.004h-99.13v5.217h99.13zM6.217 114.96h109.566L61 73.22z"/><path d="M11.435 193.22v-5.216M11.435 188.004h99.13M110.565 188.004v5.217M16.652 188.004v-62.61M27.087 188.004v-62.61M42.74 188.004v-62.61M53.174 188.004v-62.61M68.826 188.004v-62.61M79.26 188.004v-62.61M94.913 188.004v-62.61M105.348 188.004v-62.61M11.435 125.395h99.13M110.565 120.178v5.217M110.565 120.178h-99.13M11.435 120.178v5.217M6.217 120.178h5.218M110.565 120.178h5.218M115.783 120.178v-5.218M6.217 114.96L61 73.22M115.783 114.96L61 73.22M6.217 114.96h109.566M27.087 109.743L61 83.656M61 83.656l33.913 26.087M94.913 109.743H27.087M21.87 182.786v-52.174M47.957 182.786v-52.174M74.043 182.786v-52.174M100.13 182.786v-52.174M121 193.22H1v10.436h120z" stroke="#5b6a72" stroke-width="2" stroke-linecap="round" stroke-linejoin="round"/><g><path d="M429.86 309.772v-39.574s0-1.367.396-3.007c.496-2.045.99-3.27.99-3.27l1.778-4.063h22.29a6.364 6.364 0 0 0 6.363-6.363h-64.54c-2.404 2.968-4.526 5.69-5.46 7.16-2.784 4.374-.995 7.953-.742 11.162l7.105 37.956" fill="#f4f6f5"/><path d="M435.86 253.494h32.23c3.5 0 6.365-2.864 6.365-6.364v-44.545c0-3.5-2.864-6.364-6.364-6.364h-82.726c-3.5 0-6.364 2.865-6.364 6.365v44.545c0 3.5 2.864 6.364 6.364 6.364h36.604" fill="#dcf2f9" stroke="#5b6a72" stroke-width="2"/><path fill="#5b6a72" d="M474.455 208.948H379v12.728h95.455z"/><path d="M385.364 234.403h12.727M404.455 234.403h12.727M455.364 234.403h12.727M385.364 240.766h6.363" stroke="#5b6a72" stroke-width="2" stroke-linecap="round" stroke-linejoin="round"/><path d="M410.818 279.582l16.705-38.182a6.36 6.36 0 0 1 8.38-3.28 6.362 6.362 0 0 1 3.28 8.382l-7.623 17.42s-.496 1.226-.99 3.272c-.4 1.64-.4 3.007-.4 3.007v39.575" fill="#f4f6f5"/><path d="M449.717 264.37l-10.313-4.513h-6.34l-3.155 9.738 14.705 6.435a6.362 6.362 0 0 0 8.38-3.28 6.36 6.36 0 0 0-3.278-8.38" fill="#f4f6f5" stroke="#5b6a72" stroke-width="2"/><path d="M410.818 279.582l16.705-38.182a6.36 6.36 0 0 1 8.38-3.28 6.362 6.362 0 0 1 3.28 8.382l-7.623 17.42s-.496 1.226-.99 3.272c-.4 1.64-.4 3.007-.4 3.007v39.575" fill="#f4f6f5" stroke="#5b6a72" stroke-width="2" stroke-linecap="round" stroke-linejoin="round"/><path d="M398.04 309.772l-7.105-37.956c-.253-3.21-2.042-6.788.742-11.163.934-1.47 3.056-4.19 5.46-7.16M461.744 253.494a6.364 6.364 0 0 1-6.364 6.363h-22.29" stroke="#5b6a72" stroke-width="2" stroke-linecap="round" stroke-linejoin="round"/><path fill="#dcf2f9" stroke="#5b6a72" stroke-width="2" stroke-linecap="round" stroke-linejoin="round" d="M436.273 310.766h-44.546v12.728h44.546z"/><path d="M391.727 323.494v62.422M436.273 323.494v60.79M404.455 323.494v-12.728M410.818 317.13h6.364" stroke="#5b6a72" stroke-width="2" stroke-linecap="round" stroke-linejoin="round"/></g><g><path fill="#fff" d="M641 234.22H497v6.25h144z"/><path fill="#fff" stroke="#5b6a72" stroke-width="2" stroke-linecap="round" stroke-linejoin="round" d="M641 234.22H497v175h144z"/><path d="M497 240.47h144M509.522 252.97h18.782M522.043 259.22h18.783M547.087 259.22h37.565M590.913 259.22h6.26" stroke="#5b6a72" stroke-width="2" stroke-linecap="round" stroke-linejoin="round"/><path d="M603.435 259.22h25.043M522.043 265.47h37.566" stroke="#f7a696" stroke-width="2" stroke-linecap="round" stroke-linejoin="round"/><path d="M565.87 265.47h18.782M590.913 265.47h6.26M522.043 271.72h18.783M547.087 271.72h37.565" stroke="#5b6a72" stroke-width="2" stroke-linecap="round" stroke-linejoin="round"/><path d="M522.043 277.97h43.827" stroke="#f7a696" stroke-width="2" stroke-linecap="round" stroke-linejoin="round"/><path d="M509.522 290.47h18.782M522.043 296.72h31.305M559.61 296.72h31.303M597.174 296.72h6.26M609.696 296.72h18.782M522.043 302.97h25.044M553.348 302.97h12.522M572.13 302.97h25.044M522.043 309.22h31.305" stroke="#5b6a72" stroke-width="2" stroke-linecap="round" stroke-linejoin="round"/><path d="M559.61 309.22h25.042" stroke="#f7a696" stroke-width="2" stroke-linecap="round" stroke-linejoin="round"/><path d="M522.043 315.47h43.827" stroke="#5b6a72" stroke-width="2" stroke-linecap="round" stroke-linejoin="round"/><path d="M509.522 365.47h18.782" stroke="#f7a696" stroke-width="2" stroke-linecap="round" stroke-linejoin="round"/><path d="M522.043 371.72h31.305M559.61 371.72h31.303M597.174 371.72h6.26M609.696 371.72h18.782M522.043 377.97h25.044M553.348 377.97h12.522M572.13 377.97h25.044M522.043 384.22h31.305M559.61 384.22h25.042M522.043 390.47h43.827M509.522 327.97h18.782M522.043 334.22h18.783M547.087 334.22h37.565M590.913 334.22h6.26M603.435 334.22h25.043" stroke="#5b6a72" stroke-width="2" stroke-linecap="round" stroke-linejoin="round"/><path d="M522.043 340.47h37.566" stroke="#f7a696" stroke-width="2" stroke-linecap="round" stroke-linejoin="round"/><path d="M565.87 340.47h18.782M590.913 340.47h6.26M522.043 346.72h18.783M547.087 346.72h37.565M522.043 352.97h43.827" stroke="#5b6a72" stroke-width="2" stroke-linecap="round" stroke-linejoin="round"/></g><path d="M140 81.22v16M184.01 81.22H140" stroke="#5b6a72" stroke-width="2" stroke-linecap="round" stroke-linejoin="round"/><g stroke="#5b6a72" stroke-width="2" stroke-linecap="round" stroke-linejoin="round"><path d="M140 226.22v-16M184.01 226.22H140"/></g><g stroke="#5b6a72" stroke-width="2"><path d="M975.135 236.903a4.914 4.914 0 0 0-6.962 0l-13.925 13.965a4.95 4.95 0 0 0 0 6.982 4.914 4.914 0 0 0 6.964.002l13.924-13.965a4.95 4.95 0 0 0 0-6.984z" fill="#f4f6f5"/><path d="M922.846 225.16c0-2.717 2.216-4.94 4.923-4.94h34.46c2.708 0 4.924 2.223 4.924 4.94v69.124c0 2.715-2.216 4.937-4.923 4.937h-34.46c-2.708 0-4.924-2.22-4.924-4.936V225.16z" fill="#fff"/><path fill="#f4f6f5" d="M962.23 230.096h-34.46v59.25h34.46z"/><path d="M949.923 225.16h-9.846" stroke-linecap="round" stroke-linejoin="round"/><path d="M974.13 257.296a4.92 4.92 0 0 0-6.264-3.05l-4.65 1.62a4.94 4.94 0 0 0-3.04 6.28 4.92 4.92 0 0 0 6.264 3.05l4.652-1.618a4.94 4.94 0 0 0 3.04-6.282M974.13 268.79a4.92 4.92 0 0 0-6.264-3.048l-4.65 1.618a4.94 4.94 0 0 0-3.04 6.282 4.92 4.92 0 0 0 6.264 3.048l4.652-1.617a4.94 4.94 0 0 0 3.04-6.283M973.49 281.417a4.913 4.913 0 0 0-6.752-1.703l-4.224 2.536c-2.334 1.4-3.09 4.432-1.697 6.772a4.917 4.917 0 0 0 6.753 1.7l4.224-2.534a4.944 4.944 0 0 0 1.696-6.77M947.462 328.846v-9.875c0-7.714 9.846-9.874 9.846-19.75h-14.77c0-8.187-6.605-14.81-14.77-14.81v-9.876l3.482-3.49c3.848-3.86 3.848-10.108 0-13.966l-13.327 13.366v58.402" fill="#f4f6f5"/><path stroke-linecap="round" stroke-linejoin="round" d="M952.385 328.846H913v9.875h39.385zM927.77 338.72v-9.874M913 338.72v39.5M952.385 338.72v39.5"/></g><g><path d="M451 193.95c0 13.108-10.52 23.733-23.5 23.733S404 207.058 404 193.95c0-13.105 10.52-23.73 23.5-23.73s23.5 10.625 23.5 23.73" fill="#dcf2f9"/><path d="M451 193.95c0 13.108-10.52 23.733-23.5 23.733S404 207.058 404 193.95c0-13.105 10.52-23.73 23.5-23.73s23.5 10.625 23.5 23.73z" stroke="#5b6a72" stroke-width="2" stroke-linecap="round" stroke-linejoin="round"/><path d="M446.727 193.95c0 10.724-8.608 19.418-19.227 19.418-10.62 0-19.227-8.694-19.227-19.417 0-10.722 8.608-19.414 19.227-19.414 10.62 0 19.227 8.692 19.227 19.415" fill="#fff"/><path d="M446.727 193.95c0 10.724-8.608 19.418-19.227 19.418-10.62 0-19.227-8.694-19.227-19.417 0-10.722 8.608-19.414 19.227-19.414 10.62 0 19.227 8.692 19.227 19.415zM427.5 193.95l-5.052-3.98M427.5 193.95l7.12-7.908" stroke="#5b6a72" stroke-width="2" stroke-linecap="round" stroke-linejoin="round"/></g><g transform="translate(68 132.22)"><g transform="translate(1.723 .462)"><mask id="r" fill="#fff"><use xlink:href="#b" width="100%" height="100%"/></mask><use xlink:href="#b" width="100%" height="100%" fill="#fff"/><use mask="url(#q)" xlink:href="#b" width="100%" height="100%" stroke="#5b6a72" stroke-width="4"/><ellipse mask="url(#r)" cx="-1.736" cy="-1.285" rx="12.153" ry="12.426" stroke="#5b6a72" stroke-width="2"/><ellipse mask="url(#r)" cx="-1.736" cy="44.99" rx="12.153" ry="12.426" stroke="#5b6a72" stroke-width="2"/><ellipse mask="url(#r)" cx="118.057" cy="-1.285" rx="12.153" ry="12.426" stroke="#5b6a72" stroke-width="2"/><ellipse mask="url(#r)" cx="118.057" cy="44.99" rx="12.153" ry="12.426" stroke="#5b6a72" stroke-width="2"/></g><ellipse cx="60.29" cy="22.712" rx="17.454" ry="17.566" fill="#f4f4f4" stroke="#5b6a72" stroke-width="2"/><text font-size="9.6" font-weight="700" font-family="Helvetica-Bold,Helvetica" fill="#5b6a72"><tspan x="112.133" y="9.629">1</tspan></text><text font-size="9.6" font-weight="700" font-family="Helvetica-Bold,Helvetica" fill="#5b6a72"><tspan x="112.133" y="44.764">1</tspan></text><text font-size="9.6" font-weight="700" font-family="Helvetica-Bold,Helvetica" fill="#5b6a72"><tspan x="2.757" y="9.629">1</tspan></text><text font-size="9.6" font-weight="700" font-family="Helvetica-Bold,Helvetica" fill="#5b6a72"><tspan x="2.757" y="44.764">1</tspan></text></g><g><path fill="#f7a696" d="M664 234.22h-48v48h48z"/><path stroke="#5b6a72" stroke-width="2" stroke-linecap="round" stroke-linejoin="round" d="M664 234.22h-48v48h48zM624 234.22v-16M656 218.22v16M624 218.22c0-8.836 7.164-16 16-16s16 7.164 16 16M632 218.22a8 8 0 0 1 16 0M632 218.22v16M648 218.22v16M616 242.22h48M664 274.22h-48"/><path d="M644 254.22a4 4 0 1 1-8 0 4 4 0 0 1 8 0zM640 266.22v-8" stroke="#5b6a72" stroke-width="2" stroke-linecap="round" stroke-linejoin="round"/></g><g transform="translate(380 13.22)"><mask id="t" fill="#fff"><use xlink:href="#c" width="100%" height="100%"/></mask><use xlink:href="#c" width="100%" height="100%" fill="#ffd7bc"/><use mask="url(#s)" xlink:href="#c" width="100%" height="100%" stroke="#5b6a72" stroke-width="4"/><g mask="url(#t)"><use xlink:href="#d" width="100%" height="100%" fill="#f4f4f4"/><use mask="url(#u)" xlink:href="#d" width="100%" height="100%" stroke="#5b6a72" stroke-width="4"/></g><path d="M49.796 40.475c.157 6.23-5.66 11.52-5.66 11.52v6.587l.022 19.602 9.084.156s.443-33.495.543-50.986c.006-1.05-.223-2.305-.223-2.305S51.422 9.616 36.237 9.304c-15.186-.31-18.31 9.682-18.822 13.702-.512 4.02-.395 9.21-.395 9.21l.27 23.428.466 21.683 8.56.39.477-25.58s-6.38-4.673-6.224-21.496" mask="url(#t)" fill="#fff" stroke="#5b6a72" stroke-width="2"/><path d="M19.84 30.417l-.022-.172 1.22.01c4.38-.64 19.295-3.22 21.634-8.965 2.592-6.366-2.68 5.78 7.07 9.174l1.9.014-.066.48.072.013h-.074l-1.69 12.074s-3.518 13.013-14.067 13.514c-7.684.365-11.904-6.707-13.63-10.575-.6-1.348-2.15-13.937-2.348-15.565h-.01.01z" mask="url(#t)" fill="#d88864" stroke="#5b6a72" stroke-width="2"/><path d="M30.505 36.43a1.632 1.632 0 1 1-3.263 0 1.632 1.632 0 0 1 3.263 0M44.35 36.43a1.632 1.632 0 1 1-3.264 0 1.632 1.632 0 0 1 3.264 0" mask="url(#t)" fill="#5b6a72"/><path d="M30.51 47.735c2.872 3.862 7.015 3.003 9.592.39M33.775 44.093a2.207 2.207 0 0 0 3.16.012" mask="url(#t)" stroke="#5b6a72" stroke-width="2" stroke-linecap="round" stroke-linejoin="round"/></g><g transform="translate(909 42.22)"><mask id="w" fill="#fff"><use xlink:href="#e" width="100%" height="100%"/></mask><use xlink:href="#e" width="100%" height="100%" fill="#fde699"/><use mask="url(#v)" xlink:href="#e" width="100%" height="100%" stroke="#5b6a72" stroke-width="4"/><g mask="url(#w)"><use xlink:href="#f" width="100%" height="100%" fill="#f4f4f4"/><use mask="url(#x)" xlink:href="#f" width="100%" height="100%" stroke="#5b6a72" stroke-width="4"/></g><path d="M49.796 40.475c.157 6.23-5.66 11.52-5.66 11.52v6.587l.022 19.602 9.084.156s.443-33.495.543-50.986c.006-1.05-.223-2.305-.223-2.305S51.422 9.616 36.237 9.304c-15.186-.31-18.31 9.682-18.822 13.702-.512 4.02-.395 9.21-.395 9.21l.27 23.428.466 21.683 8.56.39.477-25.58s-6.38-4.673-6.224-21.496" mask="url(#w)" fill="#5b6a72" stroke="#5b6a72" stroke-width="2"/><path d="M19.84 30.417l-.022-.172 1.22.01c4.38-.64 19.295-3.22 21.634-8.965 2.592-6.366-2.68 5.78 7.07 9.174l1.9.014-.066.48.072.013h-.074l-1.69 12.074s-3.518 13.013-14.067 13.514c-7.684.365-11.904-6.707-13.63-10.575-.6-1.348-2.15-13.937-2.348-15.565h-.01.01z" mask="url(#w)" fill="#f3cda3" stroke="#5b6a72" stroke-width="2"/><path d="M30.505 36.43a1.632 1.632 0 1 1-3.263 0 1.632 1.632 0 0 1 3.263 0M44.35 36.43a1.632 1.632 0 1 1-3.264 0 1.632 1.632 0 0 1 3.264 0" mask="url(#w)" fill="#5b6a72"/><path d="M30.51 47.735c2.872 3.862 7.015 3.003 9.592.39M33.775 44.093a2.207 2.207 0 0 0 3.16.012" mask="url(#w)" stroke="#5b6a72" stroke-width="2" stroke-linecap="round" stroke-linejoin="round"/></g><g transform="translate(736 217.22)"><mask id="z" fill="#fff"><use xlink:href="#g" width="100%" height="100%"/></mask><use xlink:href="#g" width="100%" height="100%" fill="#d0c8ff"/><use mask="url(#y)" xlink:href="#g" width="100%" height="100%" stroke="#5b6a72" stroke-width="4"/><g mask="url(#z)"><use xlink:href="#h" width="100%" height="100%" fill="#f4f4f4"/><use mask="url(#A)" xlink:href="#h" width="100%" height="100%" stroke="#5b6a72" stroke-width="4"/></g><path d="M49.796 40.475c.157 6.23-5.66 11.52-5.66 11.52v6.587l.358-2.308 9.084.156s.107-11.585.207-29.076c.006-1.05-.223-2.305-.223-2.305S51.422 9.616 36.237 9.304c-15.186-.31-18.31 9.682-18.822 13.702-.512 4.02-.395 9.21-.395 9.21l.27 23.428.802-.227 8.56.39.14-3.67s-6.38-4.673-6.223-21.496" mask="url(#z)" fill="#fff" stroke="#5b6a72" stroke-width="2"/><path d="M19.84 30.417l-.022-.172 1.22.01c4.38-.64 19.295-3.22 21.634-8.965 2.592-6.366-2.68 5.78 7.07 9.174l1.9.014-.066.48.072.013h-.074l-1.69 12.074s-3.518 13.013-14.067 13.514c-7.684.365-11.904-6.707-13.63-10.575-.6-1.348-2.15-13.937-2.348-15.565h-.01.01z" mask="url(#z)" fill="#b4785d" stroke="#5b6a72" stroke-width="2"/><path d="M30.505 36.43a1.632 1.632 0 1 1-3.263 0 1.632 1.632 0 0 1 3.263 0M44.35 36.43a1.632 1.632 0 1 1-3.264 0 1.632 1.632 0 0 1 3.264 0" mask="url(#z)" fill="#5b6a72"/><path d="M30.51 47.735c2.872 3.862 7.015 3.003 9.592.39M33.775 44.093a2.207 2.207 0 0 0 3.16.012" mask="url(#z)" stroke="#5b6a72" stroke-width="2" stroke-linecap="round" stroke-linejoin="round"/></g><g transform="translate(736 43.22)"><mask id="C" fill="#fff"><use xlink:href="#i" width="100%" height="100%"/></mask><use xlink:href="#i" width="100%" height="100%" fill="#ffd7bc"/><use mask="url(#B)" xlink:href="#i" width="100%" height="100%" stroke="#5b6a72" stroke-width="4"/><ellipse mask="url(#C)" cx="35.5" cy="65.5" rx="19.5" ry="10.5" fill="#fff" stroke="#5b6a72" stroke-width="2"/><g mask="url(#C)"><use xlink:href="#j" width="100%" height="100%" fill="#fff"/><use mask="url(#D)" xlink:href="#j" width="100%" height="100%" stroke="#5b6a72" stroke-width="4"/></g><g mask="url(#C)"><use xlink:href="#k" width="100%" height="100%" fill="#b5785d"/><use mask="url(#E)" xlink:href="#k" width="100%" height="100%" stroke="#5b6a72" stroke-width="4"/></g><path d="M19.027 32.905s-2.846.332-3.785-2.867c-.94-3.2 1.156-4.66 1.156-4.66s-1.71-1.73-.96-5.11c.75-3.38 2.664-3.733 2.664-3.733s-1.162-2.838.715-5.278c1.877-2.44 5.292-1.855 5.292-1.855s1.838-2.866 5.405-3.992 6.79.425 6.79.425 4.308-.787 8.05.527c3.74 1.314 5.465 5.105 5.465 5.105s3.54.527 5.23 4.657c1.688 4.13.2 7.156.2 7.156s1.26 3.346.385 6.096-4.135 3.07-4.135 3.07l-2.82-5.787s-2.398-1.24-3.033-2.27c-.867-1.41-1.473-5.053-1.473-5.053s-5.274 1.84-7.914 1.87c-2.56.028-7.683-1.696-7.683-1.696s-1.155 3.24-2.08 4.7c-.577.914-2.426 2.422-2.426 2.422s-.875 2.453-.95 3.96c-.05.996-2.62 4.604-2.62 4.604l-1.473-2.29z" mask="url(#C)" fill="#5b6a72" stroke="#5b6a72" stroke-width="2"/><path d="M30.53 31.582a1.633 1.633 0 1 1-3.268 0 1.633 1.633 0 0 1 3.267 0M44.384 31.582a1.633 1.633 0 1 1-3.266 0 1.633 1.633 0 0 1 3.266 0" mask="url(#C)" fill="#5b6a72"/><path d="M31.41 46.397c2.873 3.865 7.02 3.005 9.598.39M34.676 40.127a2.21 2.21 0 0 0 3.163.012" mask="url(#C)" stroke="#5b6a72" stroke-width="2" stroke-linecap="round" stroke-linejoin="round"/></g><g transform="translate(208 188.22)"><mask id="G" fill="#fff"><use xlink:href="#l" width="100%" height="100%"/></mask><use xlink:href="#l" width="100%" height="100%" fill="#dcf2f9"/><use mask="url(#F)" xlink:href="#l" width="100%" height="100%" stroke="#5b6a72" stroke-width="4"/><g mask="url(#G)"><use xlink:href="#m" width="100%" height="100%" fill="#f4f4f4"/><use mask="url(#H)" xlink:href="#m" width="100%" height="100%" stroke="#5b6a72" stroke-width="4"/></g><path d="M15.517 43.005s1.378 3.626 4.803 3.626c0 0 4.566 13.99 16.55 13.47 11.987-.517 15.982-13.987 15.982-13.987s1.615 1.036 3.898-3.626c2.283-4.663-.237-6.735-.237-6.735l-4.06-2.344-3.167-13.802-10.19-2.262-11.992.905-6.335 7.465-3.206 9.132s-4.452 1.956-2.047 8.158z" mask="url(#G)" fill="#b4785d" stroke="#5b6a72" stroke-width="2"/><path d="M22.547 13.745c1.04-.814-.976-5.3-.976-5.3s5.606 2.954 6.14 2.82l.61-5.32 2.614 4.8 5.637-5.8-.5 5.762s6.183-3.572 7.25-3.5c0 0-2.104 3.176-.43 3.754 5.096 1.76 15.045 7.402 12.216 24.248 0 0-3.223-.52-2.686 3.123 0 0-2.15 1.563-2.15-2.08l.01-6.427c.135-1.56-.268-9.89-14.233-10.02 0 0-13.826-1.176-14.78 10.2v5.726s-.538 5.204-2.15 1.04c0 0-.537-1.562-2.685-1.04 0 0-2.373-15.33 6.115-21.985z" mask="url(#G)" fill="#5b6a72" stroke="#5b6a72" stroke-width="2"/><path d="M30.53 35.582a1.633 1.633 0 1 1-3.268 0 1.633 1.633 0 0 1 3.267 0M44.384 35.582a1.633 1.633 0 1 1-3.266 0 1.633 1.633 0 0 1 3.266 0" mask="url(#G)" fill="#5b6a72"/><path d="M31.41 50.397c2.873 3.865 7.02 3.005 9.598.39M34.676 44.127a2.21 2.21 0 0 0 3.163.012" mask="url(#G)" stroke="#5b6a72" stroke-width="2" stroke-linecap="round" stroke-linejoin="round"/></g><g transform="translate(208 45.22)"><mask id="J" fill="#fff"><use xlink:href="#n" width="100%" height="100%"/></mask><use xlink:href="#n" width="100%" height="100%" fill="#dcf2f9"/><use mask="url(#I)" xlink:href="#n" width="100%" height="100%" stroke="#5b6a72" stroke-width="4"/><g mask="url(#J)"><use xlink:href="#o" width="100%" height="100%" fill="#f4f4f4"/><use mask="url(#K)" xlink:href="#o" width="100%" height="100%" stroke="#5b6a72" stroke-width="4"/></g><path d="M15.517 43.005s1.378 3.626 4.803 3.626c0 0 4.566 13.99 16.55 13.47 11.987-.517 15.982-13.987 15.982-13.987s1.615 1.036 3.898-3.626c2.283-4.663-.237-6.735-.237-6.735l-4.06-2.344-3.167-13.802-10.19-2.262-11.992.905-6.335 7.465-3.206 9.132s-4.452 1.956-2.047 8.158z" mask="url(#J)" fill="#fff6f6" stroke="#5b6a72" stroke-width="2"/><path d="M27.71 11.264V8.14l3.224 2.604V6.06s4.566 3.854 9.132 4.163c0 0 18.8 2.603 15.04 24.985 0 0-3.223-.52-2.686 3.123 0 0-2.15 1.563-2.15-2.08l.01-6.427c.135-1.56-.268-9.89-14.233-10.02 0 0-13.826-1.176-14.78 10.2v5.726s-.538 5.204-2.15 1.04c0 0-.537-1.562-2.685-1.04 0 0-3.223-20.822 11.28-24.466z" mask="url(#J)" fill="#bebebe" stroke="#5b6a72" stroke-width="2"/><path d="M30.53 35.582a1.633 1.633 0 1 1-3.268 0 1.633 1.633 0 0 1 3.267 0M44.384 35.582a1.633 1.633 0 1 1-3.266 0 1.633 1.633 0 0 1 3.266 0" mask="url(#J)" fill="#5b6a72"/><path d="M31.41 50.397c2.873 3.865 7.02 3.005 9.598.39M34.676 44.127a2.21 2.21 0 0 0 3.163.012" mask="url(#J)" stroke="#5b6a72" stroke-width="2" stroke-linecap="round" stroke-linejoin="round"/></g></g></svg>